%TF.GenerationSoftware,KiCad,Pcbnew,6.0.11+dfsg-1~bpo11+1*%
%TF.CreationDate,2024-04-13T17:17:30-04:00*%
%TF.ProjectId,Eye Chart,45796520-4368-4617-9274-2e6b69636164,rev?*%
%TF.SameCoordinates,Original*%
%TF.FileFunction,Legend,Bot*%
%TF.FilePolarity,Positive*%
%FSLAX46Y46*%
G04 Gerber Fmt 4.6, Leading zero omitted, Abs format (unit mm)*
G04 Created by KiCad (PCBNEW 6.0.11+dfsg-1~bpo11+1) date 2024-04-13 17:17:30*
%MOMM*%
%LPD*%
G01*
G04 APERTURE LIST*
%ADD10C,0.020000*%
%ADD11C,0.010000*%
%ADD12C,0.030000*%
%ADD13C,0.040000*%
%ADD14C,0.070000*%
%ADD15C,0.090000*%
%ADD16C,0.050000*%
%ADD17C,0.060000*%
%ADD18C,0.080000*%
%ADD19C,0.100000*%
%ADD20C,0.150000*%
G04 APERTURE END LIST*
D10*
X111238095Y-105675180D02*
X111142857Y-105675180D01*
X111047619Y-105722800D01*
X111000000Y-105770419D01*
X110952380Y-105865657D01*
X110904761Y-106056133D01*
X110904761Y-106294228D01*
X110952380Y-106484704D01*
X111000000Y-106579942D01*
X111047619Y-106627561D01*
X111142857Y-106675180D01*
X111238095Y-106675180D01*
X111333333Y-106627561D01*
X111380952Y-106579942D01*
X111428571Y-106484704D01*
X111476190Y-106294228D01*
X111476190Y-106056133D01*
X111428571Y-105865657D01*
X111380952Y-105770419D01*
X111333333Y-105722800D01*
X111238095Y-105675180D01*
X110476190Y-106579942D02*
X110428571Y-106627561D01*
X110476190Y-106675180D01*
X110523809Y-106627561D01*
X110476190Y-106579942D01*
X110476190Y-106675180D01*
X109809523Y-105675180D02*
X109714285Y-105675180D01*
X109619047Y-105722800D01*
X109571428Y-105770419D01*
X109523809Y-105865657D01*
X109476190Y-106056133D01*
X109476190Y-106294228D01*
X109523809Y-106484704D01*
X109571428Y-106579942D01*
X109619047Y-106627561D01*
X109714285Y-106675180D01*
X109809523Y-106675180D01*
X109904761Y-106627561D01*
X109952380Y-106579942D01*
X110000000Y-106484704D01*
X110047619Y-106294228D01*
X110047619Y-106056133D01*
X110000000Y-105865657D01*
X109952380Y-105770419D01*
X109904761Y-105722800D01*
X109809523Y-105675180D01*
X109095238Y-105770419D02*
X109047619Y-105722800D01*
X108952380Y-105675180D01*
X108714285Y-105675180D01*
X108619047Y-105722800D01*
X108571428Y-105770419D01*
X108523809Y-105865657D01*
X108523809Y-105960895D01*
X108571428Y-106103752D01*
X109142857Y-106675180D01*
X108523809Y-106675180D01*
D11*
X111238095Y-107300780D02*
X111142857Y-107300780D01*
X111047619Y-107348400D01*
X111000000Y-107396019D01*
X110952380Y-107491257D01*
X110904761Y-107681733D01*
X110904761Y-107919828D01*
X110952380Y-108110304D01*
X111000000Y-108205542D01*
X111047619Y-108253161D01*
X111142857Y-108300780D01*
X111238095Y-108300780D01*
X111333333Y-108253161D01*
X111380952Y-108205542D01*
X111428571Y-108110304D01*
X111476190Y-107919828D01*
X111476190Y-107681733D01*
X111428571Y-107491257D01*
X111380952Y-107396019D01*
X111333333Y-107348400D01*
X111238095Y-107300780D01*
X110476190Y-108205542D02*
X110428571Y-108253161D01*
X110476190Y-108300780D01*
X110523809Y-108253161D01*
X110476190Y-108205542D01*
X110476190Y-108300780D01*
X109809523Y-107300780D02*
X109714285Y-107300780D01*
X109619047Y-107348400D01*
X109571428Y-107396019D01*
X109523809Y-107491257D01*
X109476190Y-107681733D01*
X109476190Y-107919828D01*
X109523809Y-108110304D01*
X109571428Y-108205542D01*
X109619047Y-108253161D01*
X109714285Y-108300780D01*
X109809523Y-108300780D01*
X109904761Y-108253161D01*
X109952380Y-108205542D01*
X110000000Y-108110304D01*
X110047619Y-107919828D01*
X110047619Y-107681733D01*
X110000000Y-107491257D01*
X109952380Y-107396019D01*
X109904761Y-107348400D01*
X109809523Y-107300780D01*
X108523809Y-108300780D02*
X109095238Y-108300780D01*
X108809523Y-108300780D02*
X108809523Y-107300780D01*
X108904761Y-107443638D01*
X109000000Y-107538876D01*
X109095238Y-107586495D01*
D12*
X111238095Y-104049580D02*
X111142857Y-104049580D01*
X111047619Y-104097200D01*
X111000000Y-104144819D01*
X110952380Y-104240057D01*
X110904761Y-104430533D01*
X110904761Y-104668628D01*
X110952380Y-104859104D01*
X111000000Y-104954342D01*
X111047619Y-105001961D01*
X111142857Y-105049580D01*
X111238095Y-105049580D01*
X111333333Y-105001961D01*
X111380952Y-104954342D01*
X111428571Y-104859104D01*
X111476190Y-104668628D01*
X111476190Y-104430533D01*
X111428571Y-104240057D01*
X111380952Y-104144819D01*
X111333333Y-104097200D01*
X111238095Y-104049580D01*
X110476190Y-104954342D02*
X110428571Y-105001961D01*
X110476190Y-105049580D01*
X110523809Y-105001961D01*
X110476190Y-104954342D01*
X110476190Y-105049580D01*
X109809523Y-104049580D02*
X109714285Y-104049580D01*
X109619047Y-104097200D01*
X109571428Y-104144819D01*
X109523809Y-104240057D01*
X109476190Y-104430533D01*
X109476190Y-104668628D01*
X109523809Y-104859104D01*
X109571428Y-104954342D01*
X109619047Y-105001961D01*
X109714285Y-105049580D01*
X109809523Y-105049580D01*
X109904761Y-105001961D01*
X109952380Y-104954342D01*
X110000000Y-104859104D01*
X110047619Y-104668628D01*
X110047619Y-104430533D01*
X110000000Y-104240057D01*
X109952380Y-104144819D01*
X109904761Y-104097200D01*
X109809523Y-104049580D01*
X109142857Y-104049580D02*
X108523809Y-104049580D01*
X108857142Y-104430533D01*
X108714285Y-104430533D01*
X108619047Y-104478152D01*
X108571428Y-104525771D01*
X108523809Y-104621009D01*
X108523809Y-104859104D01*
X108571428Y-104954342D01*
X108619047Y-105001961D01*
X108714285Y-105049580D01*
X109000000Y-105049580D01*
X109095238Y-105001961D01*
X109142857Y-104954342D01*
D13*
X111238095Y-102423980D02*
X111142857Y-102423980D01*
X111047619Y-102471600D01*
X111000000Y-102519219D01*
X110952380Y-102614457D01*
X110904761Y-102804933D01*
X110904761Y-103043028D01*
X110952380Y-103233504D01*
X111000000Y-103328742D01*
X111047619Y-103376361D01*
X111142857Y-103423980D01*
X111238095Y-103423980D01*
X111333333Y-103376361D01*
X111380952Y-103328742D01*
X111428571Y-103233504D01*
X111476190Y-103043028D01*
X111476190Y-102804933D01*
X111428571Y-102614457D01*
X111380952Y-102519219D01*
X111333333Y-102471600D01*
X111238095Y-102423980D01*
X110476190Y-103328742D02*
X110428571Y-103376361D01*
X110476190Y-103423980D01*
X110523809Y-103376361D01*
X110476190Y-103328742D01*
X110476190Y-103423980D01*
X109809523Y-102423980D02*
X109714285Y-102423980D01*
X109619047Y-102471600D01*
X109571428Y-102519219D01*
X109523809Y-102614457D01*
X109476190Y-102804933D01*
X109476190Y-103043028D01*
X109523809Y-103233504D01*
X109571428Y-103328742D01*
X109619047Y-103376361D01*
X109714285Y-103423980D01*
X109809523Y-103423980D01*
X109904761Y-103376361D01*
X109952380Y-103328742D01*
X110000000Y-103233504D01*
X110047619Y-103043028D01*
X110047619Y-102804933D01*
X110000000Y-102614457D01*
X109952380Y-102519219D01*
X109904761Y-102471600D01*
X109809523Y-102423980D01*
X108619047Y-102757314D02*
X108619047Y-103423980D01*
X108857142Y-102376361D02*
X109095238Y-103090647D01*
X108476190Y-103090647D01*
D14*
X111238095Y-97547180D02*
X111142857Y-97547180D01*
X111047619Y-97594800D01*
X111000000Y-97642419D01*
X110952380Y-97737657D01*
X110904761Y-97928133D01*
X110904761Y-98166228D01*
X110952380Y-98356704D01*
X111000000Y-98451942D01*
X111047619Y-98499561D01*
X111142857Y-98547180D01*
X111238095Y-98547180D01*
X111333333Y-98499561D01*
X111380952Y-98451942D01*
X111428571Y-98356704D01*
X111476190Y-98166228D01*
X111476190Y-97928133D01*
X111428571Y-97737657D01*
X111380952Y-97642419D01*
X111333333Y-97594800D01*
X111238095Y-97547180D01*
X110476190Y-98451942D02*
X110428571Y-98499561D01*
X110476190Y-98547180D01*
X110523809Y-98499561D01*
X110476190Y-98451942D01*
X110476190Y-98547180D01*
X109809523Y-97547180D02*
X109714285Y-97547180D01*
X109619047Y-97594800D01*
X109571428Y-97642419D01*
X109523809Y-97737657D01*
X109476190Y-97928133D01*
X109476190Y-98166228D01*
X109523809Y-98356704D01*
X109571428Y-98451942D01*
X109619047Y-98499561D01*
X109714285Y-98547180D01*
X109809523Y-98547180D01*
X109904761Y-98499561D01*
X109952380Y-98451942D01*
X110000000Y-98356704D01*
X110047619Y-98166228D01*
X110047619Y-97928133D01*
X110000000Y-97737657D01*
X109952380Y-97642419D01*
X109904761Y-97594800D01*
X109809523Y-97547180D01*
X109142857Y-97547180D02*
X108476190Y-97547180D01*
X108904761Y-98547180D01*
D15*
X111238095Y-94600780D02*
X111142857Y-94600780D01*
X111047619Y-94648400D01*
X111000000Y-94696019D01*
X110952380Y-94791257D01*
X110904761Y-94981733D01*
X110904761Y-95219828D01*
X110952380Y-95410304D01*
X111000000Y-95505542D01*
X111047619Y-95553161D01*
X111142857Y-95600780D01*
X111238095Y-95600780D01*
X111333333Y-95553161D01*
X111380952Y-95505542D01*
X111428571Y-95410304D01*
X111476190Y-95219828D01*
X111476190Y-94981733D01*
X111428571Y-94791257D01*
X111380952Y-94696019D01*
X111333333Y-94648400D01*
X111238095Y-94600780D01*
X110476190Y-95505542D02*
X110428571Y-95553161D01*
X110476190Y-95600780D01*
X110523809Y-95553161D01*
X110476190Y-95505542D01*
X110476190Y-95600780D01*
X109809523Y-94600780D02*
X109714285Y-94600780D01*
X109619047Y-94648400D01*
X109571428Y-94696019D01*
X109523809Y-94791257D01*
X109476190Y-94981733D01*
X109476190Y-95219828D01*
X109523809Y-95410304D01*
X109571428Y-95505542D01*
X109619047Y-95553161D01*
X109714285Y-95600780D01*
X109809523Y-95600780D01*
X109904761Y-95553161D01*
X109952380Y-95505542D01*
X110000000Y-95410304D01*
X110047619Y-95219828D01*
X110047619Y-94981733D01*
X110000000Y-94791257D01*
X109952380Y-94696019D01*
X109904761Y-94648400D01*
X109809523Y-94600780D01*
X109000000Y-95600780D02*
X108809523Y-95600780D01*
X108714285Y-95553161D01*
X108666666Y-95505542D01*
X108571428Y-95362685D01*
X108523809Y-95172209D01*
X108523809Y-94791257D01*
X108571428Y-94696019D01*
X108619047Y-94648400D01*
X108714285Y-94600780D01*
X108904761Y-94600780D01*
X109000000Y-94648400D01*
X109047619Y-94696019D01*
X109095238Y-94791257D01*
X109095238Y-95029352D01*
X109047619Y-95124590D01*
X109000000Y-95172209D01*
X108904761Y-95219828D01*
X108714285Y-95219828D01*
X108619047Y-95172209D01*
X108571428Y-95124590D01*
X108523809Y-95029352D01*
D16*
X111238095Y-100798380D02*
X111142857Y-100798380D01*
X111047619Y-100846000D01*
X111000000Y-100893619D01*
X110952380Y-100988857D01*
X110904761Y-101179333D01*
X110904761Y-101417428D01*
X110952380Y-101607904D01*
X111000000Y-101703142D01*
X111047619Y-101750761D01*
X111142857Y-101798380D01*
X111238095Y-101798380D01*
X111333333Y-101750761D01*
X111380952Y-101703142D01*
X111428571Y-101607904D01*
X111476190Y-101417428D01*
X111476190Y-101179333D01*
X111428571Y-100988857D01*
X111380952Y-100893619D01*
X111333333Y-100846000D01*
X111238095Y-100798380D01*
X110476190Y-101703142D02*
X110428571Y-101750761D01*
X110476190Y-101798380D01*
X110523809Y-101750761D01*
X110476190Y-101703142D01*
X110476190Y-101798380D01*
X109809523Y-100798380D02*
X109714285Y-100798380D01*
X109619047Y-100846000D01*
X109571428Y-100893619D01*
X109523809Y-100988857D01*
X109476190Y-101179333D01*
X109476190Y-101417428D01*
X109523809Y-101607904D01*
X109571428Y-101703142D01*
X109619047Y-101750761D01*
X109714285Y-101798380D01*
X109809523Y-101798380D01*
X109904761Y-101750761D01*
X109952380Y-101703142D01*
X110000000Y-101607904D01*
X110047619Y-101417428D01*
X110047619Y-101179333D01*
X110000000Y-100988857D01*
X109952380Y-100893619D01*
X109904761Y-100846000D01*
X109809523Y-100798380D01*
X108571428Y-100798380D02*
X109047619Y-100798380D01*
X109095238Y-101274571D01*
X109047619Y-101226952D01*
X108952380Y-101179333D01*
X108714285Y-101179333D01*
X108619047Y-101226952D01*
X108571428Y-101274571D01*
X108523809Y-101369809D01*
X108523809Y-101607904D01*
X108571428Y-101703142D01*
X108619047Y-101750761D01*
X108714285Y-101798380D01*
X108952380Y-101798380D01*
X109047619Y-101750761D01*
X109095238Y-101703142D01*
D17*
X111238095Y-99223580D02*
X111142857Y-99223580D01*
X111047619Y-99271200D01*
X111000000Y-99318819D01*
X110952380Y-99414057D01*
X110904761Y-99604533D01*
X110904761Y-99842628D01*
X110952380Y-100033104D01*
X111000000Y-100128342D01*
X111047619Y-100175961D01*
X111142857Y-100223580D01*
X111238095Y-100223580D01*
X111333333Y-100175961D01*
X111380952Y-100128342D01*
X111428571Y-100033104D01*
X111476190Y-99842628D01*
X111476190Y-99604533D01*
X111428571Y-99414057D01*
X111380952Y-99318819D01*
X111333333Y-99271200D01*
X111238095Y-99223580D01*
X110476190Y-100128342D02*
X110428571Y-100175961D01*
X110476190Y-100223580D01*
X110523809Y-100175961D01*
X110476190Y-100128342D01*
X110476190Y-100223580D01*
X109809523Y-99223580D02*
X109714285Y-99223580D01*
X109619047Y-99271200D01*
X109571428Y-99318819D01*
X109523809Y-99414057D01*
X109476190Y-99604533D01*
X109476190Y-99842628D01*
X109523809Y-100033104D01*
X109571428Y-100128342D01*
X109619047Y-100175961D01*
X109714285Y-100223580D01*
X109809523Y-100223580D01*
X109904761Y-100175961D01*
X109952380Y-100128342D01*
X110000000Y-100033104D01*
X110047619Y-99842628D01*
X110047619Y-99604533D01*
X110000000Y-99414057D01*
X109952380Y-99318819D01*
X109904761Y-99271200D01*
X109809523Y-99223580D01*
X108619047Y-99223580D02*
X108809523Y-99223580D01*
X108904761Y-99271200D01*
X108952380Y-99318819D01*
X109047619Y-99461676D01*
X109095238Y-99652152D01*
X109095238Y-100033104D01*
X109047619Y-100128342D01*
X109000000Y-100175961D01*
X108904761Y-100223580D01*
X108714285Y-100223580D01*
X108619047Y-100175961D01*
X108571428Y-100128342D01*
X108523809Y-100033104D01*
X108523809Y-99795009D01*
X108571428Y-99699771D01*
X108619047Y-99652152D01*
X108714285Y-99604533D01*
X108904761Y-99604533D01*
X109000000Y-99652152D01*
X109047619Y-99699771D01*
X109095238Y-99795009D01*
D18*
X111238095Y-96023180D02*
X111142857Y-96023180D01*
X111047619Y-96070800D01*
X111000000Y-96118419D01*
X110952380Y-96213657D01*
X110904761Y-96404133D01*
X110904761Y-96642228D01*
X110952380Y-96832704D01*
X111000000Y-96927942D01*
X111047619Y-96975561D01*
X111142857Y-97023180D01*
X111238095Y-97023180D01*
X111333333Y-96975561D01*
X111380952Y-96927942D01*
X111428571Y-96832704D01*
X111476190Y-96642228D01*
X111476190Y-96404133D01*
X111428571Y-96213657D01*
X111380952Y-96118419D01*
X111333333Y-96070800D01*
X111238095Y-96023180D01*
X110476190Y-96927942D02*
X110428571Y-96975561D01*
X110476190Y-97023180D01*
X110523809Y-96975561D01*
X110476190Y-96927942D01*
X110476190Y-97023180D01*
X109809523Y-96023180D02*
X109714285Y-96023180D01*
X109619047Y-96070800D01*
X109571428Y-96118419D01*
X109523809Y-96213657D01*
X109476190Y-96404133D01*
X109476190Y-96642228D01*
X109523809Y-96832704D01*
X109571428Y-96927942D01*
X109619047Y-96975561D01*
X109714285Y-97023180D01*
X109809523Y-97023180D01*
X109904761Y-96975561D01*
X109952380Y-96927942D01*
X110000000Y-96832704D01*
X110047619Y-96642228D01*
X110047619Y-96404133D01*
X110000000Y-96213657D01*
X109952380Y-96118419D01*
X109904761Y-96070800D01*
X109809523Y-96023180D01*
X108904761Y-96451752D02*
X109000000Y-96404133D01*
X109047619Y-96356514D01*
X109095238Y-96261276D01*
X109095238Y-96213657D01*
X109047619Y-96118419D01*
X109000000Y-96070800D01*
X108904761Y-96023180D01*
X108714285Y-96023180D01*
X108619047Y-96070800D01*
X108571428Y-96118419D01*
X108523809Y-96213657D01*
X108523809Y-96261276D01*
X108571428Y-96356514D01*
X108619047Y-96404133D01*
X108714285Y-96451752D01*
X108904761Y-96451752D01*
X109000000Y-96499371D01*
X109047619Y-96546990D01*
X109095238Y-96642228D01*
X109095238Y-96832704D01*
X109047619Y-96927942D01*
X109000000Y-96975561D01*
X108904761Y-97023180D01*
X108714285Y-97023180D01*
X108619047Y-96975561D01*
X108571428Y-96927942D01*
X108523809Y-96832704D01*
X108523809Y-96642228D01*
X108571428Y-96546990D01*
X108619047Y-96499371D01*
X108714285Y-96451752D01*
D19*
X111238095Y-93178380D02*
X111142857Y-93178380D01*
X111047619Y-93226000D01*
X111000000Y-93273619D01*
X110952380Y-93368857D01*
X110904761Y-93559333D01*
X110904761Y-93797428D01*
X110952380Y-93987904D01*
X111000000Y-94083142D01*
X111047619Y-94130761D01*
X111142857Y-94178380D01*
X111238095Y-94178380D01*
X111333333Y-94130761D01*
X111380952Y-94083142D01*
X111428571Y-93987904D01*
X111476190Y-93797428D01*
X111476190Y-93559333D01*
X111428571Y-93368857D01*
X111380952Y-93273619D01*
X111333333Y-93226000D01*
X111238095Y-93178380D01*
X110476190Y-94083142D02*
X110428571Y-94130761D01*
X110476190Y-94178380D01*
X110523809Y-94130761D01*
X110476190Y-94083142D01*
X110476190Y-94178380D01*
X109476190Y-94178380D02*
X110047619Y-94178380D01*
X109761904Y-94178380D02*
X109761904Y-93178380D01*
X109857142Y-93321238D01*
X109952380Y-93416476D01*
X110047619Y-93464095D01*
X108857142Y-93178380D02*
X108761904Y-93178380D01*
X108666666Y-93226000D01*
X108619047Y-93273619D01*
X108571428Y-93368857D01*
X108523809Y-93559333D01*
X108523809Y-93797428D01*
X108571428Y-93987904D01*
X108619047Y-94083142D01*
X108666666Y-94130761D01*
X108761904Y-94178380D01*
X108857142Y-94178380D01*
X108952380Y-94130761D01*
X109000000Y-94083142D01*
X109047619Y-93987904D01*
X109095238Y-93797428D01*
X109095238Y-93559333D01*
X109047619Y-93368857D01*
X109000000Y-93273619D01*
X108952380Y-93226000D01*
X108857142Y-93178380D01*
D20*
X111238095Y-91552780D02*
X111142857Y-91552780D01*
X111047619Y-91600400D01*
X111000000Y-91648019D01*
X110952380Y-91743257D01*
X110904761Y-91933733D01*
X110904761Y-92171828D01*
X110952380Y-92362304D01*
X111000000Y-92457542D01*
X111047619Y-92505161D01*
X111142857Y-92552780D01*
X111238095Y-92552780D01*
X111333333Y-92505161D01*
X111380952Y-92457542D01*
X111428571Y-92362304D01*
X111476190Y-92171828D01*
X111476190Y-91933733D01*
X111428571Y-91743257D01*
X111380952Y-91648019D01*
X111333333Y-91600400D01*
X111238095Y-91552780D01*
X110476190Y-92457542D02*
X110428571Y-92505161D01*
X110476190Y-92552780D01*
X110523809Y-92505161D01*
X110476190Y-92457542D01*
X110476190Y-92552780D01*
X109476190Y-92552780D02*
X110047619Y-92552780D01*
X109761904Y-92552780D02*
X109761904Y-91552780D01*
X109857142Y-91695638D01*
X109952380Y-91790876D01*
X110047619Y-91838495D01*
X108571428Y-91552780D02*
X109047619Y-91552780D01*
X109095238Y-92028971D01*
X109047619Y-91981352D01*
X108952380Y-91933733D01*
X108714285Y-91933733D01*
X108619047Y-91981352D01*
X108571428Y-92028971D01*
X108523809Y-92124209D01*
X108523809Y-92362304D01*
X108571428Y-92457542D01*
X108619047Y-92505161D01*
X108714285Y-92552780D01*
X108952380Y-92552780D01*
X109047619Y-92505161D01*
X109095238Y-92457542D01*
X106309523Y-109404761D02*
X106166666Y-109452380D01*
X105928571Y-109452380D01*
X105833333Y-109404761D01*
X105785714Y-109357142D01*
X105738095Y-109261904D01*
X105738095Y-109166666D01*
X105785714Y-109071428D01*
X105833333Y-109023809D01*
X105928571Y-108976190D01*
X106119047Y-108928571D01*
X106214285Y-108880952D01*
X106261904Y-108833333D01*
X106309523Y-108738095D01*
X106309523Y-108642857D01*
X106261904Y-108547619D01*
X106214285Y-108500000D01*
X106119047Y-108452380D01*
X105880952Y-108452380D01*
X105738095Y-108500000D01*
X105309523Y-109357142D02*
X105261904Y-109404761D01*
X105309523Y-109452380D01*
X105357142Y-109404761D01*
X105309523Y-109357142D01*
X105309523Y-109452380D01*
X104119047Y-109166666D02*
X103642857Y-109166666D01*
X104214285Y-109452380D02*
X103880952Y-108452380D01*
X103547619Y-109452380D01*
X103214285Y-109357142D02*
X103166666Y-109404761D01*
X103214285Y-109452380D01*
X103261904Y-109404761D01*
X103214285Y-109357142D01*
X103214285Y-109452380D01*
X101976190Y-109452380D02*
X101976190Y-108452380D01*
X101642857Y-109166666D01*
X101309523Y-108452380D01*
X101309523Y-109452380D01*
X100833333Y-109452380D02*
X100833333Y-108785714D01*
X100833333Y-108452380D02*
X100880952Y-108500000D01*
X100833333Y-108547619D01*
X100785714Y-108500000D01*
X100833333Y-108452380D01*
X100833333Y-108547619D01*
X100214285Y-109452380D02*
X100309523Y-109404761D01*
X100357142Y-109309523D01*
X100357142Y-108452380D01*
X99690476Y-109452380D02*
X99785714Y-109404761D01*
X99833333Y-109309523D01*
X99833333Y-108452380D01*
X98928571Y-109404761D02*
X99023809Y-109452380D01*
X99214285Y-109452380D01*
X99309523Y-109404761D01*
X99357142Y-109309523D01*
X99357142Y-108928571D01*
X99309523Y-108833333D01*
X99214285Y-108785714D01*
X99023809Y-108785714D01*
X98928571Y-108833333D01*
X98880952Y-108928571D01*
X98880952Y-109023809D01*
X99357142Y-109119047D01*
X98452380Y-109452380D02*
X98452380Y-108785714D01*
X98452380Y-108976190D02*
X98404761Y-108880952D01*
X98357142Y-108833333D01*
X98261904Y-108785714D01*
X98166666Y-108785714D01*
X97119047Y-108547619D02*
X97071428Y-108500000D01*
X96976190Y-108452380D01*
X96738095Y-108452380D01*
X96642857Y-108500000D01*
X96595238Y-108547619D01*
X96547619Y-108642857D01*
X96547619Y-108738095D01*
X96595238Y-108880952D01*
X97166666Y-109452380D01*
X96547619Y-109452380D01*
X95928571Y-108452380D02*
X95833333Y-108452380D01*
X95738095Y-108500000D01*
X95690476Y-108547619D01*
X95642857Y-108642857D01*
X95595238Y-108833333D01*
X95595238Y-109071428D01*
X95642857Y-109261904D01*
X95690476Y-109357142D01*
X95738095Y-109404761D01*
X95833333Y-109452380D01*
X95928571Y-109452380D01*
X96023809Y-109404761D01*
X96071428Y-109357142D01*
X96119047Y-109261904D01*
X96166666Y-109071428D01*
X96166666Y-108833333D01*
X96119047Y-108642857D01*
X96071428Y-108547619D01*
X96023809Y-108500000D01*
X95928571Y-108452380D01*
X95214285Y-108547619D02*
X95166666Y-108500000D01*
X95071428Y-108452380D01*
X94833333Y-108452380D01*
X94738095Y-108500000D01*
X94690476Y-108547619D01*
X94642857Y-108642857D01*
X94642857Y-108738095D01*
X94690476Y-108880952D01*
X95261904Y-109452380D01*
X94642857Y-109452380D01*
X93785714Y-108785714D02*
X93785714Y-109452380D01*
X94023809Y-108404761D02*
X94261904Y-109119047D01*
X93642857Y-109119047D01*
%TO.C,G\u002A\u002A\u002A*%
G36*
X99040000Y-100900000D02*
G01*
X99020000Y-100920000D01*
X99000000Y-100900000D01*
X99020000Y-100880000D01*
X99040000Y-100900000D01*
G37*
G36*
X99040000Y-100740000D02*
G01*
X99020000Y-100760000D01*
X99000000Y-100740000D01*
X99020000Y-100720000D01*
X99040000Y-100740000D01*
G37*
G36*
X100487500Y-100812675D02*
G01*
X100506015Y-100827073D01*
X100463334Y-100836842D01*
X100422763Y-100834013D01*
X100410834Y-100815833D01*
X100424985Y-100807906D01*
X100487500Y-100812675D01*
G37*
G36*
X99896829Y-99363140D02*
G01*
X99900000Y-99400000D01*
X99891791Y-99411970D01*
X99857640Y-99440000D01*
X99853648Y-99438960D01*
X99840000Y-99400000D01*
X99841628Y-99389036D01*
X99882361Y-99360000D01*
X99896829Y-99363140D01*
G37*
G36*
X98880000Y-101380000D02*
G01*
X98860000Y-101400000D01*
X98840000Y-101380000D01*
X98860000Y-101360000D01*
X98880000Y-101380000D01*
G37*
G36*
X100749083Y-99550436D02*
G01*
X100809477Y-99585068D01*
X100953815Y-99627295D01*
X101160000Y-99663742D01*
X101239178Y-99677233D01*
X101380244Y-99716395D01*
X101456880Y-99769422D01*
X101480001Y-99842407D01*
X101479764Y-99850257D01*
X101469206Y-99870436D01*
X101457225Y-99893333D01*
X101447243Y-99912411D01*
X101350000Y-99949450D01*
X101341370Y-99951255D01*
X101249060Y-99968303D01*
X101200000Y-99973334D01*
X101163482Y-99968764D01*
X101067008Y-99957851D01*
X100935278Y-99943495D01*
X100890647Y-99938740D01*
X100774717Y-99929381D01*
X100712459Y-99936946D01*
X100683652Y-99967875D01*
X100669132Y-100024505D01*
X100668080Y-100028610D01*
X100649605Y-100107226D01*
X100647314Y-100116976D01*
X100620329Y-100205290D01*
X100615434Y-100227692D01*
X100636431Y-100260151D01*
X100708497Y-100286868D01*
X100845891Y-100314764D01*
X100947295Y-100335067D01*
X101078101Y-100379329D01*
X101171257Y-100450239D01*
X101245736Y-100564797D01*
X101320510Y-100740000D01*
X101367836Y-100856336D01*
X101420785Y-100972205D01*
X101426636Y-100982576D01*
X101459036Y-101040000D01*
X101460919Y-101042564D01*
X101497040Y-101119632D01*
X101542457Y-101253176D01*
X101592418Y-101424224D01*
X101605649Y-101474639D01*
X101634446Y-101584365D01*
X101642172Y-101613805D01*
X101662585Y-101700000D01*
X101686965Y-101802947D01*
X101701677Y-101874126D01*
X101722047Y-101972678D01*
X101729652Y-102021123D01*
X101742667Y-102104027D01*
X101744071Y-102178022D01*
X101735343Y-102235104D01*
X101762337Y-102271730D01*
X101849877Y-102287456D01*
X101912242Y-102296891D01*
X101971014Y-102333336D01*
X101993287Y-102416528D01*
X102006573Y-102533057D01*
X100736764Y-102506528D01*
X100697915Y-102505724D01*
X100339402Y-102498880D01*
X99968773Y-102492733D01*
X99604448Y-102487528D01*
X99264845Y-102483508D01*
X98968382Y-102480917D01*
X98733477Y-102480000D01*
X98000000Y-102480000D01*
X98000000Y-102380000D01*
X98000292Y-102361405D01*
X98013619Y-102307564D01*
X98062870Y-102284714D01*
X98170000Y-102279931D01*
X98340000Y-102279863D01*
X98346290Y-102100948D01*
X98411509Y-102100948D01*
X98418505Y-102195289D01*
X98458815Y-102254513D01*
X98542651Y-102313929D01*
X98600073Y-102335017D01*
X98720739Y-102357673D01*
X98837306Y-102358843D01*
X98925238Y-102339345D01*
X98960000Y-102300000D01*
X98968698Y-102270037D01*
X99024664Y-102240000D01*
X99036600Y-102239393D01*
X99072183Y-102211817D01*
X99066795Y-102130000D01*
X99048948Y-102022222D01*
X99036959Y-101928608D01*
X101022538Y-101928608D01*
X101024193Y-101937833D01*
X101100000Y-101959146D01*
X101201536Y-101987186D01*
X101300000Y-102017814D01*
X101314931Y-102022681D01*
X101333239Y-102021123D01*
X101280000Y-101984180D01*
X101189976Y-101944678D01*
X101080000Y-101925511D01*
X101022538Y-101928608D01*
X99036959Y-101928608D01*
X99029306Y-101868854D01*
X99023304Y-101813573D01*
X101022214Y-101813573D01*
X101056715Y-101835664D01*
X101153289Y-101840000D01*
X101174852Y-101840297D01*
X101280147Y-101850271D01*
X101343594Y-101870000D01*
X101349858Y-101874126D01*
X101330156Y-101852611D01*
X101267551Y-101793711D01*
X101257205Y-101784166D01*
X101193338Y-101719203D01*
X101188443Y-101700000D01*
X101320000Y-101700000D01*
X101340000Y-101720000D01*
X101360000Y-101700000D01*
X101340000Y-101680000D01*
X101320000Y-101700000D01*
X101188443Y-101700000D01*
X101184829Y-101685822D01*
X101225957Y-101666538D01*
X101232131Y-101664694D01*
X101242924Y-101653501D01*
X101184315Y-101652826D01*
X101098314Y-101674251D01*
X101035604Y-101750000D01*
X101031967Y-101760098D01*
X101022214Y-101813573D01*
X99023304Y-101813573D01*
X99009830Y-101689482D01*
X99003257Y-101620000D01*
X99960000Y-101620000D01*
X99961342Y-101637180D01*
X99994787Y-101678812D01*
X100053334Y-101653333D01*
X100065161Y-101639685D01*
X100075091Y-101584365D01*
X100020000Y-101560000D01*
X99992019Y-101566969D01*
X99960000Y-101620000D01*
X99003257Y-101620000D01*
X98992064Y-101501681D01*
X98991257Y-101491746D01*
X101042738Y-101491746D01*
X101045834Y-101549375D01*
X101048285Y-101553160D01*
X101096700Y-101560091D01*
X101174995Y-101541802D01*
X101247865Y-101509561D01*
X101280000Y-101474639D01*
X101272247Y-101447134D01*
X101226883Y-101418504D01*
X101180404Y-101439347D01*
X101171722Y-101450759D01*
X101114916Y-101480000D01*
X101109265Y-101478313D01*
X101113410Y-101438973D01*
X101157277Y-101363825D01*
X101172548Y-101341916D01*
X101229997Y-101237365D01*
X101226587Y-101178469D01*
X101162451Y-101160000D01*
X101119813Y-101170072D01*
X101083246Y-101222906D01*
X101058285Y-101337499D01*
X101051590Y-101387005D01*
X101042738Y-101491746D01*
X98991257Y-101491746D01*
X98977554Y-101323023D01*
X98967844Y-101171084D01*
X98964480Y-101063438D01*
X98969007Y-101017660D01*
X99040583Y-100980741D01*
X99182334Y-100947600D01*
X99376753Y-100922203D01*
X99609745Y-100904795D01*
X99867212Y-100895622D01*
X100135060Y-100894928D01*
X100399192Y-100902959D01*
X100645512Y-100919960D01*
X100859924Y-100946176D01*
X101028331Y-100981851D01*
X101052638Y-100982576D01*
X101010000Y-100955124D01*
X100952021Y-100909663D01*
X100919388Y-100843887D01*
X100919330Y-100839308D01*
X100911760Y-100802025D01*
X100881989Y-100838151D01*
X100866739Y-100858939D01*
X100823313Y-100875349D01*
X100746416Y-100843433D01*
X100667967Y-100814848D01*
X100603815Y-100817642D01*
X100580806Y-100822869D01*
X100560000Y-100782360D01*
X100559962Y-100779623D01*
X100531816Y-100728447D01*
X100469567Y-100728441D01*
X100400000Y-100780000D01*
X100395071Y-100785299D01*
X100314686Y-100824514D01*
X100196130Y-100840000D01*
X100118281Y-100835925D01*
X100039390Y-100805342D01*
X99984236Y-100730000D01*
X99930436Y-100648389D01*
X99845706Y-100547585D01*
X99748973Y-100448734D01*
X99655987Y-100366758D01*
X99582498Y-100316579D01*
X99544253Y-100313119D01*
X99500896Y-100335870D01*
X99398699Y-100361135D01*
X99262465Y-100381212D01*
X99187920Y-100390321D01*
X99061067Y-100417876D01*
X98963930Y-100467504D01*
X98881822Y-100552322D01*
X98800053Y-100685448D01*
X98703933Y-100880000D01*
X98675400Y-100946053D01*
X98614520Y-101118708D01*
X98555195Y-101323275D01*
X98501328Y-101541768D01*
X98456823Y-101756201D01*
X98425582Y-101948590D01*
X98411509Y-102100948D01*
X98346290Y-102100948D01*
X98347917Y-102054665D01*
X98365144Y-101856979D01*
X98409552Y-101602605D01*
X98475102Y-101337822D01*
X98556539Y-101077585D01*
X98648606Y-100836850D01*
X98746049Y-100630571D01*
X98843610Y-100473704D01*
X98936035Y-100381203D01*
X98986224Y-100358751D01*
X99106058Y-100325702D01*
X99247948Y-100301613D01*
X99475896Y-100274756D01*
X99430351Y-100167378D01*
X99418375Y-100140113D01*
X99485065Y-100140113D01*
X99513263Y-100209262D01*
X99515148Y-100211118D01*
X99539838Y-100218541D01*
X99530752Y-100156793D01*
X99518056Y-100126568D01*
X99688623Y-100126568D01*
X99711693Y-100171605D01*
X99762246Y-100218541D01*
X99803070Y-100256444D01*
X99839367Y-100284788D01*
X99984535Y-100351853D01*
X100122656Y-100339327D01*
X100253077Y-100247226D01*
X100274864Y-100223277D01*
X100326582Y-100150068D01*
X100333894Y-100107226D01*
X100308609Y-100087834D01*
X100249690Y-100094685D01*
X100192722Y-100180000D01*
X100140901Y-100250640D01*
X100043580Y-100277188D01*
X100021601Y-100276328D01*
X99976705Y-100267338D01*
X100006348Y-100247188D01*
X100025946Y-100228401D01*
X99987837Y-100198275D01*
X99876348Y-100156939D01*
X99852241Y-100149330D01*
X99735069Y-100119691D01*
X99688623Y-100126568D01*
X99518056Y-100126568D01*
X99509099Y-100105245D01*
X99488490Y-100114531D01*
X99485065Y-100140113D01*
X99418375Y-100140113D01*
X99405668Y-100111184D01*
X99360585Y-100037923D01*
X99313138Y-100020000D01*
X99440000Y-100020000D01*
X99460000Y-100040000D01*
X100000000Y-100040000D01*
X100000459Y-100049052D01*
X100017640Y-100080000D01*
X100024056Y-100078159D01*
X100060000Y-100040000D01*
X100066251Y-100024505D01*
X100042361Y-100000000D01*
X100030751Y-100001537D01*
X100015990Y-100020000D01*
X100000000Y-100040000D01*
X99460000Y-100040000D01*
X99480000Y-100020000D01*
X99460000Y-100000000D01*
X99440000Y-100020000D01*
X99313138Y-100020000D01*
X99306533Y-100017505D01*
X99219042Y-100034549D01*
X99183528Y-100041752D01*
X99046033Y-100037495D01*
X98901117Y-99996339D01*
X98770596Y-99928766D01*
X98744166Y-99905364D01*
X100927076Y-99905364D01*
X100960000Y-99920000D01*
X100981176Y-99917113D01*
X100986667Y-99893333D01*
X100980804Y-99888546D01*
X100933334Y-99893333D01*
X100927076Y-99905364D01*
X98744166Y-99905364D01*
X98692932Y-99860000D01*
X100640000Y-99860000D01*
X100660000Y-99880000D01*
X100680000Y-99860000D01*
X100675833Y-99855833D01*
X100770834Y-99855833D01*
X100771023Y-99860000D01*
X100771453Y-99869487D01*
X100823334Y-99876842D01*
X100862652Y-99870436D01*
X100847500Y-99852675D01*
X100824369Y-99846284D01*
X100770834Y-99855833D01*
X100675833Y-99855833D01*
X100660000Y-99840000D01*
X100640000Y-99860000D01*
X98692932Y-99860000D01*
X98676285Y-99845260D01*
X98640000Y-99756303D01*
X98670970Y-99737992D01*
X98761224Y-99711170D01*
X98890000Y-99683053D01*
X98894416Y-99682215D01*
X99124889Y-99633518D01*
X99281853Y-99588268D01*
X99371495Y-99544233D01*
X99376810Y-99535833D01*
X100450834Y-99535833D01*
X100451453Y-99549487D01*
X100503334Y-99556842D01*
X100542652Y-99550436D01*
X100527500Y-99532675D01*
X100504369Y-99526284D01*
X100450834Y-99535833D01*
X99376810Y-99535833D01*
X99400000Y-99499184D01*
X99400922Y-99489286D01*
X99427284Y-99411674D01*
X99450489Y-99366319D01*
X99696015Y-99366319D01*
X99703390Y-99428304D01*
X99756935Y-99504011D01*
X99841701Y-99524090D01*
X99933562Y-99477273D01*
X99951546Y-99456166D01*
X100238651Y-99456166D01*
X100247228Y-99466549D01*
X100320000Y-99470719D01*
X100347140Y-99470333D01*
X100402450Y-99464020D01*
X100390000Y-99452426D01*
X100351450Y-99446206D01*
X100250000Y-99452426D01*
X100238651Y-99456166D01*
X99951546Y-99456166D01*
X99973145Y-99430815D01*
X99997566Y-99345159D01*
X99951000Y-99283600D01*
X99839453Y-99260000D01*
X99755734Y-99265007D01*
X99708713Y-99294341D01*
X99696015Y-99366319D01*
X99450489Y-99366319D01*
X99478666Y-99311244D01*
X99479828Y-99309254D01*
X99527777Y-99200889D01*
X99578025Y-99047124D01*
X99619881Y-98880567D01*
X99625489Y-98854373D01*
X99659297Y-98713235D01*
X99690271Y-98608642D01*
X99712319Y-98561609D01*
X99714314Y-98560089D01*
X99761853Y-98490942D01*
X99815988Y-98365508D01*
X99870584Y-98205405D01*
X99919505Y-98032250D01*
X99956618Y-97867658D01*
X99975785Y-97733248D01*
X99970872Y-97650635D01*
X99973649Y-97619273D01*
X100032619Y-97600000D01*
X100091522Y-97622728D01*
X100146446Y-97710212D01*
X100187511Y-97867762D01*
X100216416Y-98100000D01*
X100227428Y-98201012D01*
X100253280Y-98367326D01*
X100282652Y-98500000D01*
X100286940Y-98515406D01*
X100322716Y-98666587D01*
X100348292Y-98810000D01*
X100352496Y-98837249D01*
X100375512Y-98924728D01*
X100401506Y-98960000D01*
X100429754Y-98980979D01*
X100463762Y-99049620D01*
X100479220Y-99130158D01*
X100487515Y-99157759D01*
X100524390Y-99241301D01*
X100576258Y-99345159D01*
X100580743Y-99354139D01*
X100634098Y-99444659D01*
X100651605Y-99464020D01*
X100708924Y-99527407D01*
X100749083Y-99550436D01*
G37*
G36*
X99786667Y-99333333D02*
G01*
X99792925Y-99345364D01*
X99760000Y-99360000D01*
X99738825Y-99357113D01*
X99733334Y-99333333D01*
X99739197Y-99328546D01*
X99786667Y-99333333D01*
G37*
G36*
X99520000Y-100820000D02*
G01*
X99500000Y-100840000D01*
X99480000Y-100820000D01*
X99500000Y-100800000D01*
X99520000Y-100820000D01*
G37*
%TD*%
M02*
