%TF.GenerationSoftware,KiCad,Pcbnew,6.0.11+dfsg-1~bpo11+1*%
%TF.CreationDate,2024-04-13T17:17:30-04:00*%
%TF.ProjectId,Eye Chart,45796520-4368-4617-9274-2e6b69636164,rev?*%
%TF.SameCoordinates,Original*%
%TF.FileFunction,Legend,Top*%
%TF.FilePolarity,Positive*%
%FSLAX46Y46*%
G04 Gerber Fmt 4.6, Leading zero omitted, Abs format (unit mm)*
G04 Created by KiCad (PCBNEW 6.0.11+dfsg-1~bpo11+1) date 2024-04-13 17:17:30*
%MOMM*%
%LPD*%
G01*
G04 APERTURE LIST*
%ADD10C,0.050000*%
%ADD11C,0.100000*%
%ADD12C,0.153000*%
%ADD13C,0.150000*%
%ADD14C,0.075000*%
%ADD15C,0.025000*%
%ADD16C,0.125000*%
G04 APERTURE END LIST*
D10*
X93809523Y-107726190D02*
X94095238Y-107726190D01*
X93952380Y-108226190D02*
X93952380Y-107726190D01*
X94261904Y-108226190D02*
X94261904Y-107726190D01*
X94476190Y-108226190D02*
X94476190Y-107964285D01*
X94452380Y-107916666D01*
X94404761Y-107892857D01*
X94333333Y-107892857D01*
X94285714Y-107916666D01*
X94261904Y-107940476D01*
X94714285Y-108226190D02*
X94714285Y-107892857D01*
X94714285Y-107726190D02*
X94690476Y-107750000D01*
X94714285Y-107773809D01*
X94738095Y-107750000D01*
X94714285Y-107726190D01*
X94714285Y-107773809D01*
X94928571Y-108202380D02*
X94976190Y-108226190D01*
X95071428Y-108226190D01*
X95119047Y-108202380D01*
X95142857Y-108154761D01*
X95142857Y-108130952D01*
X95119047Y-108083333D01*
X95071428Y-108059523D01*
X95000000Y-108059523D01*
X94952380Y-108035714D01*
X94928571Y-107988095D01*
X94928571Y-107964285D01*
X94952380Y-107916666D01*
X95000000Y-107892857D01*
X95071428Y-107892857D01*
X95119047Y-107916666D01*
X95690476Y-107892857D02*
X95785714Y-108226190D01*
X95880952Y-107988095D01*
X95976190Y-108226190D01*
X96071428Y-107892857D01*
X96333333Y-108226190D02*
X96285714Y-108202380D01*
X96261904Y-108178571D01*
X96238095Y-108130952D01*
X96238095Y-107988095D01*
X96261904Y-107940476D01*
X96285714Y-107916666D01*
X96333333Y-107892857D01*
X96404761Y-107892857D01*
X96452380Y-107916666D01*
X96476190Y-107940476D01*
X96500000Y-107988095D01*
X96500000Y-108130952D01*
X96476190Y-108178571D01*
X96452380Y-108202380D01*
X96404761Y-108226190D01*
X96333333Y-108226190D01*
X96928571Y-107892857D02*
X96928571Y-108226190D01*
X96714285Y-107892857D02*
X96714285Y-108154761D01*
X96738095Y-108202380D01*
X96785714Y-108226190D01*
X96857142Y-108226190D01*
X96904761Y-108202380D01*
X96928571Y-108178571D01*
X97238095Y-108226190D02*
X97190476Y-108202380D01*
X97166666Y-108154761D01*
X97166666Y-107726190D01*
X97642857Y-108226190D02*
X97642857Y-107726190D01*
X97642857Y-108202380D02*
X97595238Y-108226190D01*
X97500000Y-108226190D01*
X97452380Y-108202380D01*
X97428571Y-108178571D01*
X97404761Y-108130952D01*
X97404761Y-107988095D01*
X97428571Y-107940476D01*
X97452380Y-107916666D01*
X97500000Y-107892857D01*
X97595238Y-107892857D01*
X97642857Y-107916666D01*
X98261904Y-108226190D02*
X98261904Y-107726190D01*
X98261904Y-107916666D02*
X98309523Y-107892857D01*
X98404761Y-107892857D01*
X98452380Y-107916666D01*
X98476190Y-107940476D01*
X98500000Y-107988095D01*
X98500000Y-108130952D01*
X98476190Y-108178571D01*
X98452380Y-108202380D01*
X98404761Y-108226190D01*
X98309523Y-108226190D01*
X98261904Y-108202380D01*
X98904761Y-108202380D02*
X98857142Y-108226190D01*
X98761904Y-108226190D01*
X98714285Y-108202380D01*
X98690476Y-108154761D01*
X98690476Y-107964285D01*
X98714285Y-107916666D01*
X98761904Y-107892857D01*
X98857142Y-107892857D01*
X98904761Y-107916666D01*
X98928571Y-107964285D01*
X98928571Y-108011904D01*
X98690476Y-108059523D01*
X99738095Y-108226190D02*
X99738095Y-107964285D01*
X99714285Y-107916666D01*
X99666666Y-107892857D01*
X99571428Y-107892857D01*
X99523809Y-107916666D01*
X99738095Y-108202380D02*
X99690476Y-108226190D01*
X99571428Y-108226190D01*
X99523809Y-108202380D01*
X99500000Y-108154761D01*
X99500000Y-108107142D01*
X99523809Y-108059523D01*
X99571428Y-108035714D01*
X99690476Y-108035714D01*
X99738095Y-108011904D01*
X100309523Y-107892857D02*
X100428571Y-108226190D01*
X100547619Y-107892857D01*
X100928571Y-108202380D02*
X100880952Y-108226190D01*
X100785714Y-108226190D01*
X100738095Y-108202380D01*
X100714285Y-108154761D01*
X100714285Y-107964285D01*
X100738095Y-107916666D01*
X100785714Y-107892857D01*
X100880952Y-107892857D01*
X100928571Y-107916666D01*
X100952380Y-107964285D01*
X100952380Y-108011904D01*
X100714285Y-108059523D01*
X101166666Y-108226190D02*
X101166666Y-107892857D01*
X101166666Y-107988095D02*
X101190476Y-107940476D01*
X101214285Y-107916666D01*
X101261904Y-107892857D01*
X101309523Y-107892857D01*
X101428571Y-107892857D02*
X101547619Y-108226190D01*
X101666666Y-107892857D02*
X101547619Y-108226190D01*
X101500000Y-108345238D01*
X101476190Y-108369047D01*
X101428571Y-108392857D01*
X102238095Y-107892857D02*
X102238095Y-108226190D01*
X102238095Y-107940476D02*
X102261904Y-107916666D01*
X102309523Y-107892857D01*
X102380952Y-107892857D01*
X102428571Y-107916666D01*
X102452380Y-107964285D01*
X102452380Y-108226190D01*
X102690476Y-108226190D02*
X102690476Y-107892857D01*
X102690476Y-107726190D02*
X102666666Y-107750000D01*
X102690476Y-107773809D01*
X102714285Y-107750000D01*
X102690476Y-107726190D01*
X102690476Y-107773809D01*
X103142857Y-108202380D02*
X103095238Y-108226190D01*
X103000000Y-108226190D01*
X102952380Y-108202380D01*
X102928571Y-108178571D01*
X102904761Y-108130952D01*
X102904761Y-107988095D01*
X102928571Y-107940476D01*
X102952380Y-107916666D01*
X103000000Y-107892857D01*
X103095238Y-107892857D01*
X103142857Y-107916666D01*
X103547619Y-108202380D02*
X103500000Y-108226190D01*
X103404761Y-108226190D01*
X103357142Y-108202380D01*
X103333333Y-108154761D01*
X103333333Y-107964285D01*
X103357142Y-107916666D01*
X103404761Y-107892857D01*
X103500000Y-107892857D01*
X103547619Y-107916666D01*
X103571428Y-107964285D01*
X103571428Y-108011904D01*
X103333333Y-108059523D01*
X104142857Y-108202380D02*
X104190476Y-108226190D01*
X104285714Y-108226190D01*
X104333333Y-108202380D01*
X104357142Y-108154761D01*
X104357142Y-108130952D01*
X104333333Y-108083333D01*
X104285714Y-108059523D01*
X104214285Y-108059523D01*
X104166666Y-108035714D01*
X104142857Y-107988095D01*
X104142857Y-107964285D01*
X104166666Y-107916666D01*
X104214285Y-107892857D01*
X104285714Y-107892857D01*
X104333333Y-107916666D01*
X104571428Y-108226190D02*
X104571428Y-107892857D01*
X104571428Y-107726190D02*
X104547619Y-107750000D01*
X104571428Y-107773809D01*
X104595238Y-107750000D01*
X104571428Y-107726190D01*
X104571428Y-107773809D01*
X104761904Y-107892857D02*
X105023809Y-107892857D01*
X104761904Y-108226190D01*
X105023809Y-108226190D01*
X105404761Y-108202380D02*
X105357142Y-108226190D01*
X105261904Y-108226190D01*
X105214285Y-108202380D01*
X105190476Y-108154761D01*
X105190476Y-107964285D01*
X105214285Y-107916666D01*
X105261904Y-107892857D01*
X105357142Y-107892857D01*
X105404761Y-107916666D01*
X105428571Y-107964285D01*
X105428571Y-108011904D01*
X105190476Y-108059523D01*
X105642857Y-108178571D02*
X105666666Y-108202380D01*
X105642857Y-108226190D01*
X105619047Y-108202380D01*
X105642857Y-108178571D01*
X105642857Y-108226190D01*
X105880952Y-108178571D02*
X105904761Y-108202380D01*
X105880952Y-108226190D01*
X105857142Y-108202380D01*
X105880952Y-108178571D01*
X105880952Y-108226190D01*
X106119047Y-108178571D02*
X106142857Y-108202380D01*
X106119047Y-108226190D01*
X106095238Y-108202380D01*
X106119047Y-108178571D01*
X106119047Y-108226190D01*
D11*
X92964285Y-106726190D02*
X93250000Y-106726190D01*
X93107142Y-107226190D02*
X93107142Y-106726190D01*
X93416666Y-107226190D02*
X93416666Y-106726190D01*
X93630952Y-107226190D02*
X93630952Y-106964285D01*
X93607142Y-106916666D01*
X93559523Y-106892857D01*
X93488095Y-106892857D01*
X93440476Y-106916666D01*
X93416666Y-106940476D01*
X93869047Y-107226190D02*
X93869047Y-106892857D01*
X93869047Y-106726190D02*
X93845238Y-106750000D01*
X93869047Y-106773809D01*
X93892857Y-106750000D01*
X93869047Y-106726190D01*
X93869047Y-106773809D01*
X94083333Y-107202380D02*
X94130952Y-107226190D01*
X94226190Y-107226190D01*
X94273809Y-107202380D01*
X94297619Y-107154761D01*
X94297619Y-107130952D01*
X94273809Y-107083333D01*
X94226190Y-107059523D01*
X94154761Y-107059523D01*
X94107142Y-107035714D01*
X94083333Y-106988095D01*
X94083333Y-106964285D01*
X94107142Y-106916666D01*
X94154761Y-106892857D01*
X94226190Y-106892857D01*
X94273809Y-106916666D01*
X94869047Y-107202380D02*
X94916666Y-107226190D01*
X95011904Y-107226190D01*
X95059523Y-107202380D01*
X95083333Y-107154761D01*
X95083333Y-107130952D01*
X95059523Y-107083333D01*
X95011904Y-107059523D01*
X94940476Y-107059523D01*
X94892857Y-107035714D01*
X94869047Y-106988095D01*
X94869047Y-106964285D01*
X94892857Y-106916666D01*
X94940476Y-106892857D01*
X95011904Y-106892857D01*
X95059523Y-106916666D01*
X95297619Y-107226190D02*
X95297619Y-106892857D01*
X95297619Y-106726190D02*
X95273809Y-106750000D01*
X95297619Y-106773809D01*
X95321428Y-106750000D01*
X95297619Y-106726190D01*
X95297619Y-106773809D01*
X95488095Y-106892857D02*
X95750000Y-106892857D01*
X95488095Y-107226190D01*
X95750000Y-107226190D01*
X96130952Y-107202380D02*
X96083333Y-107226190D01*
X95988095Y-107226190D01*
X95940476Y-107202380D01*
X95916666Y-107154761D01*
X95916666Y-106964285D01*
X95940476Y-106916666D01*
X95988095Y-106892857D01*
X96083333Y-106892857D01*
X96130952Y-106916666D01*
X96154761Y-106964285D01*
X96154761Y-107011904D01*
X95916666Y-107059523D01*
X96750000Y-107226190D02*
X96750000Y-106726190D01*
X96964285Y-107226190D02*
X96964285Y-106964285D01*
X96940476Y-106916666D01*
X96892857Y-106892857D01*
X96821428Y-106892857D01*
X96773809Y-106916666D01*
X96750000Y-106940476D01*
X97416666Y-107226190D02*
X97416666Y-106964285D01*
X97392857Y-106916666D01*
X97345238Y-106892857D01*
X97250000Y-106892857D01*
X97202380Y-106916666D01*
X97416666Y-107202380D02*
X97369047Y-107226190D01*
X97250000Y-107226190D01*
X97202380Y-107202380D01*
X97178571Y-107154761D01*
X97178571Y-107107142D01*
X97202380Y-107059523D01*
X97250000Y-107035714D01*
X97369047Y-107035714D01*
X97416666Y-107011904D01*
X97630952Y-107202380D02*
X97678571Y-107226190D01*
X97773809Y-107226190D01*
X97821428Y-107202380D01*
X97845238Y-107154761D01*
X97845238Y-107130952D01*
X97821428Y-107083333D01*
X97773809Y-107059523D01*
X97702380Y-107059523D01*
X97654761Y-107035714D01*
X97630952Y-106988095D01*
X97630952Y-106964285D01*
X97654761Y-106916666D01*
X97702380Y-106892857D01*
X97773809Y-106892857D01*
X97821428Y-106916666D01*
X98440476Y-106892857D02*
X98440476Y-107392857D01*
X98440476Y-106916666D02*
X98488095Y-106892857D01*
X98583333Y-106892857D01*
X98630952Y-106916666D01*
X98654761Y-106940476D01*
X98678571Y-106988095D01*
X98678571Y-107130952D01*
X98654761Y-107178571D01*
X98630952Y-107202380D01*
X98583333Y-107226190D01*
X98488095Y-107226190D01*
X98440476Y-107202380D01*
X98892857Y-107226190D02*
X98892857Y-106892857D01*
X98892857Y-106988095D02*
X98916666Y-106940476D01*
X98940476Y-106916666D01*
X98988095Y-106892857D01*
X99035714Y-106892857D01*
X99392857Y-107202380D02*
X99345238Y-107226190D01*
X99250000Y-107226190D01*
X99202380Y-107202380D01*
X99178571Y-107154761D01*
X99178571Y-106964285D01*
X99202380Y-106916666D01*
X99250000Y-106892857D01*
X99345238Y-106892857D01*
X99392857Y-106916666D01*
X99416666Y-106964285D01*
X99416666Y-107011904D01*
X99178571Y-107059523D01*
X99583333Y-106892857D02*
X99702380Y-107226190D01*
X99821428Y-106892857D01*
X100011904Y-107226190D02*
X100011904Y-106892857D01*
X100011904Y-106726190D02*
X99988095Y-106750000D01*
X100011904Y-106773809D01*
X100035714Y-106750000D01*
X100011904Y-106726190D01*
X100011904Y-106773809D01*
X100321428Y-107226190D02*
X100273809Y-107202380D01*
X100250000Y-107178571D01*
X100226190Y-107130952D01*
X100226190Y-106988095D01*
X100250000Y-106940476D01*
X100273809Y-106916666D01*
X100321428Y-106892857D01*
X100392857Y-106892857D01*
X100440476Y-106916666D01*
X100464285Y-106940476D01*
X100488095Y-106988095D01*
X100488095Y-107130952D01*
X100464285Y-107178571D01*
X100440476Y-107202380D01*
X100392857Y-107226190D01*
X100321428Y-107226190D01*
X100916666Y-106892857D02*
X100916666Y-107226190D01*
X100702380Y-106892857D02*
X100702380Y-107154761D01*
X100726190Y-107202380D01*
X100773809Y-107226190D01*
X100845238Y-107226190D01*
X100892857Y-107202380D01*
X100916666Y-107178571D01*
X101130952Y-107202380D02*
X101178571Y-107226190D01*
X101273809Y-107226190D01*
X101321428Y-107202380D01*
X101345238Y-107154761D01*
X101345238Y-107130952D01*
X101321428Y-107083333D01*
X101273809Y-107059523D01*
X101202380Y-107059523D01*
X101154761Y-107035714D01*
X101130952Y-106988095D01*
X101130952Y-106964285D01*
X101154761Y-106916666D01*
X101202380Y-106892857D01*
X101273809Y-106892857D01*
X101321428Y-106916666D01*
X101630952Y-107226190D02*
X101583333Y-107202380D01*
X101559523Y-107154761D01*
X101559523Y-106726190D01*
X101773809Y-106892857D02*
X101892857Y-107226190D01*
X102011904Y-106892857D02*
X101892857Y-107226190D01*
X101845238Y-107345238D01*
X101821428Y-107369047D01*
X101773809Y-107392857D01*
X102583333Y-107226190D02*
X102583333Y-106726190D01*
X102583333Y-106916666D02*
X102630952Y-106892857D01*
X102726190Y-106892857D01*
X102773809Y-106916666D01*
X102797619Y-106940476D01*
X102821428Y-106988095D01*
X102821428Y-107130952D01*
X102797619Y-107178571D01*
X102773809Y-107202380D01*
X102726190Y-107226190D01*
X102630952Y-107226190D01*
X102583333Y-107202380D01*
X103226190Y-107202380D02*
X103178571Y-107226190D01*
X103083333Y-107226190D01*
X103035714Y-107202380D01*
X103011904Y-107154761D01*
X103011904Y-106964285D01*
X103035714Y-106916666D01*
X103083333Y-106892857D01*
X103178571Y-106892857D01*
X103226190Y-106916666D01*
X103250000Y-106964285D01*
X103250000Y-107011904D01*
X103011904Y-107059523D01*
X103654761Y-107202380D02*
X103607142Y-107226190D01*
X103511904Y-107226190D01*
X103464285Y-107202380D01*
X103440476Y-107154761D01*
X103440476Y-106964285D01*
X103464285Y-106916666D01*
X103511904Y-106892857D01*
X103607142Y-106892857D01*
X103654761Y-106916666D01*
X103678571Y-106964285D01*
X103678571Y-107011904D01*
X103440476Y-107059523D01*
X103892857Y-106892857D02*
X103892857Y-107226190D01*
X103892857Y-106940476D02*
X103916666Y-106916666D01*
X103964285Y-106892857D01*
X104035714Y-106892857D01*
X104083333Y-106916666D01*
X104107142Y-106964285D01*
X104107142Y-107226190D01*
X104726190Y-106892857D02*
X104726190Y-107392857D01*
X104726190Y-106916666D02*
X104773809Y-106892857D01*
X104869047Y-106892857D01*
X104916666Y-106916666D01*
X104940476Y-106940476D01*
X104964285Y-106988095D01*
X104964285Y-107130952D01*
X104940476Y-107178571D01*
X104916666Y-107202380D01*
X104869047Y-107226190D01*
X104773809Y-107226190D01*
X104726190Y-107202380D01*
X105178571Y-107226190D02*
X105178571Y-106892857D01*
X105178571Y-106988095D02*
X105202380Y-106940476D01*
X105226190Y-106916666D01*
X105273809Y-106892857D01*
X105321428Y-106892857D01*
X105559523Y-107226190D02*
X105511904Y-107202380D01*
X105488095Y-107178571D01*
X105464285Y-107130952D01*
X105464285Y-106988095D01*
X105488095Y-106940476D01*
X105511904Y-106916666D01*
X105559523Y-106892857D01*
X105630952Y-106892857D01*
X105678571Y-106916666D01*
X105702380Y-106940476D01*
X105726190Y-106988095D01*
X105726190Y-107130952D01*
X105702380Y-107178571D01*
X105678571Y-107202380D01*
X105630952Y-107226190D01*
X105559523Y-107226190D01*
X105892857Y-106892857D02*
X106011904Y-107226190D01*
X106130952Y-106892857D01*
X106511904Y-107202380D02*
X106464285Y-107226190D01*
X106369047Y-107226190D01*
X106321428Y-107202380D01*
X106297619Y-107154761D01*
X106297619Y-106964285D01*
X106321428Y-106916666D01*
X106369047Y-106892857D01*
X106464285Y-106892857D01*
X106511904Y-106916666D01*
X106535714Y-106964285D01*
X106535714Y-107011904D01*
X106297619Y-107059523D01*
X106750000Y-106892857D02*
X106750000Y-107226190D01*
X106750000Y-106940476D02*
X106773809Y-106916666D01*
X106821428Y-106892857D01*
X106892857Y-106892857D01*
X106940476Y-106916666D01*
X106964285Y-106964285D01*
X106964285Y-107226190D01*
D10*
X92764285Y-109121428D02*
X92807142Y-109135714D01*
X92878571Y-109135714D01*
X92907142Y-109121428D01*
X92921428Y-109107142D01*
X92935714Y-109078571D01*
X92935714Y-109050000D01*
X92921428Y-109021428D01*
X92907142Y-109007142D01*
X92878571Y-108992857D01*
X92821428Y-108978571D01*
X92792857Y-108964285D01*
X92778571Y-108950000D01*
X92764285Y-108921428D01*
X92764285Y-108892857D01*
X92778571Y-108864285D01*
X92792857Y-108850000D01*
X92821428Y-108835714D01*
X92892857Y-108835714D01*
X92935714Y-108850000D01*
X93192857Y-108935714D02*
X93192857Y-109135714D01*
X93064285Y-108935714D02*
X93064285Y-109092857D01*
X93078571Y-109121428D01*
X93107142Y-109135714D01*
X93150000Y-109135714D01*
X93178571Y-109121428D01*
X93192857Y-109107142D01*
X93335714Y-109135714D02*
X93335714Y-108835714D01*
X93335714Y-108950000D02*
X93364285Y-108935714D01*
X93421428Y-108935714D01*
X93450000Y-108950000D01*
X93464285Y-108964285D01*
X93478571Y-108992857D01*
X93478571Y-109078571D01*
X93464285Y-109107142D01*
X93450000Y-109121428D01*
X93421428Y-109135714D01*
X93364285Y-109135714D01*
X93335714Y-109121428D01*
X93592857Y-109121428D02*
X93621428Y-109135714D01*
X93678571Y-109135714D01*
X93707142Y-109121428D01*
X93721428Y-109092857D01*
X93721428Y-109078571D01*
X93707142Y-109050000D01*
X93678571Y-109035714D01*
X93635714Y-109035714D01*
X93607142Y-109021428D01*
X93592857Y-108992857D01*
X93592857Y-108978571D01*
X93607142Y-108950000D01*
X93635714Y-108935714D01*
X93678571Y-108935714D01*
X93707142Y-108950000D01*
X93807142Y-108935714D02*
X93921428Y-108935714D01*
X93850000Y-108835714D02*
X93850000Y-109092857D01*
X93864285Y-109121428D01*
X93892857Y-109135714D01*
X93921428Y-109135714D01*
X94150000Y-109135714D02*
X94150000Y-108978571D01*
X94135714Y-108950000D01*
X94107142Y-108935714D01*
X94050000Y-108935714D01*
X94021428Y-108950000D01*
X94150000Y-109121428D02*
X94121428Y-109135714D01*
X94050000Y-109135714D01*
X94021428Y-109121428D01*
X94007142Y-109092857D01*
X94007142Y-109064285D01*
X94021428Y-109035714D01*
X94050000Y-109021428D01*
X94121428Y-109021428D01*
X94150000Y-109007142D01*
X94292857Y-108935714D02*
X94292857Y-109135714D01*
X94292857Y-108964285D02*
X94307142Y-108950000D01*
X94335714Y-108935714D01*
X94378571Y-108935714D01*
X94407142Y-108950000D01*
X94421428Y-108978571D01*
X94421428Y-109135714D01*
X94521428Y-108935714D02*
X94635714Y-108935714D01*
X94564285Y-108835714D02*
X94564285Y-109092857D01*
X94578571Y-109121428D01*
X94607142Y-109135714D01*
X94635714Y-109135714D01*
X94735714Y-109135714D02*
X94735714Y-108935714D01*
X94735714Y-108835714D02*
X94721428Y-108850000D01*
X94735714Y-108864285D01*
X94750000Y-108850000D01*
X94735714Y-108835714D01*
X94735714Y-108864285D01*
X95007142Y-109135714D02*
X95007142Y-108978571D01*
X94992857Y-108950000D01*
X94964285Y-108935714D01*
X94907142Y-108935714D01*
X94878571Y-108950000D01*
X95007142Y-109121428D02*
X94978571Y-109135714D01*
X94907142Y-109135714D01*
X94878571Y-109121428D01*
X94864285Y-109092857D01*
X94864285Y-109064285D01*
X94878571Y-109035714D01*
X94907142Y-109021428D01*
X94978571Y-109021428D01*
X95007142Y-109007142D01*
X95192857Y-109135714D02*
X95164285Y-109121428D01*
X95150000Y-109092857D01*
X95150000Y-108835714D01*
X95350000Y-109135714D02*
X95321428Y-109121428D01*
X95307142Y-109092857D01*
X95307142Y-108835714D01*
X95435714Y-108935714D02*
X95507142Y-109135714D01*
X95578571Y-108935714D02*
X95507142Y-109135714D01*
X95478571Y-109207142D01*
X95464285Y-109221428D01*
X95435714Y-109235714D01*
X95907142Y-109121428D02*
X95935714Y-109135714D01*
X95992857Y-109135714D01*
X96021428Y-109121428D01*
X96035714Y-109092857D01*
X96035714Y-109078571D01*
X96021428Y-109050000D01*
X95992857Y-109035714D01*
X95950000Y-109035714D01*
X95921428Y-109021428D01*
X95907142Y-108992857D01*
X95907142Y-108978571D01*
X95921428Y-108950000D01*
X95950000Y-108935714D01*
X95992857Y-108935714D01*
X96021428Y-108950000D01*
X96164285Y-109135714D02*
X96164285Y-108935714D01*
X96164285Y-108964285D02*
X96178571Y-108950000D01*
X96207142Y-108935714D01*
X96250000Y-108935714D01*
X96278571Y-108950000D01*
X96292857Y-108978571D01*
X96292857Y-109135714D01*
X96292857Y-108978571D02*
X96307142Y-108950000D01*
X96335714Y-108935714D01*
X96378571Y-108935714D01*
X96407142Y-108950000D01*
X96421428Y-108978571D01*
X96421428Y-109135714D01*
X96692857Y-109135714D02*
X96692857Y-108978571D01*
X96678571Y-108950000D01*
X96650000Y-108935714D01*
X96592857Y-108935714D01*
X96564285Y-108950000D01*
X96692857Y-109121428D02*
X96664285Y-109135714D01*
X96592857Y-109135714D01*
X96564285Y-109121428D01*
X96550000Y-109092857D01*
X96550000Y-109064285D01*
X96564285Y-109035714D01*
X96592857Y-109021428D01*
X96664285Y-109021428D01*
X96692857Y-109007142D01*
X96878571Y-109135714D02*
X96850000Y-109121428D01*
X96835714Y-109092857D01*
X96835714Y-108835714D01*
X97035714Y-109135714D02*
X97007142Y-109121428D01*
X96992857Y-109092857D01*
X96992857Y-108835714D01*
X97264285Y-109121428D02*
X97235714Y-109135714D01*
X97178571Y-109135714D01*
X97150000Y-109121428D01*
X97135714Y-109092857D01*
X97135714Y-108978571D01*
X97150000Y-108950000D01*
X97178571Y-108935714D01*
X97235714Y-108935714D01*
X97264285Y-108950000D01*
X97278571Y-108978571D01*
X97278571Y-109007142D01*
X97135714Y-109035714D01*
X97407142Y-109135714D02*
X97407142Y-108935714D01*
X97407142Y-108992857D02*
X97421428Y-108964285D01*
X97435714Y-108950000D01*
X97464285Y-108935714D01*
X97492857Y-108935714D01*
X97778571Y-108935714D02*
X97892857Y-108935714D01*
X97821428Y-108835714D02*
X97821428Y-109092857D01*
X97835714Y-109121428D01*
X97864285Y-109135714D01*
X97892857Y-109135714D01*
X97992857Y-109135714D02*
X97992857Y-108835714D01*
X98121428Y-109135714D02*
X98121428Y-108978571D01*
X98107142Y-108950000D01*
X98078571Y-108935714D01*
X98035714Y-108935714D01*
X98007142Y-108950000D01*
X97992857Y-108964285D01*
X98392857Y-109135714D02*
X98392857Y-108978571D01*
X98378571Y-108950000D01*
X98350000Y-108935714D01*
X98292857Y-108935714D01*
X98264285Y-108950000D01*
X98392857Y-109121428D02*
X98364285Y-109135714D01*
X98292857Y-109135714D01*
X98264285Y-109121428D01*
X98250000Y-109092857D01*
X98250000Y-109064285D01*
X98264285Y-109035714D01*
X98292857Y-109021428D01*
X98364285Y-109021428D01*
X98392857Y-109007142D01*
X98535714Y-108935714D02*
X98535714Y-109135714D01*
X98535714Y-108964285D02*
X98550000Y-108950000D01*
X98578571Y-108935714D01*
X98621428Y-108935714D01*
X98650000Y-108950000D01*
X98664285Y-108978571D01*
X98664285Y-109135714D01*
X99035714Y-109135714D02*
X99035714Y-108935714D01*
X99035714Y-108992857D02*
X99050000Y-108964285D01*
X99064285Y-108950000D01*
X99092857Y-108935714D01*
X99121428Y-108935714D01*
X99335714Y-109121428D02*
X99307142Y-109135714D01*
X99250000Y-109135714D01*
X99221428Y-109121428D01*
X99207142Y-109092857D01*
X99207142Y-108978571D01*
X99221428Y-108950000D01*
X99250000Y-108935714D01*
X99307142Y-108935714D01*
X99335714Y-108950000D01*
X99350000Y-108978571D01*
X99350000Y-109007142D01*
X99207142Y-109035714D01*
X99607142Y-109121428D02*
X99578571Y-109135714D01*
X99521428Y-109135714D01*
X99492857Y-109121428D01*
X99478571Y-109107142D01*
X99464285Y-109078571D01*
X99464285Y-108992857D01*
X99478571Y-108964285D01*
X99492857Y-108950000D01*
X99521428Y-108935714D01*
X99578571Y-108935714D01*
X99607142Y-108950000D01*
X99778571Y-109135714D02*
X99750000Y-109121428D01*
X99735714Y-109107142D01*
X99721428Y-109078571D01*
X99721428Y-108992857D01*
X99735714Y-108964285D01*
X99750000Y-108950000D01*
X99778571Y-108935714D01*
X99821428Y-108935714D01*
X99850000Y-108950000D01*
X99864285Y-108964285D01*
X99878571Y-108992857D01*
X99878571Y-109078571D01*
X99864285Y-109107142D01*
X99850000Y-109121428D01*
X99821428Y-109135714D01*
X99778571Y-109135714D01*
X100007142Y-109135714D02*
X100007142Y-108935714D01*
X100007142Y-108964285D02*
X100021428Y-108950000D01*
X100050000Y-108935714D01*
X100092857Y-108935714D01*
X100121428Y-108950000D01*
X100135714Y-108978571D01*
X100135714Y-109135714D01*
X100135714Y-108978571D02*
X100150000Y-108950000D01*
X100178571Y-108935714D01*
X100221428Y-108935714D01*
X100250000Y-108950000D01*
X100264285Y-108978571D01*
X100264285Y-109135714D01*
X100407142Y-109135714D02*
X100407142Y-108935714D01*
X100407142Y-108964285D02*
X100421428Y-108950000D01*
X100450000Y-108935714D01*
X100492857Y-108935714D01*
X100521428Y-108950000D01*
X100535714Y-108978571D01*
X100535714Y-109135714D01*
X100535714Y-108978571D02*
X100550000Y-108950000D01*
X100578571Y-108935714D01*
X100621428Y-108935714D01*
X100650000Y-108950000D01*
X100664285Y-108978571D01*
X100664285Y-109135714D01*
X100921428Y-109121428D02*
X100892857Y-109135714D01*
X100835714Y-109135714D01*
X100807142Y-109121428D01*
X100792857Y-109092857D01*
X100792857Y-108978571D01*
X100807142Y-108950000D01*
X100835714Y-108935714D01*
X100892857Y-108935714D01*
X100921428Y-108950000D01*
X100935714Y-108978571D01*
X100935714Y-109007142D01*
X100792857Y-109035714D01*
X101064285Y-108935714D02*
X101064285Y-109135714D01*
X101064285Y-108964285D02*
X101078571Y-108950000D01*
X101107142Y-108935714D01*
X101150000Y-108935714D01*
X101178571Y-108950000D01*
X101192857Y-108978571D01*
X101192857Y-109135714D01*
X101464285Y-109135714D02*
X101464285Y-108835714D01*
X101464285Y-109121428D02*
X101435714Y-109135714D01*
X101378571Y-109135714D01*
X101350000Y-109121428D01*
X101335714Y-109107142D01*
X101321428Y-109078571D01*
X101321428Y-108992857D01*
X101335714Y-108964285D01*
X101350000Y-108950000D01*
X101378571Y-108935714D01*
X101435714Y-108935714D01*
X101464285Y-108950000D01*
X101721428Y-109121428D02*
X101692857Y-109135714D01*
X101635714Y-109135714D01*
X101607142Y-109121428D01*
X101592857Y-109092857D01*
X101592857Y-108978571D01*
X101607142Y-108950000D01*
X101635714Y-108935714D01*
X101692857Y-108935714D01*
X101721428Y-108950000D01*
X101735714Y-108978571D01*
X101735714Y-109007142D01*
X101592857Y-109035714D01*
X101992857Y-109135714D02*
X101992857Y-108835714D01*
X101992857Y-109121428D02*
X101964285Y-109135714D01*
X101907142Y-109135714D01*
X101878571Y-109121428D01*
X101864285Y-109107142D01*
X101850000Y-109078571D01*
X101850000Y-108992857D01*
X101864285Y-108964285D01*
X101878571Y-108950000D01*
X101907142Y-108935714D01*
X101964285Y-108935714D01*
X101992857Y-108950000D01*
X102450000Y-109250000D02*
X102435714Y-109235714D01*
X102407142Y-109192857D01*
X102392857Y-109164285D01*
X102378571Y-109121428D01*
X102364285Y-109050000D01*
X102364285Y-108992857D01*
X102378571Y-108921428D01*
X102392857Y-108878571D01*
X102407142Y-108850000D01*
X102435714Y-108807142D01*
X102450000Y-108792857D01*
X102564285Y-109135714D02*
X102564285Y-108835714D01*
X102564285Y-108950000D02*
X102592857Y-108935714D01*
X102650000Y-108935714D01*
X102678571Y-108950000D01*
X102692857Y-108964285D01*
X102707142Y-108992857D01*
X102707142Y-109078571D01*
X102692857Y-109107142D01*
X102678571Y-109121428D01*
X102650000Y-109135714D01*
X102592857Y-109135714D01*
X102564285Y-109121428D01*
X102964285Y-108935714D02*
X102964285Y-109135714D01*
X102835714Y-108935714D02*
X102835714Y-109092857D01*
X102850000Y-109121428D01*
X102878571Y-109135714D01*
X102921428Y-109135714D01*
X102950000Y-109121428D01*
X102964285Y-109107142D01*
X103064285Y-108935714D02*
X103178571Y-108935714D01*
X103107142Y-108835714D02*
X103107142Y-109092857D01*
X103121428Y-109121428D01*
X103150000Y-109135714D01*
X103178571Y-109135714D01*
X103478571Y-108935714D02*
X103535714Y-109135714D01*
X103592857Y-108992857D01*
X103650000Y-109135714D01*
X103707142Y-108935714D01*
X103864285Y-109135714D02*
X103835714Y-109121428D01*
X103821428Y-109107142D01*
X103807142Y-109078571D01*
X103807142Y-108992857D01*
X103821428Y-108964285D01*
X103835714Y-108950000D01*
X103864285Y-108935714D01*
X103907142Y-108935714D01*
X103935714Y-108950000D01*
X103950000Y-108964285D01*
X103964285Y-108992857D01*
X103964285Y-109078571D01*
X103950000Y-109107142D01*
X103935714Y-109121428D01*
X103907142Y-109135714D01*
X103864285Y-109135714D01*
X104221428Y-108935714D02*
X104221428Y-109135714D01*
X104092857Y-108935714D02*
X104092857Y-109092857D01*
X104107142Y-109121428D01*
X104135714Y-109135714D01*
X104178571Y-109135714D01*
X104207142Y-109121428D01*
X104221428Y-109107142D01*
X104407142Y-109135714D02*
X104378571Y-109121428D01*
X104364285Y-109092857D01*
X104364285Y-108835714D01*
X104650000Y-109135714D02*
X104650000Y-108835714D01*
X104650000Y-109121428D02*
X104621428Y-109135714D01*
X104564285Y-109135714D01*
X104535714Y-109121428D01*
X104521428Y-109107142D01*
X104507142Y-109078571D01*
X104507142Y-108992857D01*
X104521428Y-108964285D01*
X104535714Y-108950000D01*
X104564285Y-108935714D01*
X104621428Y-108935714D01*
X104650000Y-108950000D01*
X105021428Y-109135714D02*
X105021428Y-108835714D01*
X105021428Y-108950000D02*
X105050000Y-108935714D01*
X105107142Y-108935714D01*
X105135714Y-108950000D01*
X105150000Y-108964285D01*
X105164285Y-108992857D01*
X105164285Y-109078571D01*
X105150000Y-109107142D01*
X105135714Y-109121428D01*
X105107142Y-109135714D01*
X105050000Y-109135714D01*
X105021428Y-109121428D01*
X105407142Y-109121428D02*
X105378571Y-109135714D01*
X105321428Y-109135714D01*
X105292857Y-109121428D01*
X105278571Y-109092857D01*
X105278571Y-108978571D01*
X105292857Y-108950000D01*
X105321428Y-108935714D01*
X105378571Y-108935714D01*
X105407142Y-108950000D01*
X105421428Y-108978571D01*
X105421428Y-109007142D01*
X105278571Y-109035714D01*
X105907142Y-109121428D02*
X105878571Y-109135714D01*
X105821428Y-109135714D01*
X105792857Y-109121428D01*
X105778571Y-109107142D01*
X105764285Y-109078571D01*
X105764285Y-108992857D01*
X105778571Y-108964285D01*
X105792857Y-108950000D01*
X105821428Y-108935714D01*
X105878571Y-108935714D01*
X105907142Y-108950000D01*
X106078571Y-109135714D02*
X106050000Y-109121428D01*
X106035714Y-109107142D01*
X106021428Y-109078571D01*
X106021428Y-108992857D01*
X106035714Y-108964285D01*
X106050000Y-108950000D01*
X106078571Y-108935714D01*
X106121428Y-108935714D01*
X106150000Y-108950000D01*
X106164285Y-108964285D01*
X106178571Y-108992857D01*
X106178571Y-109078571D01*
X106164285Y-109107142D01*
X106150000Y-109121428D01*
X106121428Y-109135714D01*
X106078571Y-109135714D01*
X106350000Y-109135714D02*
X106321428Y-109121428D01*
X106307142Y-109107142D01*
X106292857Y-109078571D01*
X106292857Y-108992857D01*
X106307142Y-108964285D01*
X106321428Y-108950000D01*
X106350000Y-108935714D01*
X106392857Y-108935714D01*
X106421428Y-108950000D01*
X106435714Y-108964285D01*
X106450000Y-108992857D01*
X106450000Y-109078571D01*
X106435714Y-109107142D01*
X106421428Y-109121428D01*
X106392857Y-109135714D01*
X106350000Y-109135714D01*
X106621428Y-109135714D02*
X106592857Y-109121428D01*
X106578571Y-109092857D01*
X106578571Y-108835714D01*
X106735714Y-109107142D02*
X106750000Y-109121428D01*
X106735714Y-109135714D01*
X106721428Y-109121428D01*
X106735714Y-109107142D01*
X106735714Y-109135714D01*
X106878571Y-109107142D02*
X106892857Y-109121428D01*
X106878571Y-109135714D01*
X106864285Y-109121428D01*
X106878571Y-109107142D01*
X106878571Y-109135714D01*
X107021428Y-109107142D02*
X107035714Y-109121428D01*
X107021428Y-109135714D01*
X107007142Y-109121428D01*
X107021428Y-109107142D01*
X107021428Y-109135714D01*
X107135714Y-109250000D02*
X107150000Y-109235714D01*
X107178571Y-109192857D01*
X107192857Y-109164285D01*
X107207142Y-109121428D01*
X107221428Y-109050000D01*
X107221428Y-108992857D01*
X107207142Y-108921428D01*
X107192857Y-108878571D01*
X107178571Y-108850000D01*
X107150000Y-108807142D01*
X107135714Y-108792857D01*
D12*
X88166666Y-90452380D02*
X88738095Y-90452380D01*
X88452380Y-91452380D02*
X88452380Y-90452380D01*
X89071428Y-91452380D02*
X89071428Y-90452380D01*
X89500000Y-91452380D02*
X89500000Y-90928571D01*
X89452380Y-90833333D01*
X89357142Y-90785714D01*
X89214285Y-90785714D01*
X89119047Y-90833333D01*
X89071428Y-90880952D01*
X90357142Y-91404761D02*
X90261904Y-91452380D01*
X90071428Y-91452380D01*
X89976190Y-91404761D01*
X89928571Y-91309523D01*
X89928571Y-90928571D01*
X89976190Y-90833333D01*
X90071428Y-90785714D01*
X90261904Y-90785714D01*
X90357142Y-90833333D01*
X90404761Y-90928571D01*
X90404761Y-91023809D01*
X89928571Y-91119047D01*
X91880952Y-90452380D02*
X91880952Y-91166666D01*
X91833333Y-91309523D01*
X91738095Y-91404761D01*
X91595238Y-91452380D01*
X91500000Y-91452380D01*
X92833333Y-91452380D02*
X92357142Y-91452380D01*
X92357142Y-90452380D01*
X93738095Y-91357142D02*
X93690476Y-91404761D01*
X93547619Y-91452380D01*
X93452380Y-91452380D01*
X93309523Y-91404761D01*
X93214285Y-91309523D01*
X93166666Y-91214285D01*
X93119047Y-91023809D01*
X93119047Y-90880952D01*
X93166666Y-90690476D01*
X93214285Y-90595238D01*
X93309523Y-90500000D01*
X93452380Y-90452380D01*
X93547619Y-90452380D01*
X93690476Y-90500000D01*
X93738095Y-90547619D01*
X94166666Y-91452380D02*
X94166666Y-90452380D01*
X94547619Y-90452380D01*
X94642857Y-90500000D01*
X94690476Y-90547619D01*
X94738095Y-90642857D01*
X94738095Y-90785714D01*
X94690476Y-90880952D01*
X94642857Y-90928571D01*
X94547619Y-90976190D01*
X94166666Y-90976190D01*
X95738095Y-91357142D02*
X95690476Y-91404761D01*
X95547619Y-91452380D01*
X95452380Y-91452380D01*
X95309523Y-91404761D01*
X95214285Y-91309523D01*
X95166666Y-91214285D01*
X95119047Y-91023809D01*
X95119047Y-90880952D01*
X95166666Y-90690476D01*
X95214285Y-90595238D01*
X95309523Y-90500000D01*
X95452380Y-90452380D01*
X95547619Y-90452380D01*
X95690476Y-90500000D01*
X95738095Y-90547619D01*
X96500000Y-90928571D02*
X96642857Y-90976190D01*
X96690476Y-91023809D01*
X96738095Y-91119047D01*
X96738095Y-91261904D01*
X96690476Y-91357142D01*
X96642857Y-91404761D01*
X96547619Y-91452380D01*
X96166666Y-91452380D01*
X96166666Y-90452380D01*
X96500000Y-90452380D01*
X96595238Y-90500000D01*
X96642857Y-90547619D01*
X96690476Y-90642857D01*
X96690476Y-90738095D01*
X96642857Y-90833333D01*
X96595238Y-90880952D01*
X96500000Y-90928571D01*
X96166666Y-90928571D01*
X97880952Y-91404761D02*
X97976190Y-91452380D01*
X98166666Y-91452380D01*
X98261904Y-91404761D01*
X98309523Y-91309523D01*
X98309523Y-91261904D01*
X98261904Y-91166666D01*
X98166666Y-91119047D01*
X98023809Y-91119047D01*
X97928571Y-91071428D01*
X97880952Y-90976190D01*
X97880952Y-90928571D01*
X97928571Y-90833333D01*
X98023809Y-90785714D01*
X98166666Y-90785714D01*
X98261904Y-90833333D01*
X98738095Y-90785714D02*
X98738095Y-91785714D01*
X98738095Y-90833333D02*
X98833333Y-90785714D01*
X99023809Y-90785714D01*
X99119047Y-90833333D01*
X99166666Y-90880952D01*
X99214285Y-90976190D01*
X99214285Y-91261904D01*
X99166666Y-91357142D01*
X99119047Y-91404761D01*
X99023809Y-91452380D01*
X98833333Y-91452380D01*
X98738095Y-91404761D01*
X100023809Y-91404761D02*
X99928571Y-91452380D01*
X99738095Y-91452380D01*
X99642857Y-91404761D01*
X99595238Y-91309523D01*
X99595238Y-90928571D01*
X99642857Y-90833333D01*
X99738095Y-90785714D01*
X99928571Y-90785714D01*
X100023809Y-90833333D01*
X100071428Y-90928571D01*
X100071428Y-91023809D01*
X99595238Y-91119047D01*
X100928571Y-91404761D02*
X100833333Y-91452380D01*
X100642857Y-91452380D01*
X100547619Y-91404761D01*
X100500000Y-91357142D01*
X100452380Y-91261904D01*
X100452380Y-90976190D01*
X100500000Y-90880952D01*
X100547619Y-90833333D01*
X100642857Y-90785714D01*
X100833333Y-90785714D01*
X100928571Y-90833333D01*
X101357142Y-91452380D02*
X101357142Y-90785714D01*
X101357142Y-90452380D02*
X101309523Y-90500000D01*
X101357142Y-90547619D01*
X101404761Y-90500000D01*
X101357142Y-90452380D01*
X101357142Y-90547619D01*
X101690476Y-90785714D02*
X102071428Y-90785714D01*
X101833333Y-91452380D02*
X101833333Y-90595238D01*
X101880952Y-90500000D01*
X101976190Y-90452380D01*
X102071428Y-90452380D01*
X102404761Y-91452380D02*
X102404761Y-90785714D01*
X102404761Y-90452380D02*
X102357142Y-90500000D01*
X102404761Y-90547619D01*
X102452380Y-90500000D01*
X102404761Y-90452380D01*
X102404761Y-90547619D01*
X103261904Y-91404761D02*
X103166666Y-91452380D01*
X102976190Y-91452380D01*
X102880952Y-91404761D01*
X102833333Y-91309523D01*
X102833333Y-90928571D01*
X102880952Y-90833333D01*
X102976190Y-90785714D01*
X103166666Y-90785714D01*
X103261904Y-90833333D01*
X103309523Y-90928571D01*
X103309523Y-91023809D01*
X102833333Y-91119047D01*
X104166666Y-91452380D02*
X104166666Y-90452380D01*
X104166666Y-91404761D02*
X104071428Y-91452380D01*
X103880952Y-91452380D01*
X103785714Y-91404761D01*
X103738095Y-91357142D01*
X103690476Y-91261904D01*
X103690476Y-90976190D01*
X103738095Y-90880952D01*
X103785714Y-90833333D01*
X103880952Y-90785714D01*
X104071428Y-90785714D01*
X104166666Y-90833333D01*
X105404761Y-91452380D02*
X105404761Y-90785714D01*
X105404761Y-90880952D02*
X105452380Y-90833333D01*
X105547619Y-90785714D01*
X105690476Y-90785714D01*
X105785714Y-90833333D01*
X105833333Y-90928571D01*
X105833333Y-91452380D01*
X105833333Y-90928571D02*
X105880952Y-90833333D01*
X105976190Y-90785714D01*
X106119047Y-90785714D01*
X106214285Y-90833333D01*
X106261904Y-90928571D01*
X106261904Y-91452380D01*
X106738095Y-91452380D02*
X106738095Y-90785714D01*
X106738095Y-90452380D02*
X106690476Y-90500000D01*
X106738095Y-90547619D01*
X106785714Y-90500000D01*
X106738095Y-90452380D01*
X106738095Y-90547619D01*
X107214285Y-90785714D02*
X107214285Y-91452380D01*
X107214285Y-90880952D02*
X107261904Y-90833333D01*
X107357142Y-90785714D01*
X107499999Y-90785714D01*
X107595238Y-90833333D01*
X107642857Y-90928571D01*
X107642857Y-91452380D01*
X108119047Y-91452380D02*
X108119047Y-90785714D01*
X108119047Y-90452380D02*
X108071428Y-90500000D01*
X108119047Y-90547619D01*
X108166666Y-90500000D01*
X108119047Y-90452380D01*
X108119047Y-90547619D01*
X108595238Y-91452380D02*
X108595238Y-90785714D01*
X108595238Y-90880952D02*
X108642857Y-90833333D01*
X108738095Y-90785714D01*
X108880952Y-90785714D01*
X108976190Y-90833333D01*
X109023809Y-90928571D01*
X109023809Y-91452380D01*
X109023809Y-90928571D02*
X109071428Y-90833333D01*
X109166666Y-90785714D01*
X109309523Y-90785714D01*
X109404761Y-90833333D01*
X109452380Y-90928571D01*
X109452380Y-91452380D01*
X110357142Y-90785714D02*
X110357142Y-91452380D01*
X109928571Y-90785714D02*
X109928571Y-91309523D01*
X109976190Y-91404761D01*
X110071428Y-91452380D01*
X110214285Y-91452380D01*
X110309523Y-91404761D01*
X110357142Y-91357142D01*
X110833333Y-91452380D02*
X110833333Y-90785714D01*
X110833333Y-90880952D02*
X110880952Y-90833333D01*
X110976190Y-90785714D01*
X111119047Y-90785714D01*
X111214285Y-90833333D01*
X111261904Y-90928571D01*
X111261904Y-91452380D01*
X111261904Y-90928571D02*
X111309523Y-90833333D01*
X111404761Y-90785714D01*
X111547619Y-90785714D01*
X111642857Y-90833333D01*
X111690476Y-90928571D01*
X111690476Y-91452380D01*
D10*
X108914285Y-102943028D02*
X108780952Y-102943028D01*
X108780952Y-103152552D02*
X108780952Y-102752552D01*
X108971428Y-102752552D01*
X109123809Y-102943028D02*
X109257142Y-102943028D01*
X109314285Y-103152552D02*
X109123809Y-103152552D01*
X109123809Y-102752552D01*
X109314285Y-102752552D01*
X109676190Y-103152552D02*
X109485714Y-103152552D01*
X109485714Y-102752552D01*
X109885714Y-102752552D02*
X109961904Y-102752552D01*
X110000000Y-102771600D01*
X110038095Y-102809695D01*
X110057142Y-102885885D01*
X110057142Y-103019219D01*
X110038095Y-103095409D01*
X110000000Y-103133504D01*
X109961904Y-103152552D01*
X109885714Y-103152552D01*
X109847619Y-103133504D01*
X109809523Y-103095409D01*
X109790476Y-103019219D01*
X109790476Y-102885885D01*
X109809523Y-102809695D01*
X109847619Y-102771600D01*
X109885714Y-102752552D01*
X110228571Y-103152552D02*
X110228571Y-102752552D01*
X110380952Y-102752552D01*
X110419047Y-102771600D01*
X110438095Y-102790647D01*
X110457142Y-102828742D01*
X110457142Y-102885885D01*
X110438095Y-102923980D01*
X110419047Y-102943028D01*
X110380952Y-102962076D01*
X110228571Y-102962076D01*
X110590476Y-102752552D02*
X110857142Y-102752552D01*
X110590476Y-103152552D01*
X110857142Y-103152552D01*
X111009523Y-103152552D02*
X111009523Y-102752552D01*
X111104761Y-102752552D01*
X111161904Y-102771600D01*
X111200000Y-102809695D01*
X111219047Y-102847790D01*
X111238095Y-102923980D01*
X111238095Y-102981123D01*
X111219047Y-103057314D01*
X111200000Y-103095409D01*
X111161904Y-103133504D01*
X111104761Y-103152552D01*
X111009523Y-103152552D01*
D11*
X108690476Y-101361085D02*
X108857142Y-101361085D01*
X108928571Y-101622990D02*
X108690476Y-101622990D01*
X108690476Y-101122990D01*
X108928571Y-101122990D01*
X109142857Y-101622990D02*
X109142857Y-101122990D01*
X109261904Y-101122990D01*
X109333333Y-101146800D01*
X109380952Y-101194419D01*
X109404761Y-101242038D01*
X109428571Y-101337276D01*
X109428571Y-101408704D01*
X109404761Y-101503942D01*
X109380952Y-101551561D01*
X109333333Y-101599180D01*
X109261904Y-101622990D01*
X109142857Y-101622990D01*
X109809523Y-101361085D02*
X109642857Y-101361085D01*
X109642857Y-101622990D02*
X109642857Y-101122990D01*
X109880952Y-101122990D01*
X110357142Y-101575371D02*
X110333333Y-101599180D01*
X110261904Y-101622990D01*
X110214285Y-101622990D01*
X110142857Y-101599180D01*
X110095238Y-101551561D01*
X110071428Y-101503942D01*
X110047619Y-101408704D01*
X110047619Y-101337276D01*
X110071428Y-101242038D01*
X110095238Y-101194419D01*
X110142857Y-101146800D01*
X110214285Y-101122990D01*
X110261904Y-101122990D01*
X110333333Y-101146800D01*
X110357142Y-101170609D01*
X110523809Y-101122990D02*
X110857142Y-101122990D01*
X110523809Y-101622990D01*
X110857142Y-101622990D01*
X111047619Y-101622990D02*
X111047619Y-101122990D01*
X111238095Y-101122990D01*
X111285714Y-101146800D01*
X111309523Y-101170609D01*
X111333333Y-101218228D01*
X111333333Y-101289657D01*
X111309523Y-101337276D01*
X111285714Y-101361085D01*
X111238095Y-101384895D01*
X111047619Y-101384895D01*
D13*
X88971428Y-96335904D02*
X89428571Y-96335904D01*
X89200000Y-97135904D02*
X89200000Y-96335904D01*
X89847619Y-96335904D02*
X90000000Y-96335904D01*
X90076190Y-96374000D01*
X90152380Y-96450190D01*
X90190476Y-96602571D01*
X90190476Y-96869238D01*
X90152380Y-97021619D01*
X90076190Y-97097809D01*
X90000000Y-97135904D01*
X89847619Y-97135904D01*
X89771428Y-97097809D01*
X89695238Y-97021619D01*
X89657142Y-96869238D01*
X89657142Y-96602571D01*
X89695238Y-96450190D01*
X89771428Y-96374000D01*
X89847619Y-96335904D01*
X90457142Y-96335904D02*
X90990476Y-96335904D01*
X90457142Y-97135904D01*
X90990476Y-97135904D01*
D11*
X109200000Y-98513066D02*
X108866666Y-98513066D01*
X108866666Y-97813066D01*
X109433333Y-98513066D02*
X109433333Y-97813066D01*
X109700000Y-97813066D01*
X109766666Y-97846400D01*
X109800000Y-97879733D01*
X109833333Y-97946400D01*
X109833333Y-98046400D01*
X109800000Y-98113066D01*
X109766666Y-98146400D01*
X109700000Y-98179733D01*
X109433333Y-98179733D01*
X110133333Y-98146400D02*
X110366666Y-98146400D01*
X110466666Y-98513066D02*
X110133333Y-98513066D01*
X110133333Y-97813066D01*
X110466666Y-97813066D01*
X110766666Y-98513066D02*
X110766666Y-97813066D01*
X110933333Y-97813066D01*
X111033333Y-97846400D01*
X111100000Y-97913066D01*
X111133333Y-97979733D01*
X111166666Y-98113066D01*
X111166666Y-98213066D01*
X111133333Y-98346400D01*
X111100000Y-98413066D01*
X111033333Y-98479733D01*
X110933333Y-98513066D01*
X110766666Y-98513066D01*
X108971428Y-96335904D02*
X109428571Y-96335904D01*
X109200000Y-97135904D02*
X109200000Y-96335904D01*
X109847619Y-96335904D02*
X110000000Y-96335904D01*
X110076190Y-96374000D01*
X110152380Y-96450190D01*
X110190476Y-96602571D01*
X110190476Y-96869238D01*
X110152380Y-97021619D01*
X110076190Y-97097809D01*
X110000000Y-97135904D01*
X109847619Y-97135904D01*
X109771428Y-97097809D01*
X109695238Y-97021619D01*
X109657142Y-96869238D01*
X109657142Y-96602571D01*
X109695238Y-96450190D01*
X109771428Y-96374000D01*
X109847619Y-96335904D01*
X110457142Y-96335904D02*
X110990476Y-96335904D01*
X110457142Y-97135904D01*
X110990476Y-97135904D01*
X109761904Y-93892666D02*
X110238095Y-93892666D01*
X109666666Y-94178380D02*
X110000000Y-93178380D01*
X110333333Y-94178380D01*
D14*
X88950000Y-104732914D02*
X88950000Y-104432914D01*
X89021428Y-104432914D01*
X89064285Y-104447200D01*
X89092857Y-104475771D01*
X89107142Y-104504342D01*
X89121428Y-104561485D01*
X89121428Y-104604342D01*
X89107142Y-104661485D01*
X89092857Y-104690057D01*
X89064285Y-104718628D01*
X89021428Y-104732914D01*
X88950000Y-104732914D01*
X89250000Y-104575771D02*
X89350000Y-104575771D01*
X89392857Y-104732914D02*
X89250000Y-104732914D01*
X89250000Y-104432914D01*
X89392857Y-104432914D01*
X89621428Y-104575771D02*
X89521428Y-104575771D01*
X89521428Y-104732914D02*
X89521428Y-104432914D01*
X89664285Y-104432914D01*
X89778571Y-104732914D02*
X89778571Y-104432914D01*
X89892857Y-104432914D01*
X89921428Y-104447200D01*
X89935714Y-104461485D01*
X89950000Y-104490057D01*
X89950000Y-104532914D01*
X89935714Y-104561485D01*
X89921428Y-104575771D01*
X89892857Y-104590057D01*
X89778571Y-104590057D01*
X90135714Y-104432914D02*
X90192857Y-104432914D01*
X90221428Y-104447200D01*
X90250000Y-104475771D01*
X90264285Y-104532914D01*
X90264285Y-104632914D01*
X90250000Y-104690057D01*
X90221428Y-104718628D01*
X90192857Y-104732914D01*
X90135714Y-104732914D01*
X90107142Y-104718628D01*
X90078571Y-104690057D01*
X90064285Y-104632914D01*
X90064285Y-104532914D01*
X90078571Y-104475771D01*
X90107142Y-104447200D01*
X90135714Y-104432914D01*
X90350000Y-104432914D02*
X90521428Y-104432914D01*
X90435714Y-104732914D02*
X90435714Y-104432914D01*
X90621428Y-104575771D02*
X90721428Y-104575771D01*
X90764285Y-104732914D02*
X90621428Y-104732914D01*
X90621428Y-104432914D01*
X90764285Y-104432914D01*
X91064285Y-104704342D02*
X91050000Y-104718628D01*
X91007142Y-104732914D01*
X90978571Y-104732914D01*
X90935714Y-104718628D01*
X90907142Y-104690057D01*
X90892857Y-104661485D01*
X90878571Y-104604342D01*
X90878571Y-104561485D01*
X90892857Y-104504342D01*
X90907142Y-104475771D01*
X90935714Y-104447200D01*
X90978571Y-104432914D01*
X91007142Y-104432914D01*
X91050000Y-104447200D01*
X91064285Y-104461485D01*
D10*
X109419047Y-106313276D02*
X109323809Y-106313276D01*
X109323809Y-106113276D01*
X109485714Y-106208514D02*
X109552380Y-106208514D01*
X109580952Y-106313276D02*
X109485714Y-106313276D01*
X109485714Y-106113276D01*
X109580952Y-106113276D01*
X109733333Y-106208514D02*
X109666666Y-106208514D01*
X109666666Y-106313276D02*
X109666666Y-106113276D01*
X109761904Y-106113276D01*
X109876190Y-106113276D02*
X109914285Y-106113276D01*
X109933333Y-106122800D01*
X109952380Y-106141847D01*
X109961904Y-106179942D01*
X109961904Y-106246609D01*
X109952380Y-106284704D01*
X109933333Y-106303752D01*
X109914285Y-106313276D01*
X109876190Y-106313276D01*
X109857142Y-106303752D01*
X109838095Y-106284704D01*
X109828571Y-106246609D01*
X109828571Y-106179942D01*
X109838095Y-106141847D01*
X109857142Y-106122800D01*
X109876190Y-106113276D01*
X110047619Y-106313276D02*
X110047619Y-106113276D01*
X110095238Y-106113276D01*
X110123809Y-106122800D01*
X110142857Y-106141847D01*
X110152380Y-106160895D01*
X110161904Y-106198990D01*
X110161904Y-106227561D01*
X110152380Y-106265657D01*
X110142857Y-106284704D01*
X110123809Y-106303752D01*
X110095238Y-106313276D01*
X110047619Y-106313276D01*
X110314285Y-106208514D02*
X110247619Y-106208514D01*
X110247619Y-106313276D02*
X110247619Y-106113276D01*
X110342857Y-106113276D01*
X110533333Y-106294228D02*
X110523809Y-106303752D01*
X110495238Y-106313276D01*
X110476190Y-106313276D01*
X110447619Y-106303752D01*
X110428571Y-106284704D01*
X110419047Y-106265657D01*
X110409523Y-106227561D01*
X110409523Y-106198990D01*
X110419047Y-106160895D01*
X110428571Y-106141847D01*
X110447619Y-106122800D01*
X110476190Y-106113276D01*
X110495238Y-106113276D01*
X110523809Y-106122800D01*
X110533333Y-106132323D01*
X110590476Y-106113276D02*
X110704761Y-106113276D01*
X110647619Y-106313276D02*
X110647619Y-106113276D01*
D11*
X88914285Y-102943028D02*
X88780952Y-102943028D01*
X88780952Y-103152552D02*
X88780952Y-102752552D01*
X88971428Y-102752552D01*
X89123809Y-102943028D02*
X89257142Y-102943028D01*
X89314285Y-103152552D02*
X89123809Y-103152552D01*
X89123809Y-102752552D01*
X89314285Y-102752552D01*
X89676190Y-103152552D02*
X89485714Y-103152552D01*
X89485714Y-102752552D01*
X89885714Y-102752552D02*
X89961904Y-102752552D01*
X90000000Y-102771600D01*
X90038095Y-102809695D01*
X90057142Y-102885885D01*
X90057142Y-103019219D01*
X90038095Y-103095409D01*
X90000000Y-103133504D01*
X89961904Y-103152552D01*
X89885714Y-103152552D01*
X89847619Y-103133504D01*
X89809523Y-103095409D01*
X89790476Y-103019219D01*
X89790476Y-102885885D01*
X89809523Y-102809695D01*
X89847619Y-102771600D01*
X89885714Y-102752552D01*
X90228571Y-103152552D02*
X90228571Y-102752552D01*
X90380952Y-102752552D01*
X90419047Y-102771600D01*
X90438095Y-102790647D01*
X90457142Y-102828742D01*
X90457142Y-102885885D01*
X90438095Y-102923980D01*
X90419047Y-102943028D01*
X90380952Y-102962076D01*
X90228571Y-102962076D01*
X90590476Y-102752552D02*
X90857142Y-102752552D01*
X90590476Y-103152552D01*
X90857142Y-103152552D01*
X91009523Y-103152552D02*
X91009523Y-102752552D01*
X91104761Y-102752552D01*
X91161904Y-102771600D01*
X91200000Y-102809695D01*
X91219047Y-102847790D01*
X91238095Y-102923980D01*
X91238095Y-102981123D01*
X91219047Y-103057314D01*
X91200000Y-103095409D01*
X91161904Y-103133504D01*
X91104761Y-103152552D01*
X91009523Y-103152552D01*
D15*
X89571428Y-107893638D02*
X89571428Y-107826971D01*
X89571428Y-107846019D02*
X89576190Y-107836495D01*
X89580952Y-107831733D01*
X89590476Y-107826971D01*
X89600000Y-107826971D01*
X89671428Y-107888876D02*
X89661904Y-107893638D01*
X89642857Y-107893638D01*
X89633333Y-107888876D01*
X89628571Y-107879352D01*
X89628571Y-107841257D01*
X89633333Y-107831733D01*
X89642857Y-107826971D01*
X89661904Y-107826971D01*
X89671428Y-107831733D01*
X89676190Y-107841257D01*
X89676190Y-107850780D01*
X89628571Y-107860304D01*
X89761904Y-107893638D02*
X89761904Y-107841257D01*
X89757142Y-107831733D01*
X89747619Y-107826971D01*
X89728571Y-107826971D01*
X89719047Y-107831733D01*
X89761904Y-107888876D02*
X89752380Y-107893638D01*
X89728571Y-107893638D01*
X89719047Y-107888876D01*
X89714285Y-107879352D01*
X89714285Y-107869828D01*
X89719047Y-107860304D01*
X89728571Y-107855542D01*
X89752380Y-107855542D01*
X89761904Y-107850780D01*
X89852380Y-107893638D02*
X89852380Y-107793638D01*
X89852380Y-107888876D02*
X89842857Y-107893638D01*
X89823809Y-107893638D01*
X89814285Y-107888876D01*
X89809523Y-107884114D01*
X89804761Y-107874590D01*
X89804761Y-107846019D01*
X89809523Y-107836495D01*
X89814285Y-107831733D01*
X89823809Y-107826971D01*
X89842857Y-107826971D01*
X89852380Y-107831733D01*
X89942857Y-107893638D02*
X89942857Y-107841257D01*
X89938095Y-107831733D01*
X89928571Y-107826971D01*
X89909523Y-107826971D01*
X89900000Y-107831733D01*
X89942857Y-107888876D02*
X89933333Y-107893638D01*
X89909523Y-107893638D01*
X89900000Y-107888876D01*
X89895238Y-107879352D01*
X89895238Y-107869828D01*
X89900000Y-107860304D01*
X89909523Y-107855542D01*
X89933333Y-107855542D01*
X89942857Y-107850780D01*
X89990476Y-107893638D02*
X89990476Y-107793638D01*
X89990476Y-107831733D02*
X90000000Y-107826971D01*
X90019047Y-107826971D01*
X90028571Y-107831733D01*
X90033333Y-107836495D01*
X90038095Y-107846019D01*
X90038095Y-107874590D01*
X90033333Y-107884114D01*
X90028571Y-107888876D01*
X90019047Y-107893638D01*
X90000000Y-107893638D01*
X89990476Y-107888876D01*
X90095238Y-107893638D02*
X90085714Y-107888876D01*
X90080952Y-107879352D01*
X90080952Y-107793638D01*
X90171428Y-107888876D02*
X90161904Y-107893638D01*
X90142857Y-107893638D01*
X90133333Y-107888876D01*
X90128571Y-107879352D01*
X90128571Y-107841257D01*
X90133333Y-107831733D01*
X90142857Y-107826971D01*
X90161904Y-107826971D01*
X90171428Y-107831733D01*
X90176190Y-107841257D01*
X90176190Y-107850780D01*
X90128571Y-107860304D01*
X90233333Y-107884114D02*
X90238095Y-107888876D01*
X90233333Y-107893638D01*
X90228571Y-107888876D01*
X90233333Y-107884114D01*
X90233333Y-107893638D01*
X90214285Y-107798400D02*
X90223809Y-107793638D01*
X90247619Y-107793638D01*
X90257142Y-107798400D01*
X90261904Y-107807923D01*
X90261904Y-107817447D01*
X90257142Y-107826971D01*
X90252380Y-107831733D01*
X90242857Y-107836495D01*
X90238095Y-107841257D01*
X90233333Y-107850780D01*
X90233333Y-107855542D01*
X90319047Y-107884114D02*
X90323809Y-107888876D01*
X90319047Y-107893638D01*
X90314285Y-107888876D01*
X90319047Y-107884114D01*
X90319047Y-107893638D01*
X90300000Y-107798400D02*
X90309523Y-107793638D01*
X90333333Y-107793638D01*
X90342857Y-107798400D01*
X90347619Y-107807923D01*
X90347619Y-107817447D01*
X90342857Y-107826971D01*
X90338095Y-107831733D01*
X90328571Y-107836495D01*
X90323809Y-107841257D01*
X90319047Y-107850780D01*
X90319047Y-107855542D01*
X90404761Y-107884114D02*
X90409523Y-107888876D01*
X90404761Y-107893638D01*
X90400000Y-107888876D01*
X90404761Y-107884114D01*
X90404761Y-107893638D01*
X90385714Y-107798400D02*
X90395238Y-107793638D01*
X90419047Y-107793638D01*
X90428571Y-107798400D01*
X90433333Y-107807923D01*
X90433333Y-107817447D01*
X90428571Y-107826971D01*
X90423809Y-107831733D01*
X90414285Y-107836495D01*
X90409523Y-107841257D01*
X90404761Y-107850780D01*
X90404761Y-107855542D01*
D13*
X89200000Y-98513066D02*
X88866666Y-98513066D01*
X88866666Y-97813066D01*
X89433333Y-98513066D02*
X89433333Y-97813066D01*
X89700000Y-97813066D01*
X89766666Y-97846400D01*
X89800000Y-97879733D01*
X89833333Y-97946400D01*
X89833333Y-98046400D01*
X89800000Y-98113066D01*
X89766666Y-98146400D01*
X89700000Y-98179733D01*
X89433333Y-98179733D01*
X90133333Y-98146400D02*
X90366666Y-98146400D01*
X90466666Y-98513066D02*
X90133333Y-98513066D01*
X90133333Y-97813066D01*
X90466666Y-97813066D01*
X90766666Y-98513066D02*
X90766666Y-97813066D01*
X90933333Y-97813066D01*
X91033333Y-97846400D01*
X91100000Y-97913066D01*
X91133333Y-97979733D01*
X91166666Y-98113066D01*
X91166666Y-98213066D01*
X91133333Y-98346400D01*
X91100000Y-98413066D01*
X91033333Y-98479733D01*
X90933333Y-98513066D01*
X90766666Y-98513066D01*
D11*
X109678571Y-95287314D02*
X109378571Y-95287314D01*
X109378571Y-95758742D02*
X109378571Y-94858742D01*
X109807142Y-94858742D01*
X110150000Y-95758742D02*
X110150000Y-94858742D01*
X110492857Y-94858742D01*
X110578571Y-94901600D01*
X110621428Y-94944457D01*
X110664285Y-95030171D01*
X110664285Y-95158742D01*
X110621428Y-95244457D01*
X110578571Y-95287314D01*
X110492857Y-95330171D01*
X110150000Y-95330171D01*
D12*
X89761904Y-93892666D02*
X90238095Y-93892666D01*
X89666666Y-94178380D02*
X90000000Y-93178380D01*
X90333333Y-94178380D01*
D10*
X108950000Y-104732914D02*
X108950000Y-104432914D01*
X109021428Y-104432914D01*
X109064285Y-104447200D01*
X109092857Y-104475771D01*
X109107142Y-104504342D01*
X109121428Y-104561485D01*
X109121428Y-104604342D01*
X109107142Y-104661485D01*
X109092857Y-104690057D01*
X109064285Y-104718628D01*
X109021428Y-104732914D01*
X108950000Y-104732914D01*
X109250000Y-104575771D02*
X109350000Y-104575771D01*
X109392857Y-104732914D02*
X109250000Y-104732914D01*
X109250000Y-104432914D01*
X109392857Y-104432914D01*
X109621428Y-104575771D02*
X109521428Y-104575771D01*
X109521428Y-104732914D02*
X109521428Y-104432914D01*
X109664285Y-104432914D01*
X109778571Y-104732914D02*
X109778571Y-104432914D01*
X109892857Y-104432914D01*
X109921428Y-104447200D01*
X109935714Y-104461485D01*
X109950000Y-104490057D01*
X109950000Y-104532914D01*
X109935714Y-104561485D01*
X109921428Y-104575771D01*
X109892857Y-104590057D01*
X109778571Y-104590057D01*
X110135714Y-104432914D02*
X110192857Y-104432914D01*
X110221428Y-104447200D01*
X110250000Y-104475771D01*
X110264285Y-104532914D01*
X110264285Y-104632914D01*
X110250000Y-104690057D01*
X110221428Y-104718628D01*
X110192857Y-104732914D01*
X110135714Y-104732914D01*
X110107142Y-104718628D01*
X110078571Y-104690057D01*
X110064285Y-104632914D01*
X110064285Y-104532914D01*
X110078571Y-104475771D01*
X110107142Y-104447200D01*
X110135714Y-104432914D01*
X110350000Y-104432914D02*
X110521428Y-104432914D01*
X110435714Y-104732914D02*
X110435714Y-104432914D01*
X110621428Y-104575771D02*
X110721428Y-104575771D01*
X110764285Y-104732914D02*
X110621428Y-104732914D01*
X110621428Y-104432914D01*
X110764285Y-104432914D01*
X111064285Y-104704342D02*
X111050000Y-104718628D01*
X111007142Y-104732914D01*
X110978571Y-104732914D01*
X110935714Y-104718628D01*
X110907142Y-104690057D01*
X110892857Y-104661485D01*
X110878571Y-104604342D01*
X110878571Y-104561485D01*
X110892857Y-104504342D01*
X110907142Y-104475771D01*
X110935714Y-104447200D01*
X110978571Y-104432914D01*
X111007142Y-104432914D01*
X111050000Y-104447200D01*
X111064285Y-104461485D01*
D15*
X109571428Y-107893638D02*
X109571428Y-107826971D01*
X109571428Y-107846019D02*
X109576190Y-107836495D01*
X109580952Y-107831733D01*
X109590476Y-107826971D01*
X109600000Y-107826971D01*
X109671428Y-107888876D02*
X109661904Y-107893638D01*
X109642857Y-107893638D01*
X109633333Y-107888876D01*
X109628571Y-107879352D01*
X109628571Y-107841257D01*
X109633333Y-107831733D01*
X109642857Y-107826971D01*
X109661904Y-107826971D01*
X109671428Y-107831733D01*
X109676190Y-107841257D01*
X109676190Y-107850780D01*
X109628571Y-107860304D01*
X109761904Y-107893638D02*
X109761904Y-107841257D01*
X109757142Y-107831733D01*
X109747619Y-107826971D01*
X109728571Y-107826971D01*
X109719047Y-107831733D01*
X109761904Y-107888876D02*
X109752380Y-107893638D01*
X109728571Y-107893638D01*
X109719047Y-107888876D01*
X109714285Y-107879352D01*
X109714285Y-107869828D01*
X109719047Y-107860304D01*
X109728571Y-107855542D01*
X109752380Y-107855542D01*
X109761904Y-107850780D01*
X109852380Y-107893638D02*
X109852380Y-107793638D01*
X109852380Y-107888876D02*
X109842857Y-107893638D01*
X109823809Y-107893638D01*
X109814285Y-107888876D01*
X109809523Y-107884114D01*
X109804761Y-107874590D01*
X109804761Y-107846019D01*
X109809523Y-107836495D01*
X109814285Y-107831733D01*
X109823809Y-107826971D01*
X109842857Y-107826971D01*
X109852380Y-107831733D01*
X109942857Y-107893638D02*
X109942857Y-107841257D01*
X109938095Y-107831733D01*
X109928571Y-107826971D01*
X109909523Y-107826971D01*
X109900000Y-107831733D01*
X109942857Y-107888876D02*
X109933333Y-107893638D01*
X109909523Y-107893638D01*
X109900000Y-107888876D01*
X109895238Y-107879352D01*
X109895238Y-107869828D01*
X109900000Y-107860304D01*
X109909523Y-107855542D01*
X109933333Y-107855542D01*
X109942857Y-107850780D01*
X109990476Y-107893638D02*
X109990476Y-107793638D01*
X109990476Y-107831733D02*
X110000000Y-107826971D01*
X110019047Y-107826971D01*
X110028571Y-107831733D01*
X110033333Y-107836495D01*
X110038095Y-107846019D01*
X110038095Y-107874590D01*
X110033333Y-107884114D01*
X110028571Y-107888876D01*
X110019047Y-107893638D01*
X110000000Y-107893638D01*
X109990476Y-107888876D01*
X110095238Y-107893638D02*
X110085714Y-107888876D01*
X110080952Y-107879352D01*
X110080952Y-107793638D01*
X110171428Y-107888876D02*
X110161904Y-107893638D01*
X110142857Y-107893638D01*
X110133333Y-107888876D01*
X110128571Y-107879352D01*
X110128571Y-107841257D01*
X110133333Y-107831733D01*
X110142857Y-107826971D01*
X110161904Y-107826971D01*
X110171428Y-107831733D01*
X110176190Y-107841257D01*
X110176190Y-107850780D01*
X110128571Y-107860304D01*
X110233333Y-107884114D02*
X110238095Y-107888876D01*
X110233333Y-107893638D01*
X110228571Y-107888876D01*
X110233333Y-107884114D01*
X110233333Y-107893638D01*
X110214285Y-107798400D02*
X110223809Y-107793638D01*
X110247619Y-107793638D01*
X110257142Y-107798400D01*
X110261904Y-107807923D01*
X110261904Y-107817447D01*
X110257142Y-107826971D01*
X110252380Y-107831733D01*
X110242857Y-107836495D01*
X110238095Y-107841257D01*
X110233333Y-107850780D01*
X110233333Y-107855542D01*
X110319047Y-107884114D02*
X110323809Y-107888876D01*
X110319047Y-107893638D01*
X110314285Y-107888876D01*
X110319047Y-107884114D01*
X110319047Y-107893638D01*
X110300000Y-107798400D02*
X110309523Y-107793638D01*
X110333333Y-107793638D01*
X110342857Y-107798400D01*
X110347619Y-107807923D01*
X110347619Y-107817447D01*
X110342857Y-107826971D01*
X110338095Y-107831733D01*
X110328571Y-107836495D01*
X110323809Y-107841257D01*
X110319047Y-107850780D01*
X110319047Y-107855542D01*
X110404761Y-107884114D02*
X110409523Y-107888876D01*
X110404761Y-107893638D01*
X110400000Y-107888876D01*
X110404761Y-107884114D01*
X110404761Y-107893638D01*
X110385714Y-107798400D02*
X110395238Y-107793638D01*
X110419047Y-107793638D01*
X110428571Y-107798400D01*
X110433333Y-107807923D01*
X110433333Y-107817447D01*
X110428571Y-107826971D01*
X110423809Y-107831733D01*
X110414285Y-107836495D01*
X110409523Y-107841257D01*
X110404761Y-107850780D01*
X110404761Y-107855542D01*
D13*
X89678571Y-95287314D02*
X89378571Y-95287314D01*
X89378571Y-95758742D02*
X89378571Y-94858742D01*
X89807142Y-94858742D01*
X90150000Y-95758742D02*
X90150000Y-94858742D01*
X90492857Y-94858742D01*
X90578571Y-94901600D01*
X90621428Y-94944457D01*
X90664285Y-95030171D01*
X90664285Y-95158742D01*
X90621428Y-95244457D01*
X90578571Y-95287314D01*
X90492857Y-95330171D01*
X90150000Y-95330171D01*
X88714285Y-99991828D02*
X88714285Y-99391828D01*
X88942857Y-99391828D01*
X89000000Y-99420400D01*
X89028571Y-99448971D01*
X89057142Y-99506114D01*
X89057142Y-99591828D01*
X89028571Y-99648971D01*
X89000000Y-99677542D01*
X88942857Y-99706114D01*
X88714285Y-99706114D01*
X89314285Y-99677542D02*
X89514285Y-99677542D01*
X89600000Y-99991828D02*
X89314285Y-99991828D01*
X89314285Y-99391828D01*
X89600000Y-99391828D01*
X90200000Y-99934685D02*
X90171428Y-99963257D01*
X90085714Y-99991828D01*
X90028571Y-99991828D01*
X89942857Y-99963257D01*
X89885714Y-99906114D01*
X89857142Y-99848971D01*
X89828571Y-99734685D01*
X89828571Y-99648971D01*
X89857142Y-99534685D01*
X89885714Y-99477542D01*
X89942857Y-99420400D01*
X90028571Y-99391828D01*
X90085714Y-99391828D01*
X90171428Y-99420400D01*
X90200000Y-99448971D01*
X90657142Y-99677542D02*
X90457142Y-99677542D01*
X90457142Y-99991828D02*
X90457142Y-99391828D01*
X90742857Y-99391828D01*
X90971428Y-99991828D02*
X90971428Y-99391828D01*
X91114285Y-99391828D01*
X91200000Y-99420400D01*
X91257142Y-99477542D01*
X91285714Y-99534685D01*
X91314285Y-99648971D01*
X91314285Y-99734685D01*
X91285714Y-99848971D01*
X91257142Y-99906114D01*
X91200000Y-99963257D01*
X91114285Y-99991828D01*
X90971428Y-99991828D01*
D11*
X108714285Y-99991828D02*
X108714285Y-99391828D01*
X108942857Y-99391828D01*
X109000000Y-99420400D01*
X109028571Y-99448971D01*
X109057142Y-99506114D01*
X109057142Y-99591828D01*
X109028571Y-99648971D01*
X109000000Y-99677542D01*
X108942857Y-99706114D01*
X108714285Y-99706114D01*
X109314285Y-99677542D02*
X109514285Y-99677542D01*
X109600000Y-99991828D02*
X109314285Y-99991828D01*
X109314285Y-99391828D01*
X109600000Y-99391828D01*
X110200000Y-99934685D02*
X110171428Y-99963257D01*
X110085714Y-99991828D01*
X110028571Y-99991828D01*
X109942857Y-99963257D01*
X109885714Y-99906114D01*
X109857142Y-99848971D01*
X109828571Y-99734685D01*
X109828571Y-99648971D01*
X109857142Y-99534685D01*
X109885714Y-99477542D01*
X109942857Y-99420400D01*
X110028571Y-99391828D01*
X110085714Y-99391828D01*
X110171428Y-99420400D01*
X110200000Y-99448971D01*
X110657142Y-99677542D02*
X110457142Y-99677542D01*
X110457142Y-99991828D02*
X110457142Y-99391828D01*
X110742857Y-99391828D01*
X110971428Y-99991828D02*
X110971428Y-99391828D01*
X111114285Y-99391828D01*
X111200000Y-99420400D01*
X111257142Y-99477542D01*
X111285714Y-99534685D01*
X111314285Y-99648971D01*
X111314285Y-99734685D01*
X111285714Y-99848971D01*
X111257142Y-99906114D01*
X111200000Y-99963257D01*
X111114285Y-99991828D01*
X110971428Y-99991828D01*
D16*
X88690476Y-101361085D02*
X88857142Y-101361085D01*
X88928571Y-101622990D02*
X88690476Y-101622990D01*
X88690476Y-101122990D01*
X88928571Y-101122990D01*
X89142857Y-101622990D02*
X89142857Y-101122990D01*
X89261904Y-101122990D01*
X89333333Y-101146800D01*
X89380952Y-101194419D01*
X89404761Y-101242038D01*
X89428571Y-101337276D01*
X89428571Y-101408704D01*
X89404761Y-101503942D01*
X89380952Y-101551561D01*
X89333333Y-101599180D01*
X89261904Y-101622990D01*
X89142857Y-101622990D01*
X89809523Y-101361085D02*
X89642857Y-101361085D01*
X89642857Y-101622990D02*
X89642857Y-101122990D01*
X89880952Y-101122990D01*
X90357142Y-101575371D02*
X90333333Y-101599180D01*
X90261904Y-101622990D01*
X90214285Y-101622990D01*
X90142857Y-101599180D01*
X90095238Y-101551561D01*
X90071428Y-101503942D01*
X90047619Y-101408704D01*
X90047619Y-101337276D01*
X90071428Y-101242038D01*
X90095238Y-101194419D01*
X90142857Y-101146800D01*
X90214285Y-101122990D01*
X90261904Y-101122990D01*
X90333333Y-101146800D01*
X90357142Y-101170609D01*
X90523809Y-101122990D02*
X90857142Y-101122990D01*
X90523809Y-101622990D01*
X90857142Y-101622990D01*
X91047619Y-101622990D02*
X91047619Y-101122990D01*
X91238095Y-101122990D01*
X91285714Y-101146800D01*
X91309523Y-101170609D01*
X91333333Y-101218228D01*
X91333333Y-101289657D01*
X91309523Y-101337276D01*
X91285714Y-101361085D01*
X91238095Y-101384895D01*
X91047619Y-101384895D01*
D10*
X89419047Y-106313276D02*
X89323809Y-106313276D01*
X89323809Y-106113276D01*
X89485714Y-106208514D02*
X89552380Y-106208514D01*
X89580952Y-106313276D02*
X89485714Y-106313276D01*
X89485714Y-106113276D01*
X89580952Y-106113276D01*
X89733333Y-106208514D02*
X89666666Y-106208514D01*
X89666666Y-106313276D02*
X89666666Y-106113276D01*
X89761904Y-106113276D01*
X89876190Y-106113276D02*
X89914285Y-106113276D01*
X89933333Y-106122800D01*
X89952380Y-106141847D01*
X89961904Y-106179942D01*
X89961904Y-106246609D01*
X89952380Y-106284704D01*
X89933333Y-106303752D01*
X89914285Y-106313276D01*
X89876190Y-106313276D01*
X89857142Y-106303752D01*
X89838095Y-106284704D01*
X89828571Y-106246609D01*
X89828571Y-106179942D01*
X89838095Y-106141847D01*
X89857142Y-106122800D01*
X89876190Y-106113276D01*
X90047619Y-106313276D02*
X90047619Y-106113276D01*
X90095238Y-106113276D01*
X90123809Y-106122800D01*
X90142857Y-106141847D01*
X90152380Y-106160895D01*
X90161904Y-106198990D01*
X90161904Y-106227561D01*
X90152380Y-106265657D01*
X90142857Y-106284704D01*
X90123809Y-106303752D01*
X90095238Y-106313276D01*
X90047619Y-106313276D01*
X90314285Y-106208514D02*
X90247619Y-106208514D01*
X90247619Y-106313276D02*
X90247619Y-106113276D01*
X90342857Y-106113276D01*
X90533333Y-106294228D02*
X90523809Y-106303752D01*
X90495238Y-106313276D01*
X90476190Y-106313276D01*
X90447619Y-106303752D01*
X90428571Y-106284704D01*
X90419047Y-106265657D01*
X90409523Y-106227561D01*
X90409523Y-106198990D01*
X90419047Y-106160895D01*
X90428571Y-106141847D01*
X90447619Y-106122800D01*
X90476190Y-106113276D01*
X90495238Y-106113276D01*
X90523809Y-106122800D01*
X90533333Y-106132323D01*
X90590476Y-106113276D02*
X90704761Y-106113276D01*
X90647619Y-106313276D02*
X90647619Y-106113276D01*
D11*
%TO.C,REF\u002A\u002A*%
X97918333Y-102463690D02*
X97918333Y-101963690D01*
X98037380Y-101963690D01*
X98108809Y-101987500D01*
X98156428Y-102035119D01*
X98180237Y-102082738D01*
X98204047Y-102177976D01*
X98204047Y-102249404D01*
X98180237Y-102344642D01*
X98156428Y-102392261D01*
X98108809Y-102439880D01*
X98037380Y-102463690D01*
X97918333Y-102463690D01*
X98632618Y-102463690D02*
X98632618Y-102201785D01*
X98608809Y-102154166D01*
X98561190Y-102130357D01*
X98465952Y-102130357D01*
X98418333Y-102154166D01*
X98632618Y-102439880D02*
X98584999Y-102463690D01*
X98465952Y-102463690D01*
X98418333Y-102439880D01*
X98394523Y-102392261D01*
X98394523Y-102344642D01*
X98418333Y-102297023D01*
X98465952Y-102273214D01*
X98584999Y-102273214D01*
X98632618Y-102249404D01*
X99084999Y-102130357D02*
X99084999Y-102535119D01*
X99061190Y-102582738D01*
X99037380Y-102606547D01*
X98989761Y-102630357D01*
X98918333Y-102630357D01*
X98870713Y-102606547D01*
X99084999Y-102439880D02*
X99037380Y-102463690D01*
X98942142Y-102463690D01*
X98894523Y-102439880D01*
X98870713Y-102416071D01*
X98846904Y-102368452D01*
X98846904Y-102225595D01*
X98870713Y-102177976D01*
X98894523Y-102154166D01*
X98942142Y-102130357D01*
X99037380Y-102130357D01*
X99084999Y-102154166D01*
X99323094Y-102130357D02*
X99323094Y-102463690D01*
X99323094Y-102177976D02*
X99346904Y-102154166D01*
X99394523Y-102130357D01*
X99465952Y-102130357D01*
X99513571Y-102154166D01*
X99537380Y-102201785D01*
X99537380Y-102463690D01*
X99989761Y-102463690D02*
X99989761Y-102201785D01*
X99965952Y-102154166D01*
X99918333Y-102130357D01*
X99823094Y-102130357D01*
X99775475Y-102154166D01*
X99989761Y-102439880D02*
X99942142Y-102463690D01*
X99823094Y-102463690D01*
X99775475Y-102439880D01*
X99751666Y-102392261D01*
X99751666Y-102344642D01*
X99775475Y-102297023D01*
X99823094Y-102273214D01*
X99942142Y-102273214D01*
X99989761Y-102249404D01*
X100227856Y-102463690D02*
X100227856Y-101963690D01*
X100227856Y-102154166D02*
X100275475Y-102130357D01*
X100370713Y-102130357D01*
X100418333Y-102154166D01*
X100442142Y-102177976D01*
X100465952Y-102225595D01*
X100465952Y-102368452D01*
X100442142Y-102416071D01*
X100418333Y-102439880D01*
X100370713Y-102463690D01*
X100275475Y-102463690D01*
X100227856Y-102439880D01*
X100680237Y-102463690D02*
X100680237Y-101963690D01*
X100680237Y-102154166D02*
X100727856Y-102130357D01*
X100823094Y-102130357D01*
X100870713Y-102154166D01*
X100894523Y-102177976D01*
X100918333Y-102225595D01*
X100918333Y-102368452D01*
X100894523Y-102416071D01*
X100870713Y-102439880D01*
X100823094Y-102463690D01*
X100727856Y-102463690D01*
X100680237Y-102439880D01*
X101132618Y-102463690D02*
X101132618Y-102130357D01*
X101132618Y-101963690D02*
X101108809Y-101987500D01*
X101132618Y-102011309D01*
X101156428Y-101987500D01*
X101132618Y-101963690D01*
X101132618Y-102011309D01*
X101299285Y-102130357D02*
X101489761Y-102130357D01*
X101370713Y-101963690D02*
X101370713Y-102392261D01*
X101394523Y-102439880D01*
X101442142Y-102463690D01*
X101489761Y-102463690D01*
X98525475Y-103268690D02*
X98358809Y-103030595D01*
X98239761Y-103268690D02*
X98239761Y-102768690D01*
X98430237Y-102768690D01*
X98477856Y-102792500D01*
X98501666Y-102816309D01*
X98525475Y-102863928D01*
X98525475Y-102935357D01*
X98501666Y-102982976D01*
X98477856Y-103006785D01*
X98430237Y-103030595D01*
X98239761Y-103030595D01*
X98954047Y-103268690D02*
X98954047Y-103006785D01*
X98930237Y-102959166D01*
X98882618Y-102935357D01*
X98787380Y-102935357D01*
X98739761Y-102959166D01*
X98954047Y-103244880D02*
X98906428Y-103268690D01*
X98787380Y-103268690D01*
X98739761Y-103244880D01*
X98715952Y-103197261D01*
X98715952Y-103149642D01*
X98739761Y-103102023D01*
X98787380Y-103078214D01*
X98906428Y-103078214D01*
X98954047Y-103054404D01*
X99192142Y-103268690D02*
X99192142Y-102768690D01*
X99192142Y-102959166D02*
X99239761Y-102935357D01*
X99334999Y-102935357D01*
X99382618Y-102959166D01*
X99406428Y-102982976D01*
X99430237Y-103030595D01*
X99430237Y-103173452D01*
X99406428Y-103221071D01*
X99382618Y-103244880D01*
X99334999Y-103268690D01*
X99239761Y-103268690D01*
X99192142Y-103244880D01*
X99644523Y-103268690D02*
X99644523Y-102768690D01*
X99644523Y-102959166D02*
X99692142Y-102935357D01*
X99787380Y-102935357D01*
X99834999Y-102959166D01*
X99858809Y-102982976D01*
X99882618Y-103030595D01*
X99882618Y-103173452D01*
X99858809Y-103221071D01*
X99834999Y-103244880D01*
X99787380Y-103268690D01*
X99692142Y-103268690D01*
X99644523Y-103244880D01*
X100096904Y-103268690D02*
X100096904Y-102935357D01*
X100096904Y-102768690D02*
X100073094Y-102792500D01*
X100096904Y-102816309D01*
X100120713Y-102792500D01*
X100096904Y-102768690D01*
X100096904Y-102816309D01*
X100263571Y-102935357D02*
X100454047Y-102935357D01*
X100334999Y-102768690D02*
X100334999Y-103197261D01*
X100358809Y-103244880D01*
X100406428Y-103268690D01*
X100454047Y-103268690D01*
X100620713Y-103221071D02*
X100644523Y-103244880D01*
X100620713Y-103268690D01*
X100596904Y-103244880D01*
X100620713Y-103221071D01*
X100620713Y-103268690D01*
X100620713Y-103078214D02*
X100596904Y-102792500D01*
X100620713Y-102768690D01*
X100644523Y-102792500D01*
X100620713Y-103078214D01*
X100620713Y-102768690D01*
X100858809Y-103221071D02*
X100882618Y-103244880D01*
X100858809Y-103268690D01*
X100834999Y-103244880D01*
X100858809Y-103221071D01*
X100858809Y-103268690D01*
X100858809Y-103078214D02*
X100834999Y-102792500D01*
X100858809Y-102768690D01*
X100882618Y-102792500D01*
X100858809Y-103078214D01*
X100858809Y-102768690D01*
X101096904Y-103221071D02*
X101120713Y-103244880D01*
X101096904Y-103268690D01*
X101073094Y-103244880D01*
X101096904Y-103221071D01*
X101096904Y-103268690D01*
X101096904Y-103078214D02*
X101073094Y-102792500D01*
X101096904Y-102768690D01*
X101120713Y-102792500D01*
X101096904Y-103078214D01*
X101096904Y-102768690D01*
G36*
X99632863Y-100848621D02*
G01*
X99645754Y-100827072D01*
X99655452Y-100816909D01*
X99665972Y-100810384D01*
X99681121Y-100806636D01*
X99704701Y-100804802D01*
X99740519Y-100804019D01*
X99747837Y-100803932D01*
X99794828Y-100803943D01*
X99846313Y-100804811D01*
X99893043Y-100806362D01*
X99904279Y-100806908D01*
X99939786Y-100809135D01*
X99962531Y-100811995D01*
X99976410Y-100816680D01*
X99985318Y-100824381D01*
X99991534Y-100833599D01*
X99998954Y-100847370D01*
X99999376Y-100857892D01*
X99991182Y-100870304D01*
X99974338Y-100888117D01*
X99956944Y-100907050D01*
X99945694Y-100921442D01*
X99943333Y-100926324D01*
X99938692Y-100936459D01*
X99927103Y-100953898D01*
X99922500Y-100960092D01*
X99909263Y-100980266D01*
X99902089Y-100996686D01*
X99901667Y-100999703D01*
X99896547Y-101012552D01*
X99883397Y-101032379D01*
X99871850Y-101046833D01*
X99852443Y-101067557D01*
X99836279Y-101077966D01*
X99817095Y-101081434D01*
X99807267Y-101081635D01*
X99777054Y-101077528D01*
X99749840Y-101067370D01*
X99747500Y-101065988D01*
X99714290Y-101039642D01*
X99679330Y-101002232D01*
X99648644Y-100960982D01*
X99631240Y-100923386D01*
X99627265Y-100894106D01*
X99701667Y-100894106D01*
X99707505Y-100907842D01*
X99714167Y-100915000D01*
X99724700Y-100928094D01*
X99726666Y-100934770D01*
X99732539Y-100944757D01*
X99747009Y-100960414D01*
X99765350Y-100977394D01*
X99782840Y-100991350D01*
X99794752Y-100997936D01*
X99795417Y-100998020D01*
X99801150Y-100991675D01*
X99801667Y-100987338D01*
X99806382Y-100975446D01*
X99818726Y-100954971D01*
X99835488Y-100931088D01*
X99869310Y-100885833D01*
X99829238Y-100880149D01*
X99796429Y-100877412D01*
X99763193Y-100877762D01*
X99733626Y-100880750D01*
X99711824Y-100885928D01*
X99701883Y-100892848D01*
X99701667Y-100894106D01*
X99627265Y-100894106D01*
X99625947Y-100884402D01*
X99632863Y-100848621D01*
G37*
G36*
X99351037Y-98921768D02*
G01*
X99397500Y-98929388D01*
X99431071Y-98937408D01*
X99451539Y-98944262D01*
X99462236Y-98951560D01*
X99466493Y-98960914D01*
X99466829Y-98962916D01*
X99466386Y-98973830D01*
X99459700Y-98979922D01*
X99444430Y-98981322D01*
X99418236Y-98978158D01*
X99378776Y-98970560D01*
X99368333Y-98968359D01*
X99308718Y-98960050D01*
X99248715Y-98959472D01*
X99193582Y-98966352D01*
X99150272Y-98979653D01*
X99109038Y-99001805D01*
X99073916Y-99029777D01*
X99043949Y-99065308D01*
X99018180Y-99110138D01*
X98995651Y-99166006D01*
X98975405Y-99234653D01*
X98956483Y-99317817D01*
X98952126Y-99339649D01*
X98943125Y-99384792D01*
X98936153Y-99416132D01*
X98930275Y-99436266D01*
X98924555Y-99447792D01*
X98918060Y-99453308D01*
X98910481Y-99455324D01*
X98899643Y-99456068D01*
X98894379Y-99451801D01*
X98893566Y-99438825D01*
X98896078Y-99413443D01*
X98896538Y-99409491D01*
X98902854Y-99367162D01*
X98912517Y-99316594D01*
X98924409Y-99262529D01*
X98937413Y-99209706D01*
X98950410Y-99162866D01*
X98962284Y-99126751D01*
X98964574Y-99120865D01*
X98999576Y-99052912D01*
X99044028Y-98997854D01*
X99097256Y-98956393D01*
X99144961Y-98933751D01*
X99185727Y-98923855D01*
X99237220Y-98918498D01*
X99294102Y-98917772D01*
X99351037Y-98921768D01*
G37*
G36*
X100434053Y-98886365D02*
G01*
X100444041Y-98887845D01*
X100521232Y-98908097D01*
X100593754Y-98943802D01*
X100660643Y-98994165D01*
X100720931Y-99058389D01*
X100773652Y-99135677D01*
X100796667Y-99178554D01*
X100823388Y-99235106D01*
X100841037Y-99278618D01*
X100849809Y-99309906D01*
X100849898Y-99329783D01*
X100841497Y-99339063D01*
X100835112Y-99340000D01*
X100819133Y-99332111D01*
X100805945Y-99309815D01*
X100797851Y-99288982D01*
X100793547Y-99275055D01*
X100793333Y-99273400D01*
X100789142Y-99260392D01*
X100777912Y-99236936D01*
X100761661Y-99206574D01*
X100742407Y-99172850D01*
X100722166Y-99139308D01*
X100702957Y-99109490D01*
X100688197Y-99088739D01*
X100650165Y-99043930D01*
X100610938Y-99008670D01*
X100564767Y-98978292D01*
X100528324Y-98958961D01*
X100494360Y-98943070D01*
X100467356Y-98933870D01*
X100439937Y-98929550D01*
X100404726Y-98928302D01*
X100403324Y-98928292D01*
X100363038Y-98929475D01*
X100332663Y-98934417D01*
X100305649Y-98944283D01*
X100301119Y-98946436D01*
X100268220Y-98960440D01*
X100247170Y-98964186D01*
X100236713Y-98957714D01*
X100235000Y-98948525D01*
X100241369Y-98931440D01*
X100261251Y-98916281D01*
X100295809Y-98902367D01*
X100330000Y-98892844D01*
X100367153Y-98885152D01*
X100398604Y-98883135D01*
X100434053Y-98886365D01*
G37*
G36*
X100912972Y-98059429D02*
G01*
X100913132Y-97989029D01*
X100913814Y-97923904D01*
X100915028Y-97866013D01*
X100916786Y-97817316D01*
X100919098Y-97779771D01*
X100921975Y-97755336D01*
X100924727Y-97746500D01*
X100931524Y-97730562D01*
X100930800Y-97722085D01*
X100929202Y-97704151D01*
X100931994Y-97673426D01*
X100938454Y-97632979D01*
X100947861Y-97585882D01*
X100959493Y-97535206D01*
X100972627Y-97484023D01*
X100986542Y-97435402D01*
X101000516Y-97392415D01*
X101013826Y-97358134D01*
X101018896Y-97347362D01*
X101037242Y-97316657D01*
X101058831Y-97288447D01*
X101079935Y-97267153D01*
X101094339Y-97257925D01*
X101099940Y-97253817D01*
X101099749Y-97245836D01*
X101092610Y-97231496D01*
X101077366Y-97208311D01*
X101059602Y-97183176D01*
X101032084Y-97142548D01*
X101015895Y-97112995D01*
X101010748Y-97093642D01*
X101016357Y-97083611D01*
X101026449Y-97081666D01*
X101038266Y-97088616D01*
X101057075Y-97108257D01*
X101081662Y-97138774D01*
X101110810Y-97178353D01*
X101143305Y-97225178D01*
X101177932Y-97277434D01*
X101213474Y-97333308D01*
X101248716Y-97390984D01*
X101282444Y-97448647D01*
X101313442Y-97504483D01*
X101327787Y-97531629D01*
X101342058Y-97558584D01*
X101353584Y-97579276D01*
X101360087Y-97589632D01*
X101360395Y-97589962D01*
X101365866Y-97599350D01*
X101375384Y-97619388D01*
X101384423Y-97640000D01*
X101395984Y-97667251D01*
X101411673Y-97704269D01*
X101429123Y-97745471D01*
X101440917Y-97773333D01*
X101508110Y-97951555D01*
X101560006Y-98131853D01*
X101596613Y-98313239D01*
X101617939Y-98494730D01*
X101623992Y-98675338D01*
X101614780Y-98854078D01*
X101590310Y-99029964D01*
X101550590Y-99202010D01*
X101495628Y-99369231D01*
X101426974Y-99527500D01*
X101393376Y-99592879D01*
X101358433Y-99655029D01*
X101323345Y-99712251D01*
X101289316Y-99762846D01*
X101257548Y-99805117D01*
X101229244Y-99837365D01*
X101205605Y-99857891D01*
X101187997Y-99865000D01*
X101173101Y-99857699D01*
X101162430Y-99842083D01*
X101157260Y-99826555D01*
X101149220Y-99797975D01*
X101139154Y-99759541D01*
X101127903Y-99714449D01*
X101119032Y-99677500D01*
X101065562Y-99438772D01*
X101020162Y-99209155D01*
X100981976Y-98983684D01*
X100950148Y-98757394D01*
X100929225Y-98577500D01*
X100925588Y-98535411D01*
X100922389Y-98482927D01*
X100919638Y-98422008D01*
X100917345Y-98354611D01*
X100915521Y-98282696D01*
X100914178Y-98208222D01*
X100913903Y-98184048D01*
X100952853Y-98184048D01*
X100953592Y-98262199D01*
X100955345Y-98333864D01*
X100958160Y-98396149D01*
X100959539Y-98417037D01*
X100979476Y-98634600D01*
X101007845Y-98862205D01*
X101044009Y-99095905D01*
X101087332Y-99331757D01*
X101137181Y-99565816D01*
X101160695Y-99665883D01*
X101195564Y-99810016D01*
X101216060Y-99785425D01*
X101229029Y-99768453D01*
X101248292Y-99741519D01*
X101271033Y-99708619D01*
X101289997Y-99680453D01*
X101359215Y-99564152D01*
X101421073Y-99435456D01*
X101474454Y-99297423D01*
X101518242Y-99153111D01*
X101551320Y-99005579D01*
X101563478Y-98931666D01*
X101580191Y-98758009D01*
X101580958Y-98581084D01*
X101565968Y-98401795D01*
X101535409Y-98221044D01*
X101489473Y-98039736D01*
X101428348Y-97858773D01*
X101352224Y-97679059D01*
X101264815Y-97507835D01*
X101244555Y-97470127D01*
X101227677Y-97436483D01*
X101215713Y-97410127D01*
X101210196Y-97394286D01*
X101210000Y-97392541D01*
X101203837Y-97375481D01*
X101188151Y-97353465D01*
X101167149Y-97330989D01*
X101145036Y-97312548D01*
X101126017Y-97302638D01*
X101125855Y-97302597D01*
X101110989Y-97301468D01*
X101098487Y-97308978D01*
X101083420Y-97328159D01*
X101082801Y-97329056D01*
X101053341Y-97382047D01*
X101026662Y-97451248D01*
X101002834Y-97536426D01*
X100981927Y-97637345D01*
X100971872Y-97698340D01*
X100966910Y-97740903D01*
X100962614Y-97797229D01*
X100959033Y-97864425D01*
X100956217Y-97939597D01*
X100954215Y-98019854D01*
X100953077Y-98102301D01*
X100952853Y-98184048D01*
X100913903Y-98184048D01*
X100913324Y-98133146D01*
X100912972Y-98059429D01*
G37*
G36*
X99942831Y-101065743D02*
G01*
X99963316Y-101046083D01*
X99971824Y-101038453D01*
X99987853Y-101025309D01*
X100055564Y-101025309D01*
X100061605Y-101027561D01*
X100076142Y-101029181D01*
X100100829Y-101030287D01*
X100137325Y-101030998D01*
X100187284Y-101031433D01*
X100247500Y-101031693D01*
X100499707Y-101037765D01*
X100757499Y-101053982D01*
X101013661Y-101079818D01*
X101147500Y-101097403D01*
X101198840Y-101104698D01*
X101244932Y-101111196D01*
X101283086Y-101116521D01*
X101310613Y-101120298D01*
X101324821Y-101122153D01*
X101325765Y-101122254D01*
X101330467Y-101120080D01*
X101333413Y-101110936D01*
X101333908Y-101104152D01*
X101444354Y-101104152D01*
X101444892Y-101126728D01*
X101446525Y-101137585D01*
X101446692Y-101137802D01*
X101457586Y-101142603D01*
X101478144Y-101148312D01*
X101501557Y-101153273D01*
X101520710Y-101155813D01*
X101530593Y-101154314D01*
X101529440Y-101145098D01*
X101525992Y-101137916D01*
X101516689Y-101121760D01*
X101501289Y-101096990D01*
X101483026Y-101068802D01*
X101481949Y-101067175D01*
X101447500Y-101015184D01*
X101445031Y-101074429D01*
X101444354Y-101104152D01*
X101333908Y-101104152D01*
X101334760Y-101092466D01*
X101334667Y-101062314D01*
X101333291Y-101018121D01*
X101333092Y-101012916D01*
X101330664Y-100963129D01*
X101327317Y-100925262D01*
X101322304Y-100894567D01*
X101314877Y-100866298D01*
X101305878Y-100840000D01*
X101289463Y-100791884D01*
X101280498Y-100755992D01*
X101278738Y-100729761D01*
X101283943Y-100710629D01*
X101292534Y-100699132D01*
X101318082Y-100683766D01*
X101346863Y-100684544D01*
X101360269Y-100690144D01*
X101371140Y-100700377D01*
X101388223Y-100721465D01*
X101408964Y-100750091D01*
X101426065Y-100775560D01*
X101449677Y-100811721D01*
X101472975Y-100847049D01*
X101492654Y-100876548D01*
X101501779Y-100890000D01*
X101521080Y-100918631D01*
X101543242Y-100952268D01*
X101556862Y-100973333D01*
X101586185Y-101019166D01*
X101580817Y-100960833D01*
X101566779Y-100857496D01*
X101544253Y-100765603D01*
X101512196Y-100681687D01*
X101476291Y-100613395D01*
X101456672Y-100582575D01*
X101441589Y-100564658D01*
X101428876Y-100557291D01*
X101424211Y-100556767D01*
X101409768Y-100558156D01*
X101382303Y-100561912D01*
X101345212Y-100567533D01*
X101301889Y-100574513D01*
X101280833Y-100578038D01*
X101235510Y-100585712D01*
X101194617Y-100592633D01*
X101161636Y-100598212D01*
X101140048Y-100601860D01*
X101135000Y-100602710D01*
X101114153Y-100606892D01*
X101081024Y-100614317D01*
X101039471Y-100624070D01*
X100993352Y-100635240D01*
X100946526Y-100646911D01*
X100923711Y-100652737D01*
X100890945Y-100662387D01*
X100870265Y-100672166D01*
X100857250Y-100684476D01*
X100852878Y-100691196D01*
X100841521Y-100710959D01*
X100825627Y-100738751D01*
X100810818Y-100764719D01*
X100789360Y-100798403D01*
X100762703Y-100834837D01*
X100741912Y-100860016D01*
X100690628Y-100906598D01*
X100634281Y-100938295D01*
X100574789Y-100954975D01*
X100514070Y-100956506D01*
X100454044Y-100942755D01*
X100396630Y-100913590D01*
X100361524Y-100886218D01*
X100327873Y-100855817D01*
X100277791Y-100881098D01*
X100248298Y-100897421D01*
X100211455Y-100919860D01*
X100173338Y-100944655D01*
X100156608Y-100956124D01*
X100124150Y-100978484D01*
X100094342Y-100998401D01*
X100071353Y-101013119D01*
X100062337Y-101018433D01*
X100056360Y-101022306D01*
X100055564Y-101025309D01*
X99987853Y-101025309D01*
X100025244Y-100994649D01*
X100087456Y-100951181D01*
X100111477Y-100935833D01*
X100126009Y-100925659D01*
X100146771Y-100909966D01*
X100155113Y-100903422D01*
X100178073Y-100887273D01*
X100209302Y-100867929D01*
X100242106Y-100849532D01*
X100242632Y-100849255D01*
X100284858Y-100827035D01*
X100410000Y-100827035D01*
X100416632Y-100833104D01*
X100433867Y-100844545D01*
X100453750Y-100856419D01*
X100502349Y-100877191D01*
X100549109Y-100881824D01*
X100596347Y-100870318D01*
X100624473Y-100856482D01*
X100659523Y-100830845D01*
X100695695Y-100795211D01*
X100727928Y-100755062D01*
X100747631Y-100723078D01*
X100759263Y-100700586D01*
X100689619Y-100720200D01*
X100648536Y-100732520D01*
X100603733Y-100747207D01*
X100557949Y-100763213D01*
X100513922Y-100779492D01*
X100474391Y-100794998D01*
X100442097Y-100808682D01*
X100419779Y-100819500D01*
X100410175Y-100826405D01*
X100410000Y-100827035D01*
X100284858Y-100827035D01*
X100299812Y-100819166D01*
X100267470Y-100765678D01*
X100218351Y-100669423D01*
X100179624Y-100560498D01*
X100151388Y-100439340D01*
X100140119Y-100354441D01*
X100194319Y-100354441D01*
X100195123Y-100381074D01*
X100199523Y-100402754D01*
X100208149Y-100425255D01*
X100208355Y-100425722D01*
X100230169Y-100465087D01*
X100254381Y-100491816D01*
X100279358Y-100504986D01*
X100303468Y-100503674D01*
X100322333Y-100490184D01*
X100331215Y-100473026D01*
X100340091Y-100443381D01*
X100348171Y-100405408D01*
X100354665Y-100363269D01*
X100358782Y-100321123D01*
X100359833Y-100292722D01*
X100352978Y-100249809D01*
X100332374Y-100216067D01*
X100298510Y-100192255D01*
X100293664Y-100190136D01*
X100263500Y-100182510D01*
X100239537Y-100187837D01*
X100221208Y-100206857D01*
X100207947Y-100240309D01*
X100199189Y-100288934D01*
X100196480Y-100317079D01*
X100194319Y-100354441D01*
X100140119Y-100354441D01*
X100133741Y-100306387D01*
X100126782Y-100162077D01*
X100126667Y-100140000D01*
X100129942Y-100051203D01*
X100199230Y-100051203D01*
X100224747Y-100033033D01*
X100266732Y-100012367D01*
X100310471Y-100007687D01*
X100353620Y-100018825D01*
X100393355Y-100045177D01*
X100433632Y-100090720D01*
X100461771Y-100144177D01*
X100478036Y-100206647D01*
X100482692Y-100279225D01*
X100476003Y-100363011D01*
X100473756Y-100378454D01*
X100459534Y-100449524D01*
X100440385Y-100507116D01*
X100415194Y-100553976D01*
X100389595Y-100585950D01*
X100369712Y-100604405D01*
X100350980Y-100612867D01*
X100324984Y-100614994D01*
X100322708Y-100615000D01*
X100298596Y-100616092D01*
X100288080Y-100620051D01*
X100287813Y-100626978D01*
X100292865Y-100642460D01*
X100299611Y-100665778D01*
X100301247Y-100671776D01*
X100311417Y-100696305D01*
X100328552Y-100725714D01*
X100343693Y-100746806D01*
X100377302Y-100789017D01*
X100429956Y-100765393D01*
X100457775Y-100753910D01*
X100496733Y-100739162D01*
X100542069Y-100722894D01*
X100589024Y-100706845D01*
X100598388Y-100703750D01*
X100643189Y-100689111D01*
X100685622Y-100675375D01*
X100721588Y-100663860D01*
X100746984Y-100655886D01*
X100751667Y-100654460D01*
X100769771Y-100648536D01*
X100782056Y-100641551D01*
X100791225Y-100629926D01*
X100799980Y-100610082D01*
X100811024Y-100578442D01*
X100812603Y-100573764D01*
X100830690Y-100517963D01*
X100844773Y-100468201D01*
X100855336Y-100421010D01*
X100862859Y-100372920D01*
X100867824Y-100320460D01*
X100870712Y-100260161D01*
X100872005Y-100188553D01*
X100872209Y-100144166D01*
X100872063Y-100074864D01*
X100871302Y-100019444D01*
X100869774Y-99975127D01*
X100867329Y-99939136D01*
X100863815Y-99908691D01*
X100859081Y-99881015D01*
X100857506Y-99873333D01*
X100830690Y-99765104D01*
X100798856Y-99669342D01*
X100762403Y-99586818D01*
X100721731Y-99518304D01*
X100677239Y-99464569D01*
X100629327Y-99426387D01*
X100624473Y-99423517D01*
X100574500Y-99403085D01*
X100525049Y-99399075D01*
X100476558Y-99411243D01*
X100429468Y-99439343D01*
X100384218Y-99483133D01*
X100341248Y-99542366D01*
X100310046Y-99598241D01*
X100276988Y-99674818D01*
X100248270Y-99762896D01*
X100225205Y-99857585D01*
X100209103Y-99953998D01*
X100205152Y-99989351D01*
X100199230Y-100051203D01*
X100129942Y-100051203D01*
X100132079Y-99993271D01*
X100148268Y-99858270D01*
X100175162Y-99735243D01*
X100212689Y-99624435D01*
X100260777Y-99526092D01*
X100319354Y-99440462D01*
X100337325Y-99419137D01*
X100388132Y-99372745D01*
X100444172Y-99341359D01*
X100503425Y-99324979D01*
X100563872Y-99323605D01*
X100623495Y-99337238D01*
X100680274Y-99365877D01*
X100732190Y-99409522D01*
X100741008Y-99419137D01*
X100797478Y-99493513D01*
X100845107Y-99578879D01*
X100884294Y-99676228D01*
X100915433Y-99786554D01*
X100938923Y-99910850D01*
X100939921Y-99917570D01*
X100946910Y-99983582D01*
X100950651Y-100060639D01*
X100951275Y-100144203D01*
X100948914Y-100229739D01*
X100943696Y-100312709D01*
X100935754Y-100388579D01*
X100925217Y-100452810D01*
X100924404Y-100456666D01*
X100913500Y-100504893D01*
X100903285Y-100542638D01*
X100891838Y-100575883D01*
X100877236Y-100610606D01*
X100869501Y-100627500D01*
X100871230Y-100630290D01*
X100877395Y-100626281D01*
X100890302Y-100620380D01*
X100915568Y-100612130D01*
X100949226Y-100602550D01*
X100987311Y-100592657D01*
X101025859Y-100583471D01*
X101060905Y-100576010D01*
X101088482Y-100571291D01*
X101094123Y-100570621D01*
X101116488Y-100567189D01*
X101131685Y-100562801D01*
X101132722Y-100562241D01*
X101143540Y-100559138D01*
X101167829Y-100554024D01*
X101202593Y-100547473D01*
X101244837Y-100540059D01*
X101273593Y-100535261D01*
X101318469Y-100527752D01*
X101357243Y-100520949D01*
X101387073Y-100515377D01*
X101405117Y-100511559D01*
X101409171Y-100510273D01*
X101405635Y-100503033D01*
X101393160Y-100487212D01*
X101374416Y-100466187D01*
X101373760Y-100465485D01*
X101357832Y-100445714D01*
X101521417Y-100445714D01*
X101528073Y-100459416D01*
X101535629Y-100468121D01*
X101548955Y-100479808D01*
X101563334Y-100485038D01*
X101584836Y-100485260D01*
X101601339Y-100483829D01*
X101630379Y-100480148D01*
X101654645Y-100475717D01*
X101664167Y-100473113D01*
X101667214Y-100469139D01*
X101654071Y-100465287D01*
X101624507Y-100461493D01*
X101622500Y-100461294D01*
X101590193Y-100457102D01*
X101562319Y-100451677D01*
X101545429Y-100446392D01*
X101527485Y-100440745D01*
X101521417Y-100445714D01*
X101357832Y-100445714D01*
X101347687Y-100433122D01*
X101336114Y-100406331D01*
X101338630Y-100383241D01*
X101351667Y-100365000D01*
X101360903Y-100357615D01*
X101373250Y-100352744D01*
X101392111Y-100349862D01*
X101420888Y-100348442D01*
X101462083Y-100347964D01*
X101555833Y-100347595D01*
X101523347Y-100329214D01*
X101501602Y-100315067D01*
X101472746Y-100293846D01*
X101442135Y-100269535D01*
X101434330Y-100263013D01*
X101429125Y-100258284D01*
X101632816Y-100258284D01*
X101639806Y-100267205D01*
X101646057Y-100270954D01*
X101660374Y-100278736D01*
X101665816Y-100281371D01*
X101664555Y-100274726D01*
X101659266Y-100258155D01*
X101658638Y-100256343D01*
X101651969Y-100239919D01*
X101646294Y-100237537D01*
X101638879Y-100245926D01*
X101632816Y-100258284D01*
X101429125Y-100258284D01*
X101401912Y-100233559D01*
X101377892Y-100205642D01*
X101357070Y-100172608D01*
X101343666Y-100146999D01*
X101340182Y-100140625D01*
X101464167Y-100140625D01*
X101497500Y-100170153D01*
X101525810Y-100193442D01*
X101557179Y-100216736D01*
X101567562Y-100223805D01*
X101589304Y-100237412D01*
X101601906Y-100242325D01*
X101609843Y-100239468D01*
X101614866Y-100233547D01*
X101619696Y-100224231D01*
X101614568Y-100218583D01*
X101596504Y-100214078D01*
X101590637Y-100213015D01*
X101559457Y-100202529D01*
X101540189Y-100185247D01*
X101535000Y-100167573D01*
X101540744Y-100158239D01*
X101553140Y-100157971D01*
X101564929Y-100166650D01*
X101565836Y-100168075D01*
X101578568Y-100179335D01*
X101592348Y-100185651D01*
X101604897Y-100188525D01*
X101609362Y-100183888D01*
X101607773Y-100167953D01*
X101606283Y-100159660D01*
X101600969Y-100138182D01*
X101628924Y-100138182D01*
X101629747Y-100142083D01*
X101633616Y-100164971D01*
X101634886Y-100185138D01*
X101635356Y-100200023D01*
X101638064Y-100204383D01*
X101645241Y-100197186D01*
X101659114Y-100177402D01*
X101662557Y-100172330D01*
X101674658Y-100153462D01*
X101677693Y-100143112D01*
X101672272Y-100136228D01*
X101667314Y-100132964D01*
X101645874Y-100123538D01*
X101632247Y-100125479D01*
X101628924Y-100138182D01*
X101600969Y-100138182D01*
X101599595Y-100132629D01*
X101590523Y-100120189D01*
X101576237Y-100120267D01*
X101561371Y-100126790D01*
X101536014Y-100135475D01*
X101505923Y-100140100D01*
X101499997Y-100140312D01*
X101464167Y-100140625D01*
X101340182Y-100140625D01*
X101325498Y-100113758D01*
X101308181Y-100087455D01*
X101294195Y-100071735D01*
X101291016Y-100069627D01*
X101275413Y-100053396D01*
X101269569Y-100027815D01*
X101270917Y-100017902D01*
X101413664Y-100017902D01*
X101418061Y-100038987D01*
X101434390Y-100073490D01*
X101460487Y-100099416D01*
X101492455Y-100113448D01*
X101507306Y-100115000D01*
X101531599Y-100111010D01*
X101554053Y-100096881D01*
X101565000Y-100086666D01*
X101584433Y-100063252D01*
X101592512Y-100040882D01*
X101593333Y-100028333D01*
X101590776Y-100006433D01*
X101582539Y-99998454D01*
X101580833Y-99998333D01*
X101569767Y-99992483D01*
X101568333Y-99987426D01*
X101563698Y-99972521D01*
X101556410Y-99960342D01*
X101549260Y-99951930D01*
X101546759Y-99954683D01*
X101548054Y-99970870D01*
X101549174Y-99979583D01*
X101551007Y-100002344D01*
X101547900Y-100012829D01*
X101540843Y-100015000D01*
X101529658Y-100007906D01*
X101525163Y-99996250D01*
X101518697Y-99982035D01*
X101501682Y-99975636D01*
X101495702Y-99974910D01*
X101476338Y-99975188D01*
X101466923Y-99983497D01*
X101463549Y-99993660D01*
X101460879Y-100026141D01*
X101471659Y-100048795D01*
X101495913Y-100061646D01*
X101524583Y-100064886D01*
X101540063Y-100070061D01*
X101543333Y-100078560D01*
X101540593Y-100086460D01*
X101529818Y-100089524D01*
X101507178Y-100088621D01*
X101501376Y-100088088D01*
X101467609Y-100081169D01*
X101447101Y-100066470D01*
X101437331Y-100041192D01*
X101435530Y-100015000D01*
X101438689Y-99981176D01*
X101449735Y-99960515D01*
X101471026Y-99950460D01*
X101496930Y-99948333D01*
X101519922Y-99947588D01*
X101528868Y-99944691D01*
X101526346Y-99938649D01*
X101525178Y-99937450D01*
X101501646Y-99923011D01*
X101477154Y-99925163D01*
X101451805Y-99943865D01*
X101426832Y-99977232D01*
X101415665Y-99998890D01*
X101413664Y-100017902D01*
X101270917Y-100017902D01*
X101273729Y-99997217D01*
X101285392Y-99970373D01*
X101297732Y-99951634D01*
X101307254Y-99940949D01*
X101309298Y-99940000D01*
X101317043Y-99933456D01*
X101332381Y-99915357D01*
X101353639Y-99888001D01*
X101379143Y-99853685D01*
X101407220Y-99814707D01*
X101436196Y-99773366D01*
X101464398Y-99731959D01*
X101490152Y-99692783D01*
X101495958Y-99683694D01*
X101529143Y-99628304D01*
X101566030Y-99561527D01*
X101604676Y-99487331D01*
X101643137Y-99409681D01*
X101679468Y-99332545D01*
X101711727Y-99259890D01*
X101737969Y-99195681D01*
X101747054Y-99171280D01*
X101794543Y-99023052D01*
X101835001Y-98864782D01*
X101867198Y-98702051D01*
X101889903Y-98540442D01*
X101893283Y-98507867D01*
X101897514Y-98448611D01*
X101900193Y-98376958D01*
X101901357Y-98297100D01*
X101901040Y-98213230D01*
X101899278Y-98129542D01*
X101896106Y-98050227D01*
X101891559Y-97979480D01*
X101888546Y-97946326D01*
X101867629Y-97785282D01*
X101838415Y-97623967D01*
X101801700Y-97465258D01*
X101758279Y-97312032D01*
X101708947Y-97167166D01*
X101654499Y-97033538D01*
X101611390Y-96943597D01*
X101570864Y-96865000D01*
X101699249Y-96865000D01*
X101733088Y-96937916D01*
X101806270Y-97112517D01*
X101869715Y-97299607D01*
X101923066Y-97497895D01*
X101965964Y-97706092D01*
X101990663Y-97865000D01*
X101995360Y-97910232D01*
X101999261Y-97968486D01*
X102002348Y-98036820D01*
X102004603Y-98112296D01*
X102006007Y-98191972D01*
X102006543Y-98272909D01*
X102006192Y-98352166D01*
X102004937Y-98426803D01*
X102002759Y-98493880D01*
X101999640Y-98550456D01*
X101995563Y-98593592D01*
X101995160Y-98596627D01*
X101959145Y-98810557D01*
X101910813Y-99014104D01*
X101849649Y-99208655D01*
X101775139Y-99395597D01*
X101686767Y-99576314D01*
X101584018Y-99752193D01*
X101541958Y-99816762D01*
X101493335Y-99889358D01*
X101524584Y-99898098D01*
X101564670Y-99917373D01*
X101594727Y-99948723D01*
X101613112Y-99989815D01*
X101618333Y-100030960D01*
X101619114Y-100056133D01*
X101623018Y-100069519D01*
X101632391Y-100075979D01*
X101641250Y-100078465D01*
X101662925Y-100088762D01*
X101682617Y-100105707D01*
X101695029Y-100118841D01*
X101700421Y-100119288D01*
X101701367Y-100112916D01*
X101706629Y-100100683D01*
X101716986Y-100099208D01*
X101725393Y-100107829D01*
X101726667Y-100115293D01*
X101722165Y-100135050D01*
X101713867Y-100151786D01*
X101705712Y-100166268D01*
X101707659Y-100173219D01*
X101713867Y-100176232D01*
X101725147Y-100187787D01*
X101726667Y-100194808D01*
X101722488Y-100204309D01*
X101707624Y-100203690D01*
X101706784Y-100203483D01*
X101690640Y-100202926D01*
X101682763Y-100214503D01*
X101682068Y-100216976D01*
X101682925Y-100238274D01*
X101690084Y-100255069D01*
X101698285Y-100272787D01*
X101699060Y-100284771D01*
X101702936Y-100294429D01*
X101716686Y-100306393D01*
X101734926Y-100317478D01*
X101752270Y-100324497D01*
X101763334Y-100324264D01*
X101764182Y-100323308D01*
X101762532Y-100315992D01*
X101757617Y-100315000D01*
X101741146Y-100307992D01*
X101726283Y-100291344D01*
X101718544Y-100271617D01*
X101718333Y-100268281D01*
X101724050Y-100246012D01*
X101738029Y-100226462D01*
X101755513Y-100215644D01*
X101760472Y-100215000D01*
X101774365Y-100219050D01*
X101773841Y-100230747D01*
X101759442Y-100248890D01*
X101748223Y-100263356D01*
X101749609Y-100274611D01*
X101752215Y-100278160D01*
X101764987Y-100284554D01*
X101777393Y-100277197D01*
X101785751Y-100258675D01*
X101786583Y-100254063D01*
X101794543Y-100238465D01*
X101803750Y-100233224D01*
X101814873Y-100237264D01*
X101818372Y-100253110D01*
X101814335Y-100277791D01*
X101802849Y-100308338D01*
X101801437Y-100311306D01*
X101784542Y-100346208D01*
X101814992Y-100376658D01*
X101833221Y-100396673D01*
X101841207Y-100412353D01*
X101841630Y-100429882D01*
X101840745Y-100436054D01*
X101836048Y-100465000D01*
X101937856Y-100465000D01*
X102064993Y-100470376D01*
X102198456Y-100485997D01*
X102332056Y-100511103D01*
X102353754Y-100516121D01*
X102403679Y-100528796D01*
X102438489Y-100539771D01*
X102459553Y-100549793D01*
X102468243Y-100559609D01*
X102465930Y-100569966D01*
X102461699Y-100574967D01*
X102451453Y-100577489D01*
X102429162Y-100575632D01*
X102393547Y-100569211D01*
X102343326Y-100558041D01*
X102341843Y-100557692D01*
X102174641Y-100525682D01*
X102010752Y-100509269D01*
X101918333Y-100506804D01*
X101862596Y-100507592D01*
X101801670Y-100509771D01*
X101739814Y-100513073D01*
X101681284Y-100517229D01*
X101630339Y-100521970D01*
X101591237Y-100527028D01*
X101587161Y-100527709D01*
X101560156Y-100532392D01*
X101590425Y-100592446D01*
X101631375Y-100684383D01*
X101660898Y-100776600D01*
X101680171Y-100873764D01*
X101690368Y-100980544D01*
X101690916Y-100991544D01*
X101692553Y-101046468D01*
X101691231Y-101087607D01*
X101686293Y-101117683D01*
X101677085Y-101139417D01*
X101662953Y-101155532D01*
X101649085Y-101165351D01*
X101624342Y-101180398D01*
X101656754Y-101188929D01*
X101676472Y-101194006D01*
X101708469Y-101202120D01*
X101748850Y-101212286D01*
X101793719Y-101223522D01*
X101810000Y-101227585D01*
X102009469Y-101283187D01*
X102212802Y-101351096D01*
X102415049Y-101429472D01*
X102611260Y-101516477D01*
X102686981Y-101553302D01*
X102761992Y-101591355D01*
X102838641Y-101631314D01*
X102914210Y-101671687D01*
X102985978Y-101710983D01*
X103051227Y-101747710D01*
X103107239Y-101780378D01*
X103151292Y-101807494D01*
X103155833Y-101810426D01*
X103239167Y-101864592D01*
X103197983Y-101864796D01*
X103175361Y-101863584D01*
X103154850Y-101858441D01*
X103131585Y-101847480D01*
X103100701Y-101828813D01*
X103093816Y-101824398D01*
X103049131Y-101797011D01*
X102992029Y-101764223D01*
X102925290Y-101727474D01*
X102851692Y-101688206D01*
X102774017Y-101647859D01*
X102695044Y-101607875D01*
X102617553Y-101569694D01*
X102544324Y-101534757D01*
X102478137Y-101504506D01*
X102468333Y-101500174D01*
X102377006Y-101461675D01*
X102275954Y-101421901D01*
X102171697Y-101383297D01*
X102070755Y-101348312D01*
X102018333Y-101331285D01*
X101988102Y-101322226D01*
X101947500Y-101310769D01*
X101898724Y-101297471D01*
X101843973Y-101282889D01*
X101785444Y-101267580D01*
X101725336Y-101252102D01*
X101665845Y-101237012D01*
X101609172Y-101222867D01*
X101557512Y-101210225D01*
X101513065Y-101199644D01*
X101478029Y-101191679D01*
X101454601Y-101186890D01*
X101444979Y-101185833D01*
X101444909Y-101185880D01*
X101442762Y-101194540D01*
X101438779Y-101216474D01*
X101433509Y-101248461D01*
X101427502Y-101287279D01*
X101426913Y-101291202D01*
X101416248Y-101355406D01*
X101405443Y-101404778D01*
X101393863Y-101441143D01*
X101380877Y-101466328D01*
X101365851Y-101482160D01*
X101359308Y-101486191D01*
X101322709Y-101498213D01*
X101290362Y-101494161D01*
X101262158Y-101473995D01*
X101239396Y-101440443D01*
X101228785Y-101423333D01*
X101220229Y-101415124D01*
X101219497Y-101415000D01*
X101214912Y-101422575D01*
X101207948Y-101442996D01*
X101199689Y-101472806D01*
X101193986Y-101496250D01*
X101185697Y-101531514D01*
X101178532Y-101560862D01*
X101173464Y-101580363D01*
X101171785Y-101585833D01*
X101176583Y-101593986D01*
X101192529Y-101606664D01*
X101211311Y-101618296D01*
X101233774Y-101631668D01*
X101266142Y-101651933D01*
X101305702Y-101677295D01*
X101349736Y-101705957D01*
X101395531Y-101736122D01*
X101440370Y-101765993D01*
X101481537Y-101793772D01*
X101516319Y-101817664D01*
X101541998Y-101835871D01*
X101554389Y-101845324D01*
X101577945Y-101865000D01*
X101543773Y-101865000D01*
X101529427Y-101863846D01*
X101513828Y-101859535D01*
X101494532Y-101850792D01*
X101469097Y-101836341D01*
X101435081Y-101814908D01*
X101390039Y-101785217D01*
X101386884Y-101783113D01*
X101328005Y-101744248D01*
X101275114Y-101710169D01*
X101229713Y-101681794D01*
X101193306Y-101660042D01*
X101167397Y-101645830D01*
X101153487Y-101640078D01*
X101152645Y-101640000D01*
X101145769Y-101646894D01*
X101135107Y-101664580D01*
X101127566Y-101679583D01*
X101093807Y-101734583D01*
X101051091Y-101776132D01*
X101000487Y-101803550D01*
X100943065Y-101816159D01*
X100911535Y-101816671D01*
X100858903Y-101814176D01*
X100863831Y-101766671D01*
X100866071Y-101740879D01*
X100865541Y-101729341D01*
X100861841Y-101729813D01*
X100858129Y-101734642D01*
X100847065Y-101750143D01*
X100830575Y-101772599D01*
X100820417Y-101786225D01*
X100805362Y-101807089D01*
X100795529Y-101822237D01*
X100793333Y-101827000D01*
X100788074Y-101835654D01*
X100776667Y-101848333D01*
X100761631Y-101858689D01*
X100739905Y-101863795D01*
X100711337Y-101865000D01*
X100683366Y-101864263D01*
X100667211Y-101860894D01*
X100658044Y-101853155D01*
X100653127Y-101844043D01*
X100638355Y-101824521D01*
X100623212Y-101813808D01*
X100606335Y-101809188D01*
X100590697Y-101814746D01*
X100580299Y-101822264D01*
X100551031Y-101837511D01*
X100523323Y-101836979D01*
X100501667Y-101823333D01*
X100486806Y-101799688D01*
X100487773Y-101773729D01*
X100504697Y-101744728D01*
X100518463Y-101729575D01*
X100551927Y-101696112D01*
X100610892Y-101700331D01*
X100654782Y-101706286D01*
X100687293Y-101718524D01*
X100713288Y-101739598D01*
X100732317Y-101764025D01*
X100750467Y-101790685D01*
X100782078Y-101734092D01*
X100806760Y-101695036D01*
X100834590Y-101659273D01*
X100862940Y-101629496D01*
X100889181Y-101608400D01*
X100910688Y-101598678D01*
X100914498Y-101598333D01*
X100940695Y-101605453D01*
X100958937Y-101623892D01*
X100966862Y-101649272D01*
X100962110Y-101677213D01*
X100959707Y-101682214D01*
X100955476Y-101695334D01*
X100962066Y-101697217D01*
X100978196Y-101688082D01*
X100993059Y-101676451D01*
X101011107Y-101657406D01*
X101029140Y-101632405D01*
X101043684Y-101606997D01*
X101051264Y-101586729D01*
X101051667Y-101582861D01*
X101044555Y-101575834D01*
X101024594Y-101562477D01*
X100993841Y-101543910D01*
X100954354Y-101521251D01*
X100908192Y-101495622D01*
X100857412Y-101468143D01*
X100804074Y-101439933D01*
X100750236Y-101412113D01*
X100697955Y-101385803D01*
X100649291Y-101362123D01*
X100625467Y-101350929D01*
X100543539Y-101313711D01*
X100472733Y-101283201D01*
X100409585Y-101258045D01*
X100350631Y-101236889D01*
X100292406Y-101218380D01*
X100268333Y-101211353D01*
X100227310Y-101199264D01*
X100177392Y-101183973D01*
X100125474Y-101167618D01*
X100086655Y-101155046D01*
X100044505Y-101141360D01*
X100015327Y-101132602D01*
X99996329Y-101128294D01*
X99984718Y-101127959D01*
X99977702Y-101131121D01*
X99973604Y-101135731D01*
X99958020Y-101148109D01*
X99943111Y-101145653D01*
X99932020Y-101130015D01*
X99928188Y-101111865D01*
X99927824Y-101094331D01*
X99931020Y-101083273D01*
X100029382Y-101083273D01*
X100041724Y-101090964D01*
X100068336Y-101101900D01*
X100109690Y-101116257D01*
X100166260Y-101134210D01*
X100238519Y-101155934D01*
X100243333Y-101157352D01*
X100293317Y-101172545D01*
X100346152Y-101189409D01*
X100395528Y-101205886D01*
X100435000Y-101219868D01*
X100469112Y-101233636D01*
X100515210Y-101253839D01*
X100570535Y-101279140D01*
X100632328Y-101308200D01*
X100697832Y-101339682D01*
X100764288Y-101372250D01*
X100828939Y-101404565D01*
X100889026Y-101435290D01*
X100941790Y-101463088D01*
X100980777Y-101484520D01*
X101014233Y-101503194D01*
X101042319Y-101518372D01*
X101061920Y-101528402D01*
X101069770Y-101531666D01*
X101074302Y-101524212D01*
X101080215Y-101504885D01*
X101085003Y-101483750D01*
X101092972Y-101446427D01*
X101104014Y-101398497D01*
X101116823Y-101345431D01*
X101130097Y-101292704D01*
X101135140Y-101273333D01*
X101147237Y-101245215D01*
X101166293Y-101219091D01*
X101188301Y-101199300D01*
X101209255Y-101190179D01*
X101212104Y-101190000D01*
X101231308Y-101193036D01*
X101247294Y-101203825D01*
X101262251Y-101224891D01*
X101278365Y-101258753D01*
X101284377Y-101273333D01*
X101296045Y-101301603D01*
X101305070Y-101322119D01*
X101309961Y-101331544D01*
X101310412Y-101331666D01*
X101312826Y-101317071D01*
X101316314Y-101292324D01*
X101320338Y-101261739D01*
X101324360Y-101229632D01*
X101327841Y-101200315D01*
X101330244Y-101178103D01*
X101331031Y-101167312D01*
X101330959Y-101166914D01*
X101322538Y-101165172D01*
X101299986Y-101161544D01*
X101265686Y-101156385D01*
X101222023Y-101150050D01*
X101171379Y-101142895D01*
X101146637Y-101139460D01*
X101064021Y-101128587D01*
X100980404Y-101118735D01*
X100892789Y-101109615D01*
X100798179Y-101100938D01*
X100693577Y-101092417D01*
X100575985Y-101083762D01*
X100547500Y-101081772D01*
X100506847Y-101079489D01*
X100457391Y-101077555D01*
X100401650Y-101075986D01*
X100342143Y-101074798D01*
X100281386Y-101074005D01*
X100221897Y-101073623D01*
X100166194Y-101073667D01*
X100116795Y-101074152D01*
X100076216Y-101075093D01*
X100046976Y-101076506D01*
X100031592Y-101078405D01*
X100030835Y-101078652D01*
X100029382Y-101083273D01*
X99931020Y-101083273D01*
X99931853Y-101080391D01*
X99942831Y-101065743D01*
G37*
G36*
X99562706Y-101468451D02*
G01*
X99534527Y-101452345D01*
X99514158Y-101435122D01*
X99496141Y-101411413D01*
X99483297Y-101390309D01*
X99460455Y-101347063D01*
X99443190Y-101306387D01*
X99432484Y-101271314D01*
X99429318Y-101244877D01*
X99432317Y-101232797D01*
X99448122Y-101220902D01*
X99470956Y-101216239D01*
X99492296Y-101220052D01*
X99497468Y-101223307D01*
X99507262Y-101237847D01*
X99514658Y-101259325D01*
X99524581Y-101290333D01*
X99540447Y-101325033D01*
X99558915Y-101357003D01*
X99576649Y-101379822D01*
X99577946Y-101381069D01*
X99597031Y-101393946D01*
X99623641Y-101406411D01*
X99634241Y-101410210D01*
X99653468Y-101415580D01*
X99671817Y-101418028D01*
X99692659Y-101417175D01*
X99719362Y-101412639D01*
X99755294Y-101404039D01*
X99803597Y-101391057D01*
X99846802Y-101381515D01*
X99892392Y-101375156D01*
X99924615Y-101373333D01*
X99956447Y-101374130D01*
X99977902Y-101377761D01*
X99995241Y-101386087D01*
X100013115Y-101399637D01*
X100046247Y-101420547D01*
X100083790Y-101429657D01*
X100085803Y-101429860D01*
X100106506Y-101431115D01*
X100123078Y-101429001D01*
X100140145Y-101421711D01*
X100162335Y-101407438D01*
X100185133Y-101391056D01*
X100223717Y-101365332D01*
X100253137Y-101351647D01*
X100275162Y-101349459D01*
X100291558Y-101358225D01*
X100291667Y-101358333D01*
X100301612Y-101378108D01*
X100295472Y-101400985D01*
X100273425Y-101426432D01*
X100266420Y-101432355D01*
X100218034Y-101468651D01*
X100177498Y-101493169D01*
X100145796Y-101505354D01*
X100134710Y-101506666D01*
X100110000Y-101506666D01*
X100110000Y-101593424D01*
X100106146Y-101666900D01*
X100094794Y-101728579D01*
X100076260Y-101777234D01*
X100054818Y-101807726D01*
X100040683Y-101820799D01*
X100026392Y-101827891D01*
X100006344Y-101830666D01*
X99977191Y-101830829D01*
X99942781Y-101829208D01*
X99910065Y-101825874D01*
X99891120Y-101822599D01*
X99838818Y-101804890D01*
X99796935Y-101778079D01*
X99764449Y-101740752D01*
X99740339Y-101691498D01*
X99723584Y-101628902D01*
X99716162Y-101580460D01*
X99706549Y-101500086D01*
X99658804Y-101496633D01*
X99646899Y-101494182D01*
X99786827Y-101494182D01*
X99787242Y-101518614D01*
X99790552Y-101550885D01*
X99796138Y-101586841D01*
X99803385Y-101622326D01*
X99811674Y-101653187D01*
X99817925Y-101670174D01*
X99831335Y-101697457D01*
X99840961Y-101709240D01*
X99847256Y-101705260D01*
X99850673Y-101685250D01*
X99851667Y-101650491D01*
X99852984Y-101610943D01*
X99857696Y-101585308D01*
X99866944Y-101570989D01*
X99881867Y-101565385D01*
X99889167Y-101565000D01*
X99905191Y-101567317D01*
X99916003Y-101575978D01*
X99922553Y-101593543D01*
X99925790Y-101622572D01*
X99926666Y-101665626D01*
X99926667Y-101666055D01*
X99926947Y-101704922D01*
X99928886Y-101730181D01*
X99934128Y-101744890D01*
X99944317Y-101752107D01*
X99961099Y-101754892D01*
X99974879Y-101755699D01*
X99988278Y-101752799D01*
X99999901Y-101740305D01*
X100011961Y-101717083D01*
X100021093Y-101693299D01*
X100026707Y-101667502D01*
X100029567Y-101634651D01*
X100030415Y-101595088D01*
X100030234Y-101556501D01*
X100028853Y-101531212D01*
X100025721Y-101515866D01*
X100020288Y-101507107D01*
X100015371Y-101503421D01*
X99999284Y-101492614D01*
X99977489Y-101476616D01*
X99969614Y-101470566D01*
X99945910Y-101455098D01*
X99924943Y-101450089D01*
X99910077Y-101451111D01*
X99871465Y-101457600D01*
X99836089Y-101465351D01*
X99808081Y-101473309D01*
X99791577Y-101480420D01*
X99789924Y-101481742D01*
X99786827Y-101494182D01*
X99646899Y-101494182D01*
X99601821Y-101484901D01*
X99562706Y-101468451D01*
G37*
G36*
X97591789Y-101112681D02*
G01*
X97634798Y-101107301D01*
X97640712Y-101106597D01*
X97678772Y-101101946D01*
X97702994Y-101098146D01*
X97716106Y-101094195D01*
X97720834Y-101089088D01*
X97719904Y-101081825D01*
X97718518Y-101077987D01*
X97714013Y-101062761D01*
X97707020Y-101035189D01*
X97698508Y-100999228D01*
X97689722Y-100960108D01*
X97680898Y-100919805D01*
X97673056Y-100884025D01*
X97667065Y-100856727D01*
X97663840Y-100842083D01*
X97662655Y-100837838D01*
X97776667Y-100837838D01*
X97778544Y-100850466D01*
X97783584Y-100875436D01*
X97790897Y-100908927D01*
X97799597Y-100947115D01*
X97808792Y-100986175D01*
X97817596Y-101022285D01*
X97825120Y-101051621D01*
X97830474Y-101070359D01*
X97831194Y-101072463D01*
X97836434Y-101077996D01*
X97849074Y-101080628D01*
X97872168Y-101080585D01*
X97908121Y-101078144D01*
X97943091Y-101075517D01*
X97989485Y-101072364D01*
X98042079Y-101069024D01*
X98095655Y-101065835D01*
X98114167Y-101064790D01*
X98159987Y-101062737D01*
X98218439Y-101060873D01*
X98285489Y-101059284D01*
X98357103Y-101058056D01*
X98429246Y-101057272D01*
X98482301Y-101057025D01*
X98717102Y-101056666D01*
X98742082Y-100992083D01*
X98748358Y-100975858D01*
X98862578Y-100975858D01*
X98870079Y-100986886D01*
X98881252Y-100986825D01*
X98888943Y-100987854D01*
X98887851Y-100994591D01*
X98888448Y-101005031D01*
X98892442Y-101006666D01*
X98898969Y-101013891D01*
X98901667Y-101031156D01*
X98902248Y-101041109D01*
X98905424Y-101048665D01*
X98913339Y-101054320D01*
X98928139Y-101058569D01*
X98951967Y-101061909D01*
X98986970Y-101064837D01*
X99035293Y-101067848D01*
X99068333Y-101069721D01*
X99116819Y-101073044D01*
X99168801Y-101077590D01*
X99216476Y-101082637D01*
X99239167Y-101085522D01*
X99276640Y-101090387D01*
X99311302Y-101094283D01*
X99337336Y-101096574D01*
X99343333Y-101096879D01*
X99361977Y-101096955D01*
X99366072Y-101094191D01*
X99357712Y-101086632D01*
X99355833Y-101085206D01*
X99333917Y-101073094D01*
X99318333Y-101067772D01*
X99303430Y-101063739D01*
X99275848Y-101055752D01*
X99238834Y-101044771D01*
X99195635Y-101031756D01*
X99168333Y-101023442D01*
X99117915Y-101008432D01*
X99066792Y-100993914D01*
X99019842Y-100981230D01*
X98981945Y-100971718D01*
X98970417Y-100969102D01*
X98939183Y-100961574D01*
X98915365Y-100954343D01*
X98902743Y-100948616D01*
X98901667Y-100947127D01*
X98895963Y-100940009D01*
X98883284Y-100940813D01*
X98870279Y-100947860D01*
X98864190Y-100956592D01*
X98862578Y-100975858D01*
X98748358Y-100975858D01*
X98767063Y-100927500D01*
X98719781Y-100917567D01*
X98673241Y-100909004D01*
X98625888Y-100901761D01*
X98894190Y-100901761D01*
X98894564Y-100902342D01*
X98903431Y-100905528D01*
X98925641Y-100912048D01*
X98958391Y-100921117D01*
X98998872Y-100931953D01*
X99026964Y-100939303D01*
X99074282Y-100951737D01*
X99118926Y-100963755D01*
X99157032Y-100974298D01*
X99184738Y-100982304D01*
X99193333Y-100984976D01*
X99221224Y-100993722D01*
X99236637Y-100997409D01*
X99242759Y-100996672D01*
X99243333Y-100994958D01*
X99236350Y-100988652D01*
X99217129Y-100976152D01*
X99188261Y-100958873D01*
X99152336Y-100938229D01*
X99111946Y-100915633D01*
X99069682Y-100892500D01*
X99028134Y-100870242D01*
X98989894Y-100850275D01*
X98957552Y-100834013D01*
X98933700Y-100822868D01*
X98920929Y-100818256D01*
X98919677Y-100818336D01*
X98913494Y-100828138D01*
X98906053Y-100847406D01*
X98899155Y-100870116D01*
X98894600Y-100890242D01*
X98894190Y-100901761D01*
X98625888Y-100901761D01*
X98612786Y-100899757D01*
X98541136Y-100890117D01*
X98461015Y-100880374D01*
X98375145Y-100870819D01*
X98286249Y-100861742D01*
X98197047Y-100853433D01*
X98110264Y-100846183D01*
X98028620Y-100840282D01*
X97955833Y-100836069D01*
X97912201Y-100833745D01*
X97870554Y-100831186D01*
X97836046Y-100828726D01*
X97816250Y-100826974D01*
X97792160Y-100825255D01*
X97780370Y-100827581D01*
X97776769Y-100835082D01*
X97776667Y-100837838D01*
X97662655Y-100837838D01*
X97662118Y-100835912D01*
X97658645Y-100831270D01*
X97651295Y-100827939D01*
X97637943Y-100825701D01*
X97616467Y-100824339D01*
X97584741Y-100823635D01*
X97540640Y-100823372D01*
X97482041Y-100823333D01*
X97301667Y-100823333D01*
X97301667Y-100781666D01*
X97476667Y-100781666D01*
X97528639Y-100781354D01*
X97574473Y-100780483D01*
X97611734Y-100779147D01*
X97637989Y-100777444D01*
X97650803Y-100775467D01*
X97651667Y-100774783D01*
X97650569Y-100764149D01*
X97647600Y-100740739D01*
X97643244Y-100708277D01*
X97639205Y-100679128D01*
X97634414Y-100639440D01*
X97629397Y-100588381D01*
X97624613Y-100531231D01*
X97620521Y-100473271D01*
X97618750Y-100443334D01*
X97616000Y-100395674D01*
X97613395Y-100355603D01*
X97723731Y-100355603D01*
X97724260Y-100379583D01*
X97727115Y-100431014D01*
X97731186Y-100488924D01*
X97736099Y-100549144D01*
X97741480Y-100607504D01*
X97746955Y-100659834D01*
X97752150Y-100701966D01*
X97754733Y-100719166D01*
X97764427Y-100777500D01*
X97818463Y-100783338D01*
X97840923Y-100785447D01*
X97877285Y-100788480D01*
X97924820Y-100792226D01*
X97980803Y-100796475D01*
X98042506Y-100801018D01*
X98107203Y-100805643D01*
X98114167Y-100806132D01*
X98197806Y-100812512D01*
X98284358Y-100820045D01*
X98371039Y-100828422D01*
X98455068Y-100837333D01*
X98533663Y-100846469D01*
X98604041Y-100855521D01*
X98663420Y-100864180D01*
X98709019Y-100872137D01*
X98710000Y-100872333D01*
X98743945Y-100878766D01*
X98765579Y-100879910D01*
X98778996Y-100873433D01*
X98788286Y-100857002D01*
X98797542Y-100828285D01*
X98799634Y-100821250D01*
X98806559Y-100799059D01*
X98811127Y-100782147D01*
X98811735Y-100768727D01*
X98806780Y-100757014D01*
X98794659Y-100745223D01*
X98773767Y-100731568D01*
X98742502Y-100714263D01*
X98699260Y-100691524D01*
X98668762Y-100675511D01*
X98499482Y-100591576D01*
X98332892Y-100520070D01*
X98163722Y-100458780D01*
X98115075Y-100443117D01*
X98062822Y-100426563D01*
X98015206Y-100411159D01*
X97974792Y-100397761D01*
X97944142Y-100387223D01*
X97925820Y-100380401D01*
X97922500Y-100378895D01*
X97905580Y-100372344D01*
X97896991Y-100371588D01*
X97885650Y-100369826D01*
X97862589Y-100363643D01*
X97831805Y-100354162D01*
X97814178Y-100348337D01*
X97780884Y-100337400D01*
X97753199Y-100328891D01*
X97735157Y-100324023D01*
X97730958Y-100323333D01*
X97725679Y-100331451D01*
X97723731Y-100355603D01*
X97613395Y-100355603D01*
X97613297Y-100354102D01*
X97610843Y-100321344D01*
X97608842Y-100300128D01*
X97607623Y-100293178D01*
X97598956Y-100290682D01*
X97577073Y-100285648D01*
X97545117Y-100278726D01*
X97506232Y-100270565D01*
X97463560Y-100261813D01*
X97420245Y-100253120D01*
X97379431Y-100245135D01*
X97344259Y-100238506D01*
X97332916Y-100236458D01*
X97312036Y-100230961D01*
X97303190Y-100221951D01*
X97301667Y-100209945D01*
X97302687Y-100197502D01*
X97308630Y-100192189D01*
X97323815Y-100192336D01*
X97341250Y-100194648D01*
X97364264Y-100198494D01*
X97399160Y-100204995D01*
X97441524Y-100213303D01*
X97486944Y-100222566D01*
X97495372Y-100224325D01*
X97536913Y-100232973D01*
X97572349Y-100240237D01*
X97598622Y-100245499D01*
X97612675Y-100248141D01*
X97614122Y-100248333D01*
X97615987Y-100240624D01*
X97617428Y-100219990D01*
X97618234Y-100190171D01*
X97618333Y-100174216D01*
X97622209Y-100071045D01*
X97633352Y-99957111D01*
X97651032Y-99836277D01*
X97674519Y-99712404D01*
X97703086Y-99589352D01*
X97736002Y-99470984D01*
X97771140Y-99365000D01*
X97843142Y-99185013D01*
X97925436Y-99014844D01*
X98020500Y-98849595D01*
X98073561Y-98767334D01*
X98098027Y-98729784D01*
X98118744Y-98696241D01*
X98134065Y-98669512D01*
X98142344Y-98652402D01*
X98143333Y-98648514D01*
X98148039Y-98632583D01*
X98160896Y-98606308D01*
X98180009Y-98572648D01*
X98203485Y-98534559D01*
X98229432Y-98495000D01*
X98255956Y-98456927D01*
X98281164Y-98423298D01*
X98303163Y-98397071D01*
X98306738Y-98393259D01*
X98353662Y-98350517D01*
X98402601Y-98319224D01*
X98415071Y-98313030D01*
X98440969Y-98301211D01*
X98462178Y-98293448D01*
X98483430Y-98288918D01*
X98509460Y-98286795D01*
X98545004Y-98286253D01*
X98568333Y-98286321D01*
X98614562Y-98287154D01*
X98649771Y-98289645D01*
X98679584Y-98294597D01*
X98709625Y-98302813D01*
X98729023Y-98309270D01*
X98824062Y-98347873D01*
X98917747Y-98397907D01*
X98975112Y-98434296D01*
X99043269Y-98479915D01*
X99163955Y-98441207D01*
X99211634Y-98425550D01*
X99245154Y-98413548D01*
X99266404Y-98404363D01*
X99277274Y-98397155D01*
X99279654Y-98391087D01*
X99279305Y-98390000D01*
X99272824Y-98364971D01*
X99269548Y-98332912D01*
X99270211Y-98303275D01*
X99271828Y-98293875D01*
X99288136Y-98260260D01*
X99318800Y-98227246D01*
X99361544Y-98196513D01*
X99414092Y-98169745D01*
X99464522Y-98151439D01*
X99502434Y-98143645D01*
X99552231Y-98138705D01*
X99609381Y-98136614D01*
X99669348Y-98137371D01*
X99727599Y-98140971D01*
X99779599Y-98147413D01*
X99801667Y-98151660D01*
X99944367Y-98191925D01*
X100086281Y-98248669D01*
X100227071Y-98321714D01*
X100366402Y-98410876D01*
X100503939Y-98515978D01*
X100547834Y-98553223D01*
X100606502Y-98604226D01*
X100595576Y-98540863D01*
X100586084Y-98469466D01*
X100579630Y-98385728D01*
X100576206Y-98293696D01*
X100575803Y-98197415D01*
X100578413Y-98100931D01*
X100584026Y-98008288D01*
X100592634Y-97923534D01*
X100596966Y-97892407D01*
X100633795Y-97695421D01*
X100684230Y-97500374D01*
X100748886Y-97305340D01*
X100828378Y-97108392D01*
X100889756Y-96975416D01*
X100943191Y-96865000D01*
X101005762Y-96865000D01*
X101035653Y-96865254D01*
X101057762Y-96865928D01*
X101068023Y-96866886D01*
X101068298Y-96867083D01*
X101064727Y-96874824D01*
X101054848Y-96894999D01*
X101039871Y-96925166D01*
X101021007Y-96962884D01*
X101003187Y-96998333D01*
X100911020Y-97197120D01*
X100833604Y-97397980D01*
X100771340Y-97599613D01*
X100724626Y-97800721D01*
X100693862Y-98000005D01*
X100693109Y-98006666D01*
X100688954Y-98056825D01*
X100686126Y-98118101D01*
X100684625Y-98186034D01*
X100684453Y-98256166D01*
X100685613Y-98324038D01*
X100688105Y-98385190D01*
X100691932Y-98435163D01*
X100692947Y-98444166D01*
X100721733Y-98615331D01*
X100765603Y-98780283D01*
X100824312Y-98938338D01*
X100897614Y-99088812D01*
X100964608Y-99200244D01*
X100995531Y-99251760D01*
X101013761Y-99292686D01*
X101019295Y-99323237D01*
X101012134Y-99343626D01*
X100992274Y-99354066D01*
X100963390Y-99355121D01*
X100949295Y-99353066D01*
X100937450Y-99347964D01*
X100925302Y-99337346D01*
X100910295Y-99318745D01*
X100889876Y-99289691D01*
X100878771Y-99273333D01*
X100843460Y-99217147D01*
X100805745Y-99150351D01*
X100767994Y-99077698D01*
X100732573Y-99003941D01*
X100701850Y-98933834D01*
X100678193Y-98872130D01*
X100676468Y-98867083D01*
X100664147Y-98832407D01*
X100653062Y-98804500D01*
X100644575Y-98786602D01*
X100640538Y-98781666D01*
X100631934Y-98776299D01*
X100614023Y-98761745D01*
X100589554Y-98740325D01*
X100565473Y-98718285D01*
X100442094Y-98609958D01*
X100318801Y-98514938D01*
X100196322Y-98433594D01*
X100075388Y-98366297D01*
X99956726Y-98313415D01*
X99841065Y-98275316D01*
X99729135Y-98252371D01*
X99630833Y-98244968D01*
X99559365Y-98248011D01*
X99496570Y-98258082D01*
X99444673Y-98274629D01*
X99405898Y-98297097D01*
X99399583Y-98302560D01*
X99381919Y-98322203D01*
X99378479Y-98337573D01*
X99389188Y-98352960D01*
X99398570Y-98361005D01*
X99413658Y-98377605D01*
X99421776Y-98400532D01*
X99424461Y-98419975D01*
X99425221Y-98450231D01*
X99420021Y-98467198D01*
X99417141Y-98470138D01*
X99406337Y-98475041D01*
X99381970Y-98484228D01*
X99346346Y-98496892D01*
X99301771Y-98512224D01*
X99250550Y-98529415D01*
X99210000Y-98542767D01*
X99092875Y-98582350D01*
X98992104Y-98619239D01*
X98907600Y-98653472D01*
X98839274Y-98685084D01*
X98787039Y-98714112D01*
X98778526Y-98719603D01*
X98753952Y-98736216D01*
X98741581Y-98746305D01*
X98739685Y-98752494D01*
X98746536Y-98757408D01*
X98751995Y-98759895D01*
X98768227Y-98763219D01*
X98799141Y-98765848D01*
X98842763Y-98767684D01*
X98897117Y-98768630D01*
X98930833Y-98768736D01*
X99009740Y-98767555D01*
X99076586Y-98763845D01*
X99135867Y-98756993D01*
X99192079Y-98746388D01*
X99249718Y-98731416D01*
X99285937Y-98720375D01*
X99321519Y-98713018D01*
X99346118Y-98717701D01*
X99360866Y-98735014D01*
X99366705Y-98762621D01*
X99366624Y-98786869D01*
X99360270Y-98801449D01*
X99349910Y-98810020D01*
X99328655Y-98819943D01*
X99294591Y-98831259D01*
X99251417Y-98843053D01*
X99202830Y-98854414D01*
X99152530Y-98864428D01*
X99104213Y-98872182D01*
X99091353Y-98873847D01*
X99043467Y-98878009D01*
X98987949Y-98880175D01*
X98928529Y-98880465D01*
X98868940Y-98878998D01*
X98812910Y-98875894D01*
X98764171Y-98871272D01*
X98726454Y-98865250D01*
X98712867Y-98861744D01*
X98670254Y-98841795D01*
X98639664Y-98813935D01*
X98622267Y-98780371D01*
X98619236Y-98743309D01*
X98630704Y-98706916D01*
X98651714Y-98679179D01*
X98686412Y-98648717D01*
X98732387Y-98617130D01*
X98787231Y-98586014D01*
X98848533Y-98556968D01*
X98870749Y-98547715D01*
X98918999Y-98528323D01*
X98887416Y-98508712D01*
X98830121Y-98476006D01*
X98768843Y-98445930D01*
X98709448Y-98421175D01*
X98662670Y-98405725D01*
X98590993Y-98392673D01*
X98525859Y-98394849D01*
X98466699Y-98412409D01*
X98412941Y-98445511D01*
X98371522Y-98485463D01*
X98350821Y-98510919D01*
X98339681Y-98530755D01*
X98335406Y-98550646D01*
X98335000Y-98562330D01*
X98334049Y-98577169D01*
X98330200Y-98591870D01*
X98321955Y-98609102D01*
X98307817Y-98631532D01*
X98286288Y-98661830D01*
X98257393Y-98700641D01*
X98137106Y-98873596D01*
X98031744Y-99052532D01*
X97941635Y-99236733D01*
X97867103Y-99425483D01*
X97808476Y-99618065D01*
X97776696Y-99756666D01*
X97760208Y-99849134D01*
X97746035Y-99947202D01*
X97734874Y-100045007D01*
X97727424Y-100136690D01*
X97724847Y-100192112D01*
X97722500Y-100273392D01*
X97760000Y-100285486D01*
X97777152Y-100290946D01*
X97807938Y-100300670D01*
X97850085Y-100313944D01*
X97901322Y-100330053D01*
X97959376Y-100348282D01*
X98021975Y-100367918D01*
X98051667Y-100377224D01*
X98177635Y-100418028D01*
X98290722Y-100457688D01*
X98394507Y-100497673D01*
X98492569Y-100539451D01*
X98588487Y-100584489D01*
X98685841Y-100634254D01*
X98710000Y-100647162D01*
X98830833Y-100712225D01*
X98853518Y-100619862D01*
X98876082Y-100518535D01*
X98897307Y-100404990D01*
X98916564Y-100283664D01*
X98933223Y-100158991D01*
X98946656Y-100035406D01*
X98950134Y-99992532D01*
X99077032Y-99992532D01*
X99077586Y-100075875D01*
X99080488Y-100155205D01*
X99085738Y-100225616D01*
X99089584Y-100258463D01*
X99111033Y-100382125D01*
X99139550Y-100492985D01*
X99174871Y-100590218D01*
X99216734Y-100672997D01*
X99226935Y-100689404D01*
X99264240Y-100737905D01*
X99303010Y-100770699D01*
X99342660Y-100787568D01*
X99382603Y-100788296D01*
X99422254Y-100772664D01*
X99432654Y-100765741D01*
X99457153Y-100745351D01*
X99478704Y-100723108D01*
X99484365Y-100715890D01*
X99502588Y-100690299D01*
X99471972Y-100663419D01*
X99429004Y-100615479D01*
X99399865Y-100560101D01*
X99393162Y-100539092D01*
X99384741Y-100510038D01*
X99373692Y-100474989D01*
X99366584Y-100453738D01*
X99359462Y-100430530D01*
X99354888Y-100407566D01*
X99352506Y-100380693D01*
X99351989Y-100347645D01*
X99485984Y-100347645D01*
X99486199Y-100392823D01*
X99492587Y-100437161D01*
X99501386Y-100466893D01*
X99516241Y-100497819D01*
X99534643Y-100524258D01*
X99553435Y-100542357D01*
X99568173Y-100548333D01*
X99573136Y-100540936D01*
X99580870Y-100521371D01*
X99589854Y-100493572D01*
X99591510Y-100487916D01*
X99605213Y-100437343D01*
X99616454Y-100389930D01*
X99624774Y-100348252D01*
X99629717Y-100314885D01*
X99630827Y-100292405D01*
X99627769Y-100283423D01*
X99618846Y-100273511D01*
X99618333Y-100270006D01*
X99611281Y-100259062D01*
X99593875Y-100246350D01*
X99571741Y-100234841D01*
X99550503Y-100227505D01*
X99536771Y-100226937D01*
X99517336Y-100241273D01*
X99502057Y-100268450D01*
X99491438Y-100305047D01*
X99485984Y-100347645D01*
X99351989Y-100347645D01*
X99351960Y-100345759D01*
X99352895Y-100298611D01*
X99352996Y-100295107D01*
X99354598Y-100249126D01*
X99356734Y-100215813D01*
X99360101Y-100191169D01*
X99365396Y-100171195D01*
X99373315Y-100151894D01*
X99380526Y-100137170D01*
X99404921Y-100098485D01*
X99433487Y-100067947D01*
X99438672Y-100063836D01*
X99458116Y-100050360D01*
X99474716Y-100043210D01*
X99494655Y-100040923D01*
X99524115Y-100042037D01*
X99529389Y-100042384D01*
X99560992Y-100045274D01*
X99582149Y-100050382D01*
X99599078Y-100060188D01*
X99617997Y-100077173D01*
X99618973Y-100078124D01*
X99651667Y-100110049D01*
X99651667Y-99987951D01*
X99648584Y-99882876D01*
X99639659Y-99781238D01*
X99625381Y-99684317D01*
X99606235Y-99593395D01*
X99582708Y-99509753D01*
X99555288Y-99434670D01*
X99524460Y-99369427D01*
X99490713Y-99315307D01*
X99454532Y-99273588D01*
X99416405Y-99245552D01*
X99376819Y-99232480D01*
X99364167Y-99231666D01*
X99324665Y-99239809D01*
X99286046Y-99263480D01*
X99248893Y-99301545D01*
X99213786Y-99352869D01*
X99181308Y-99416315D01*
X99152041Y-99490749D01*
X99126567Y-99575036D01*
X99105467Y-99668040D01*
X99089469Y-99767510D01*
X99082972Y-99833442D01*
X99078827Y-99910085D01*
X99077032Y-99992532D01*
X98950134Y-99992532D01*
X98956232Y-99917344D01*
X98958439Y-99880361D01*
X98961895Y-99826203D01*
X98965989Y-99786605D01*
X98971325Y-99759459D01*
X98978508Y-99742659D01*
X98988142Y-99734097D01*
X99000830Y-99731667D01*
X99001071Y-99731666D01*
X99008662Y-99728165D01*
X99015329Y-99715903D01*
X99022069Y-99692243D01*
X99029462Y-99656754D01*
X99052963Y-99553520D01*
X99081845Y-99459522D01*
X99115461Y-99376007D01*
X99153166Y-99304222D01*
X99194313Y-99245414D01*
X99238256Y-99200831D01*
X99279579Y-99173940D01*
X99319311Y-99161384D01*
X99365526Y-99156776D01*
X99410637Y-99160383D01*
X99438514Y-99168356D01*
X99485199Y-99196347D01*
X99529556Y-99239663D01*
X99570995Y-99297056D01*
X99608930Y-99367275D01*
X99642771Y-99449072D01*
X99671931Y-99541196D01*
X99695820Y-99642399D01*
X99713850Y-99751430D01*
X99714162Y-99753798D01*
X99720106Y-99814070D01*
X99724102Y-99886233D01*
X99726151Y-99965628D01*
X99726252Y-100047594D01*
X99724405Y-100127472D01*
X99720610Y-100200600D01*
X99714868Y-100262318D01*
X99714162Y-100267867D01*
X99696261Y-100377049D01*
X99672489Y-100478429D01*
X99643435Y-100570758D01*
X99609686Y-100652785D01*
X99571832Y-100723260D01*
X99530459Y-100780936D01*
X99486158Y-100824561D01*
X99439516Y-100852887D01*
X99438514Y-100853309D01*
X99399001Y-100863081D01*
X99352844Y-100864444D01*
X99307632Y-100857664D01*
X99279579Y-100847726D01*
X99233102Y-100816666D01*
X99188997Y-100770210D01*
X99147919Y-100709539D01*
X99110522Y-100635834D01*
X99077463Y-100550277D01*
X99049396Y-100454049D01*
X99040552Y-100416626D01*
X99021450Y-100330752D01*
X99002958Y-100437990D01*
X98993091Y-100491293D01*
X98980983Y-100550903D01*
X98968376Y-100608492D01*
X98959799Y-100644697D01*
X98950268Y-100684112D01*
X98942451Y-100718305D01*
X98937146Y-100743659D01*
X98935148Y-100756557D01*
X98935147Y-100756666D01*
X98942253Y-100765967D01*
X98961806Y-100780565D01*
X98991186Y-100798639D01*
X99012165Y-100810245D01*
X99210401Y-100921622D01*
X99347500Y-101005561D01*
X99393172Y-101033628D01*
X99443155Y-101062991D01*
X99491332Y-101090128D01*
X99530833Y-101111134D01*
X99567829Y-101130389D01*
X99592164Y-101144581D01*
X99606331Y-101155583D01*
X99612822Y-101165271D01*
X99614167Y-101173798D01*
X99608154Y-101190935D01*
X99591081Y-101196962D01*
X99564398Y-101191787D01*
X99535980Y-101178909D01*
X99514183Y-101168986D01*
X99487439Y-101160914D01*
X99452259Y-101153903D01*
X99405154Y-101147163D01*
X99385000Y-101144697D01*
X99292518Y-101134081D01*
X99203461Y-101124528D01*
X99120758Y-101116323D01*
X99047341Y-101109752D01*
X98986143Y-101105098D01*
X98962838Y-101103676D01*
X98931579Y-101101776D01*
X98909205Y-101101563D01*
X98894086Y-101105341D01*
X98884590Y-101115412D01*
X98879089Y-101134078D01*
X98875951Y-101163643D01*
X98873545Y-101206409D01*
X98872207Y-101231666D01*
X98870029Y-101290791D01*
X98871098Y-101335116D01*
X98875710Y-101366245D01*
X98884165Y-101385779D01*
X98896758Y-101395325D01*
X98902833Y-101396683D01*
X98921150Y-101394097D01*
X98940288Y-101380103D01*
X98950423Y-101369310D01*
X98966033Y-101349119D01*
X98975431Y-101332312D01*
X98976667Y-101327210D01*
X98983784Y-101309236D01*
X99001090Y-101292697D01*
X99022515Y-101282694D01*
X99030833Y-101281666D01*
X99057371Y-101289008D01*
X99075864Y-101309534D01*
X99084559Y-101340995D01*
X99085000Y-101351166D01*
X99088116Y-101386432D01*
X99096613Y-101430422D01*
X99109211Y-101479135D01*
X99124631Y-101528566D01*
X99141594Y-101574711D01*
X99158819Y-101613566D01*
X99175029Y-101641129D01*
X99179337Y-101646416D01*
X99196551Y-101665332D01*
X99205359Y-101638261D01*
X99220287Y-101614415D01*
X99242955Y-101601352D01*
X99268693Y-101599170D01*
X99292833Y-101607964D01*
X99310706Y-101627830D01*
X99314167Y-101636017D01*
X99324561Y-101660390D01*
X99335137Y-101678664D01*
X99343090Y-101688598D01*
X99349937Y-101689687D01*
X99359567Y-101680334D01*
X99372637Y-101663260D01*
X99408877Y-101626838D01*
X99452177Y-101605444D01*
X99503344Y-101598682D01*
X99503418Y-101598682D01*
X99537737Y-101601720D01*
X99568374Y-101611626D01*
X99599586Y-101630481D01*
X99635632Y-101660368D01*
X99642577Y-101666723D01*
X99670633Y-101696746D01*
X99683809Y-101722086D01*
X99682575Y-101744543D01*
X99668333Y-101765000D01*
X99646650Y-101779261D01*
X99621960Y-101780327D01*
X99592639Y-101767783D01*
X99557063Y-101741212D01*
X99549559Y-101734630D01*
X99527479Y-101718195D01*
X99506842Y-101708140D01*
X99499043Y-101706666D01*
X99479725Y-101713942D01*
X99461231Y-101732221D01*
X99447742Y-101756183D01*
X99443333Y-101777541D01*
X99435753Y-101803710D01*
X99415994Y-101825184D01*
X99388523Y-101838032D01*
X99372331Y-101840000D01*
X99347692Y-101837826D01*
X99328364Y-101832539D01*
X99327301Y-101832006D01*
X99314713Y-101829228D01*
X99305395Y-101839630D01*
X99303028Y-101844506D01*
X99297239Y-101854725D01*
X99288774Y-101860830D01*
X99273729Y-101863873D01*
X99248199Y-101864906D01*
X99226968Y-101865000D01*
X99160245Y-101865000D01*
X99176758Y-101837916D01*
X99191191Y-101807528D01*
X99191782Y-101786131D01*
X99178491Y-101773371D01*
X99169016Y-101770553D01*
X99139704Y-101757853D01*
X99108942Y-101733153D01*
X99080733Y-101700202D01*
X99063245Y-101671515D01*
X99054561Y-101652321D01*
X99042984Y-101624012D01*
X99029993Y-101590560D01*
X99017066Y-101555935D01*
X99005679Y-101524112D01*
X98997310Y-101499060D01*
X98993439Y-101484753D01*
X98993333Y-101483600D01*
X98986890Y-101485342D01*
X98971139Y-101492726D01*
X98968747Y-101493952D01*
X98935289Y-101504352D01*
X98895059Y-101507031D01*
X98854985Y-101502281D01*
X98821992Y-101490392D01*
X98817482Y-101487612D01*
X98797033Y-101469287D01*
X98782068Y-101444155D01*
X98771675Y-101409541D01*
X98764942Y-101362773D01*
X98762148Y-101325531D01*
X98757741Y-101248562D01*
X98712502Y-101337996D01*
X98647205Y-101459858D01*
X98580018Y-101570006D01*
X98507697Y-101673335D01*
X98427002Y-101774744D01*
X98410801Y-101793796D01*
X98349676Y-101865000D01*
X98095060Y-101865000D01*
X98067737Y-101833881D01*
X98026482Y-101780952D01*
X97982924Y-101714216D01*
X97938315Y-101636148D01*
X97893909Y-101549223D01*
X97850958Y-101455917D01*
X97810715Y-101358705D01*
X97774432Y-101260062D01*
X97768527Y-101242671D01*
X97755814Y-101205375D01*
X97744771Y-101174168D01*
X97736568Y-101152278D01*
X97732376Y-101142933D01*
X97732343Y-101142898D01*
X97722866Y-101142368D01*
X97699610Y-101143919D01*
X97665284Y-101147210D01*
X97622598Y-101151900D01*
X97574263Y-101157648D01*
X97522989Y-101164114D01*
X97471485Y-101170957D01*
X97422462Y-101177837D01*
X97378630Y-101184413D01*
X97342699Y-101190345D01*
X97319834Y-101194746D01*
X97306234Y-101195657D01*
X97302365Y-101187045D01*
X97303167Y-101175721D01*
X97305833Y-101152500D01*
X97430833Y-101134552D01*
X97483725Y-101127116D01*
X97489632Y-101126314D01*
X97844932Y-101126314D01*
X97873663Y-101208855D01*
X97927536Y-101352305D01*
X97984480Y-101482177D01*
X98043999Y-101597416D01*
X98096322Y-101683191D01*
X98122448Y-101720436D01*
X98149560Y-101755437D01*
X98175401Y-101785634D01*
X98197713Y-101808469D01*
X98214240Y-101821384D01*
X98219959Y-101823333D01*
X98229212Y-101817785D01*
X98246661Y-101803048D01*
X98268985Y-101781982D01*
X98275580Y-101775416D01*
X98333089Y-101712787D01*
X98391890Y-101640158D01*
X98450073Y-101560545D01*
X98505726Y-101476963D01*
X98556939Y-101392429D01*
X98601803Y-101309958D01*
X98638405Y-101232568D01*
X98664836Y-101163273D01*
X98666316Y-101158612D01*
X98682636Y-101106390D01*
X98661597Y-101101110D01*
X98646391Y-101099606D01*
X98616763Y-101098702D01*
X98574943Y-101098350D01*
X98523163Y-101098504D01*
X98463654Y-101099115D01*
X98398647Y-101100137D01*
X98330374Y-101101522D01*
X98261066Y-101103223D01*
X98192954Y-101105192D01*
X98128269Y-101107381D01*
X98069243Y-101109745D01*
X98018107Y-101112235D01*
X97977092Y-101114804D01*
X97962883Y-101115942D01*
X97844932Y-101126314D01*
X97489632Y-101126314D01*
X97539404Y-101119556D01*
X97591789Y-101112681D01*
G37*
%TD*%
M02*
